SplineFontDB: 3.0
FontName: Samyak-Oriya
FullName: Samyak Oriya
FamilyName: Samyak Oriya
Weight: Medium
Copyright: Created by:\nRahul Bhalerao <b.rahul.pm@gmail.com>, \nSandeep Shedmake <sandeep.shedmake@gmail.com>, \nBageshri Salvi <sbageshri@gmail.com>, \nPravin Satpute <pravin.d.s@gmail.com>\n\nGNU GPL V.3 or later (with Font Exception), Copyright `2005-2006 by  H.B.C.S.E., T.I.F.R.,\nHomi Bhabha Centre For Science Education, \nTata Institute Of Fundamental Research,\nV.N. Purav Marg, Mankhurd, \nMumbai 400 088, INDIA.\n\nAs a special exception, if you create a document which uses this font, and embed this font or unaltered portions of this font into the document, this font does not by itself cause the resulting document to be covered by the GNU General Public License. This exception does not however invalidate any other reasons why the document might be covered by the GNU General Public License. If you modify this font, you may extend this exception to your version of the font, but you are not obligated to do so. If you do not wish to do so, delete this exception statement from your version.  \n\nFor detailed license see: \nwww.gnu.org and\nhttp://www.gnu.org/licenses/gpl-faq.html#FontException\n\nFurther info :http://sarovar.org/projects/samyak/\nwww.gnowledge.org\n\nCONTACTS:\nNagarjuna G.\nEmail:nagarjun@gnowledge.org
Version: 1.2.2
ItalicAngle: 0
UnderlinePosition: -100
UnderlineWidth: 50
Ascent: 819
Descent: 205
LayerCount: 2
Layer: 0 1 "Back"  1
Layer: 1 1 "Fore"  0
NeedsXUIDChange: 1
FSType: 0
OS2Version: 0
OS2_WeightWidthSlopeOnly: 0
OS2_UseTypoMetrics: 0
CreationTime: 1175679890
ModificationTime: 1273580697
PfmFamily: 17
TTFWeight: 500
TTFWidth: 5
LineGap: 102
VLineGap: 0
Panose: 2 0 6 3 0 0 0 0 0 0
OS2TypoAscent: 819
OS2TypoAOffset: 1
OS2TypoDescent: -205
OS2TypoDOffset: 1
OS2TypoLinegap: 0
OS2WinAscent: 0
OS2WinAOffset: 1
OS2WinDescent: 0
OS2WinDOffset: 1
HheadAscent: 0
HheadAOffset: 1
HheadDescent: 0
HheadDOffset: 1
OS2SubXSize: 665
OS2SubYSize: 716

StartChar: .notdef
Encoding: 0 -1 0
AltUni2: 000000.ffffffff.0
Width: 443
GlyphClass: 2
Flags: W
LayerCount: 2
Fore
SplineSet
34 0 m 1,0,-1
 34 682 l 1,1,-1
 375 682 l 1,2,-1
 375 0 l 1,3,-1
 34 0 l 1,0,-1
68 34 m 1,4,-1
 341 34 l 1,5,-1
 341 648 l 1,6,-1
 68 648 l 1,7,-1
 68 34 l 1,4,-1
EndSplineSet
EndChar

StartChar: glyph2
Encoding: 1114113 -1 1
Width: 18
Flags: W
LayerCount: 2
Fore
SplineSet
-360 872 m 0,0,1
 -372 909 -372 909 -371 936 c 0,2,3
 -371 941 -371 941 -370 943 c 0,4,5
 -368 948 -368 948 -364 943 c 0,6,7
 -361 940 -361 940 -356 930 c 2,8,-1
 -346 908 l 2,9,10
 -290 790 -290 790 -166 776 c 0,11,12
 -135 773 -135 773 -104 777 c 0,13,14
 -88 779 -88 779 -72 783 c 0,15,16
 -50 789 -50 789 -28 798 c 0,17,18
 4 810 4 810 39 836 c 0,19,20
 75 861 75 861 106 900 c 1,21,-1
 129 937 l 1,22,-1
 130 935 l 1,23,-1
 129 915 l 1,24,-1
 127 909 l 2,25,26
 125 902 125 902 119 888 c 128,-1,27
 113 874 113 874 112 872 c 0,28,29
 60 761 60 761 -52 716 c 0,30,31
 -97 698 -97 698 -146 701 c 0,32,33
 -152 701 -152 701 -158 702 c 0,34,35
 -172 703 -172 703 -185 706 c 0,36,37
 -218 714 -218 714 -248 731 c 0,38,39
 -327 776 -327 776 -360 872 c 0,0,1
-116 876 m 1,40,41
 -186 878 -186 878 -190 928 c 1,42,-1
 -190 935 l 1,43,-1
 -188 948 l 1,44,45
 -187 949 -187 949 -186 951 c 0,46,47
 -184 955 -184 955 -180 959 c 0,48,49
 -162 980 -162 980 -121 980 c 0,50,51
 -98 981 -98 981 -82 973 c 0,52,53
 -74 970 -74 970 -68 964 c 1,54,-1
 -58 950 l 1,55,56
 -56 946 -56 946 -54 941 c 1,57,-1
 -51 929 l 1,58,59
 -54 893 -54 893 -90 881 c 0,60,61
 -103 877 -103 877 -116 876 c 1,40,41
EndSplineSet
EndChar

StartChar: xbishorgo
Encoding: 2819 2819 2
Width: 409
GlyphClass: 2
Flags: W
AnchorPoint: "Anchor-0" 0 0 mark 0
LayerCount: 2
Fore
SplineSet
208 303 m 1,0,1
 112 239 112 239 105 153 c 0,2,3
 104 136 104 136 107 122 c 0,4,5
 108 114 108 114 111 107 c 0,6,7
 116 95 116 95 124 85 c 0,8,9
 136 69 136 69 155 57 c 0,10,11
 183 38 183 38 213 40 c 0,12,13
 216 41 216 41 219 41 c 0,14,15
 225 42 225 42 232 44 c 0,16,17
 257 52 257 52 276 71 c 0,18,19
 304 99 304 99 302 147 c 1,20,-1
 302 152 l 1,21,22
 300 169 300 169 298 176 c 0,23,24
 283 242 283 242 208 303 c 1,0,1
204 351 m 1,25,26
 285 409 285 409 298 475 c 0,27,28
 302 497 302 497 301 516 c 0,29,30
 301 521 301 521 300 525 c 0,31,32
 299 537 299 537 295 548 c 0,33,34
 287 569 287 569 272 583 c 0,35,36
 240 612 240 612 202 609 c 0,37,38
 198 609 l 0,39,40
 194 609 194 609 190 608 c 0,41,42
 169 602 169 602 155 594 c 0,43,44
 104 566 104 566 104 497 c 0,45,46
 104 415 104 415 204 351 c 1,25,26
172 329 m 1,47,48
 43 405 43 405 43 502 c 0,49,50
 43 570 43 570 101 615 c 0,51,52
 149 652 149 652 209 651 c 0,53,54
 289 649 289 649 325 606 c 0,55,56
 358 565 358 565 358 506 c 0,57,58
 358 499 358 499 357 495 c 0,59,60
 356 482 356 482 351 468 c 0,61,62
 329 396 329 396 239 327 c 1,63,64
 284 291 284 291 313 250 c 1,65,66
 359 192 359 192 360 141 c 1,67,68
 359 0 359 0 205 0 c 2,69,-1
 197 0 l 2,70,71
 76 0 76 0 50 102 c 0,72,73
 47 114 47 114 45 128 c 0,74,75
 43 143 43 143 47 160 c 0,76,77
 49 168 49 168 52 178 c 0,78,79
 56 190 56 190 63 203 c 0,80,81
 74 226 74 226 90 247 c 0,82,83
 115 283 115 283 172 329 c 1,47,48
EndSplineSet
EndChar

StartChar: xa
Encoding: 2821 2821 4
Width: 821
GlyphClass: 2
Flags: W
LayerCount: 2
Fore
SplineSet
709 103 m 2,0,1
 709 65 709 65 742 65 c 0,2,3
 772 65 772 65 782 96 c 0,4,5
 784 100 784 100 785 103 c 1,6,7
 786 69 786 69 774 45 c 0,8,9
 767 32 767 32 757 22 c 0,10,11
 735 1 735 1 701 0 c 0,12,13
 675 -1 675 -1 659 11 c 0,14,15
 651 16 651 16 645 25 c 0,16,17
 635 38 635 38 632 61 c 0,18,19
 630 79 630 79 630 89 c 2,20,-1
 630 584 l 2,21,22
 630 612 630 612 662 623 c 0,23,24
 693 633 693 633 701 639 c 0,25,26
 706 644 706 644 709 650 c 1,27,-1
 709 103 l 2,0,1
385 43 m 0,28,29
 461 41 461 41 522 73 c 0,30,31
 553 89 553 89 579 114 c 0,32,33
 618 151 618 151 636 199 c 1,34,-1
 636 122 l 1,35,36
 520 0 520 0 381 0 c 0,37,38
 75 0 75 0 78 199 c 1,39,-1
 78 211 l 1,40,41
 84 323 84 323 294 383 c 0,42,43
 459 431 459 431 457 518 c 1,44,45
 450 604 450 604 367 601 c 2,46,-1
 362 601 l 2,47,48
 356 601 356 601 353 600 c 0,49,50
 294 593 294 593 277 510 c 1,51,52
 249 605 249 605 182 606 c 0,53,54
 130 607 130 607 113 562 c 0,55,56
 106 544 106 544 107 518 c 0,57,58
 108 481 108 481 157 452 c 1,59,-1
 213 431 l 1,60,61
 220 421 220 421 216 417 c 1,62,-1
 208 414 l 1,63,-1
 186 415 l 1,64,65
 43 436 43 436 43 528 c 0,66,67
 45 635 45 635 173 650 c 0,68,69
 201 653 201 653 225 643 c 0,70,71
 237 637 237 637 247 628 c 2,72,-1
 266 609 l 1,73,-1
 278 591 l 1,74,75
 313 650 313 650 371 650 c 0,76,77
 502 650 502 650 519 570 c 1,78,79
 537 473 537 473 448 413 c 1,80,-1
 409 390 l 1,81,82
 375 374 375 374 332 361 c 0,83,84
 172 315 172 315 170 206 c 0,85,86
 169 136 169 136 210 97 c 0,87,88
 232 77 232 77 264 64 c 0,89,90
 312 45 312 45 385 43 c 0,28,29
EndSplineSet
EndChar

StartChar: xaa
Encoding: 2822 2822 5
Width: 1020
GlyphClass: 2
Flags: W
LayerCount: 2
Fore
SplineSet
905 103 m 2,0,1
 905 65 905 65 938 65 c 0,2,3
 968 65 968 65 978 96 c 0,4,5
 980 100 980 100 981 103 c 1,6,7
 982 69 982 69 970 45 c 0,8,9
 963 32 963 32 953 22 c 0,10,11
 931 1 931 1 897 0 c 0,12,13
 871 -1 871 -1 855 11 c 0,14,15
 847 16 847 16 841 25 c 0,16,17
 831 38 831 38 828 61 c 0,18,19
 826 79 826 79 826 89 c 2,20,-1
 826 584 l 2,21,22
 826 612 826 612 858 623 c 0,23,24
 889 633 889 633 897 639 c 0,25,26
 902 644 902 644 905 650 c 1,27,-1
 905 103 l 2,0,1
708 103 m 2,28,29
 708 65 708 65 741 65 c 0,30,31
 771 65 771 65 781 96 c 0,32,33
 783 100 783 100 784 103 c 1,34,35
 785 69 785 69 773 45 c 0,36,37
 766 32 766 32 756 22 c 0,38,39
 734 1 734 1 700 0 c 0,40,41
 674 -1 674 -1 658 11 c 0,42,43
 650 16 650 16 644 25 c 0,44,45
 634 38 634 38 631 61 c 0,46,47
 629 79 629 79 629 89 c 2,48,-1
 629 584 l 2,49,50
 629 612 629 612 661 623 c 0,51,52
 692 633 692 633 700 639 c 0,53,54
 705 644 705 644 708 650 c 1,55,-1
 708 103 l 2,28,29
384 43 m 0,56,57
 498 40 498 40 572 110 c 0,58,59
 608 145 608 145 635 199 c 1,60,-1
 635 125 l 1,61,62
 516 0 516 0 380 0 c 0,63,64
 74 0 74 0 77 199 c 1,65,-1
 77 211 l 1,66,67
 83 323 83 323 293 383 c 0,68,69
 458 431 458 431 456 518 c 1,70,71
 449 604 449 604 366 601 c 2,72,-1
 361 601 l 2,73,74
 355 601 355 601 352 600 c 0,75,76
 293 593 293 593 276 510 c 1,77,78
 247 607 247 607 181 608 c 0,79,80
 102 610 102 610 106 518 c 0,81,82
 107 481 107 481 156 452 c 1,83,-1
 212 431 l 1,84,85
 219 421 219 421 215 417 c 1,86,-1
 207 414 l 1,87,-1
 185 415 l 1,88,89
 42 436 42 436 42 528 c 0,90,91
 44 635 44 635 172 650 c 0,92,93
 200 653 200 653 224 643 c 0,94,95
 236 637 236 637 246 628 c 2,96,-1
 265 609 l 1,97,-1
 277 591 l 1,98,99
 312 650 312 650 370 650 c 0,100,101
 501 650 501 650 518 570 c 1,102,103
 536 473 536 473 447 413 c 1,104,-1
 408 390 l 1,105,106
 374 374 374 374 331 361 c 0,107,108
 171 315 171 315 169 206 c 0,109,110
 168 136 168 136 209 97 c 0,111,112
 231 77 231 77 263 64 c 0,113,114
 311 45 311 45 384 43 c 0,56,57
EndSplineSet
EndChar

StartChar: xi
Encoding: 2823 2823 6
Width: 867
GlyphClass: 2
Flags: W
LayerCount: 2
Fore
SplineSet
464 41 m 1,0,1
 495 43 495 43 515 76 c 0,2,3
 536 109 536 109 535 149 c 0,4,5
 535 182 535 182 517 211 c 0,6,7
 494 246 494 246 464 247 c 0,8,9
 448 248 448 248 435 243 c 1,10,-1
 423 236 l 1,11,-1
 410 224 l 1,12,-1
 408 220 l 2,13,14
 386 186 386 186 386 149 c 0,15,16
 387 103 387 103 407 73 c 0,17,18
 427 41 427 41 464 41 c 1,0,1
277 41 m 1,19,20
 307 43 307 43 327 76 c 0,21,22
 349 110 349 110 348 149 c 0,23,24
 346 183 346 183 330 211 c 1,25,26
 307 246 307 246 277 247 c 1,27,-1
 253 245 l 2,28,29
 247 243 l 0,30,31
 241 240 241 240 235 236 c 1,32,-1
 223 224 l 1,33,-1
 220 220 l 2,34,35
 198 186 198 186 198 149 c 0,36,37
 199 103 199 103 219 73 c 1,38,39
 238 41 238 41 277 41 c 1,19,20
367 227 m 1,40,41
 398 278 398 278 453 285 c 0,42,43
 473 288 473 288 491 286 c 0,44,45
 501 285 501 285 509 283 c 0,46,47
 521 280 521 280 533 273 c 0,48,49
 554 261 554 261 565 247 c 0,50,51
 606 198 606 198 606 146 c 0,52,53
 606 82 606 82 566 42 c 0,54,55
 526 0 526 0 460 0 c 0,56,57
 400 0 400 0 367 54 c 1,58,59
 337 6 337 6 281 0 c 0,60,61
 250 -3 250 -3 226 3 c 1,62,-1
 201 13 l 1,63,64
 181 23 181 23 169 38 c 0,65,66
 128 85 128 85 128 148 c 0,67,68
 128 203 128 203 168 243 c 0,69,70
 210 286 210 286 279 285 c 0,71,72
 328 285 328 285 367 227 c 1,40,41
501 588 m 0,73,74
 470 600 470 600 359 600 c 0,75,76
 261 600 261 600 189 540 c 0,77,78
 104 470 104 470 123 348 c 0,79,80
 133 290 133 290 217 248 c 1,81,-1
 169 210 l 1,82,83
 53 267 53 267 45 390 c 0,84,85
 43 423 43 423 51 453 c 0,86,87
 55 469 55 469 62 484 c 0,88,89
 71 506 71 506 87 527 c 0,90,91
 108 556 108 556 147 586 c 0,92,93
 232 650 232 650 387 650 c 1,94,95
 503 648 503 648 572 625 c 0,96,97
 671 590 671 590 729 498 c 0,98,99
 778 418 778 418 765 315 c 0,100,101
 756 248 756 248 708 194 c 0,102,103
 686 168 686 168 690 144 c 0,104,105
 690 141 690 141 691 138 c 0,106,107
 693 129 693 129 700 121 c 1,108,109
 711 105 711 105 739 90 c 1,110,-1
 822 37 l 1,111,112
 833 16 833 16 803 7 c 0,113,114
 787 2 787 2 760 0 c 0,115,116
 753 -1 753 -1 745 4 c 0,117,118
 740 7 740 7 734 12 c 2,119,-1
 716 29 l 1,120,121
 644 108 644 108 644 127 c 0,122,123
 644 166 644 166 672 231 c 0,124,125
 728 364 728 364 645 486 c 0,126,127
 602 550 602 550 501 588 c 0,73,74
EndSplineSet
EndChar

StartChar: xii
Encoding: 2824 2824 7
Width: 899
GlyphClass: 2
Flags: W
LayerCount: 2
Fore
SplineSet
115 306 m 1,0,1
 118 260 118 260 209 206 c 1,2,-1
 161 168 l 1,3,4
 47 242 47 242 45 316 c 0,5,6
 40 464 40 464 213 436 c 0,7,8
 299 421 299 421 413 372 c 0,9,10
 474 346 474 346 474 329 c 0,11,12
 473 325 473 325 458 325 c 0,13,14
 455 325 455 325 451 326 c 0,15,16
 440 328 440 328 424 332 c 1,17,18
 373 349 373 349 252 380 c 0,19,20
 187 396 187 396 153 383 c 0,21,22
 136 377 136 377 126 363 c 0,23,24
 114 345 114 345 115 311 c 1,25,-1
 115 306 l 1,0,1
749 504 m 1,26,27
 794 425 794 425 791 352 c 0,28,29
 791 346 l 2,30,-1
 791 341 l 1,31,-1
 789 321 l 1,32,33
 782 263 782 263 726 200 c 0,34,35
 696 165 696 165 721 128 c 0,36,37
 733 110 733 110 760 90 c 1,38,-1
 853 37 l 1,39,40
 866 16 866 16 829 5 c 0,41,42
 810 0 810 0 784 0 c 0,43,44
 762 0 762 0 734 29 c 0,45,46
 654 114 654 114 654 137 c 0,47,48
 654 172 654 172 685 237 c 0,49,50
 718 307 718 307 709 374 c 0,51,52
 706 392 706 392 701 409 c 0,53,54
 687 451 687 451 656 492 c 0,55,56
 581 590 581 590 490 596 c 0,57,58
 418 601 418 601 376 579 c 0,59,60
 354 568 354 568 341 551 c 1,61,-1
 328 529 l 1,62,63
 320 511 320 511 318 487 c 0,64,65
 316 464 316 464 322 443 c 1,66,-1
 331 420 l 1,67,68
 338 405 338 405 352 389 c 1,69,70
 344 366 344 366 336 366 c 1,71,-1
 324 370 l 2,72,73
 311 376 311 376 295 394 c 0,74,75
 245 446 245 446 248 496 c 0,76,77
 249 499 249 499 249 502 c 1,78,-1
 250 508 l 1,79,-1
 250 509 l 1,80,81
 253 608 253 608 375 639 c 0,82,83
 411 648 411 648 456 650 c 1,84,-1
 506 648 l 2,85,86
 509 647 509 647 511 647 c 0,87,88
 671 626 671 626 742 515 c 2,89,-1
 749 504 l 1,26,27
472 41 m 0,90,91
 503 43 503 43 523 76 c 0,92,93
 544 110 544 110 543 149 c 0,94,95
 543 182 543 182 525 211 c 0,96,97
 502 246 502 246 472 247 c 0,98,99
 456 248 456 248 443 243 c 1,100,-1
 431 236 l 1,101,-1
 418 224 l 1,102,-1
 416 220 l 2,103,104
 394 186 394 186 394 149 c 0,105,106
 395 103 395 103 415 73 c 1,107,108
 434 40 434 40 472 41 c 0,90,91
285 41 m 1,109,110
 315 43 315 43 335 76 c 0,111,112
 357 110 357 110 356 149 c 0,113,114
 354 183 354 183 338 211 c 1,115,116
 315 246 315 246 285 247 c 0,117,118
 246 248 246 248 228 220 c 0,119,120
 206 186 206 186 206 149 c 0,121,122
 207 103 207 103 227 73 c 0,123,124
 247 41 247 41 285 41 c 1,109,110
375 227 m 1,125,126
 406 278 406 278 461 285 c 0,127,128
 492 290 492 290 518 282 c 0,129,130
 531 279 531 279 542 272 c 0,131,132
 559 263 559 263 573 247 c 0,133,134
 614 198 614 198 614 146 c 0,135,136
 614 82 614 82 574 42 c 0,137,138
 534 0 534 0 468 0 c 0,139,140
 408 0 408 0 375 54 c 1,141,142
 345 6 345 6 289 0 c 0,143,144
 269 -2 269 -2 251 0 c 0,145,146
 241 1 241 1 233 3 c 0,147,148
 220 7 220 7 208 13 c 0,149,150
 189 23 189 23 177 38 c 0,151,152
 136 85 136 85 136 148 c 0,153,154
 136 203 136 203 176 243 c 0,155,156
 218 286 218 286 287 285 c 0,157,158
 336 285 336 285 375 227 c 1,125,126
EndSplineSet
EndChar

StartChar: xu
Encoding: 2825 2825 8
Width: 868
GlyphClass: 2
Flags: W
LayerCount: 2
Fore
SplineSet
499 588 m 0,0,1
 458 603 458 603 357 603 c 0,2,3
 266 603 266 603 187 538 c 0,4,5
 102 468 102 468 121 346 c 0,6,7
 131 288 131 288 215 246 c 1,8,-1
 167 208 l 1,9,10
 51 265 51 265 43 388 c 0,11,12
 41 421 41 421 49 451 c 0,13,14
 53 467 53 467 60 482 c 0,15,16
 69 504 69 504 85 525 c 0,17,18
 106 554 106 554 145 584 c 0,19,20
 234 650 234 650 385 650 c 0,21,22
 493 649 493 649 570 623 c 0,23,24
 669 588 669 588 727 496 c 0,25,26
 776 416 776 416 763 313 c 0,27,28
 754 246 754 246 706 192 c 0,29,30
 684 166 684 166 688 144 c 0,31,32
 688 141 688 141 689 138 c 0,33,34
 692 129 692 129 698 121 c 0,35,36
 709 105 709 105 737 90 c 1,37,-1
 820 37 l 1,38,39
 827 24 827 24 817 15 c 0,40,41
 812 10 812 10 801 7 c 2,42,-1
 763 0 l 1,43,-1
 758 0 l 2,44,45
 751 -1 751 -1 743 4 c 0,46,47
 738 7 738 7 732 12 c 2,48,-1
 715 28 l 1,49,-1
 714 29 l 2,50,51
 642 108 642 108 642 127 c 0,52,53
 642 164 642 164 670 229 c 0,54,55
 726 362 726 362 643 484 c 0,56,57
 596 552 596 552 499 588 c 0,0,1
517 296 m 1,58,59
 613 268 613 268 612 190 c 1,60,61
 609 121 609 121 525 57 c 0,62,63
 452 0 452 0 357 0 c 0,64,65
 260 0 260 0 196 54 c 2,66,-1
 193 57 l 2,67,68
 126 116 126 116 121 165 c 0,69,70
 120 169 120 169 120 172 c 0,71,72
 119 192 119 192 123 212 c 0,73,74
 125 222 125 222 128 231 c 0,75,76
 133 245 133 245 140 258 c 0,77,78
 152 278 152 278 170 297 c 0,79,80
 206 333 206 333 254 362 c 0,81,82
 278 377 278 377 295 375 c 1,83,84
 302 371 302 371 301 359 c 1,85,-1
 300 355 l 1,86,-1
 291 338 l 1,87,-1
 226 265 l 1,88,89
 204 226 204 226 205 188 c 0,90,91
 206 186 206 186 206 182 c 0,92,93
 215 128 215 128 254 92 c 0,94,95
 299 50 299 50 350 44 c 2,96,-1
 355 44 l 2,97,98
 383 42 383 42 409 49 c 0,99,100
 422 52 422 52 435 58 c 0,101,102
 456 66 456 66 473 79 c 0,103,104
 532 121 532 121 533 172 c 0,105,106
 534 188 534 188 529 202 c 0,107,108
 526 210 526 210 522 216 c 0,109,110
 516 225 516 225 508 233 c 1,111,-1
 487 247 l 2,112,113
 480 251 480 251 473 254 c 1,114,-1
 422 210 l 1,115,116
 398 196 398 196 386 198 c 1,117,-1
 382 200 l 2,118,119
 369 208 369 208 371 223 c 0,120,121
 372 229 372 229 380 235 c 1,122,123
 492 339 492 339 498 343 c 0,124,125
 515 356 515 356 533 354 c 1,126,-1
 539 352 l 2,127,128
 546 348 546 348 545 335 c 0,129,130
 545 329 545 329 542 323 c 1,131,-1
 517 296 l 1,58,59
EndSplineSet
EndChar

StartChar: xuu
Encoding: 2826 2826 9
Width: 883
GlyphClass: 2
Flags: W
LayerCount: 2
Fore
SplineSet
383 603 m 2,0,1
 257 599 257 599 180 540 c 1,2,3
 116 489 116 489 120 415 c 0,4,5
 121 412 121 412 121 408 c 0,6,7
 121 403 121 403 122 397 c 0,8,9
 123 390 123 390 127 374 c 0,10,11
 142 316 142 316 221 276 c 1,12,-1
 173 238 l 1,13,14
 62 290 62 290 46 416 c 0,15,16
 40 461 40 461 59 500 c 0,17,18
 69 520 69 520 86 539 c 0,19,20
 112 566 112 566 151 591 c 0,21,22
 247 651 247 651 385 650 c 0,23,24
 508 648 508 648 616 621 c 0,25,26
 777 579 777 579 777 495 c 0,27,28
 777 413 777 413 722 380 c 1,29,30
 829 357 829 357 830 270 c 0,31,32
 831 252 831 252 824 234 c 0,33,34
 820 224 820 224 814 215 c 0,35,36
 805 202 805 202 792 189 c 1,37,-1
 762 164 l 1,38,-1
 743 151 l 2,39,40
 725 139 725 139 728 123 c 1,41,42
 730 119 730 119 733 114 c 0,43,44
 740 104 740 104 760 90 c 2,45,-1
 843 37 l 1,46,47
 854 16 854 16 824 7 c 0,48,49
 808 2 808 2 781 0 c 0,50,51
 773 -1 773 -1 764 4 c 0,52,53
 759 7 759 7 753 12 c 0,54,55
 743 22 743 22 737 29 c 0,56,57
 671 110 671 110 674 129 c 1,58,59
 697 143 697 143 732 182 c 0,60,61
 764 216 764 216 759 263 c 0,62,63
 759 268 759 268 758 271 c 0,64,65
 747 336 747 336 661 349 c 1,66,67
 709 412 709 412 694 472 c 0,68,69
 688 494 688 494 674 516 c 0,70,71
 615 606 615 606 402 603 c 2,72,-1
 394 603 l 1,73,-1
 383 603 l 2,0,1
545 298 m 1,74,75
 641 270 641 270 640 192 c 1,76,77
 637 123 637 123 553 59 c 0,78,79
 477 0 477 0 386 0 c 0,80,81
 293 0 293 0 230 51 c 2,82,-1
 220 59 l 2,83,84
 151 118 151 118 148 174 c 0,85,86
 147 194 147 194 151 214 c 0,87,88
 153 224 153 224 156 233 c 0,89,90
 161 247 161 247 168 260 c 0,91,92
 180 281 180 281 198 299 c 0,93,94
 234 335 234 335 282 364 c 0,95,96
 308 380 308 380 323 377 c 1,97,98
 332 371 332 371 328 357 c 0,99,100
 325 350 325 350 319 340 c 1,101,-1
 254 267 l 1,102,103
 232 228 232 228 233 190 c 0,104,105
 233 186 233 186 234 184 c 0,106,107
 243 130 243 130 282 94 c 0,108,109
 330 49 330 49 383 46 c 0,110,111
 426 43 426 43 464 60 c 0,112,113
 483 68 483 68 501 81 c 0,114,115
 560 123 560 123 561 174 c 0,116,117
 562 190 562 190 557 204 c 0,118,119
 554 212 554 212 550 218 c 0,120,121
 544 227 544 227 536 235 c 1,122,-1
 515 249 l 1,123,-1
 501 256 l 1,124,-1
 450 212 l 1,125,126
 429 199 429 199 415 200 c 1,127,-1
 410 202 l 2,128,129
 397 210 397 210 399 225 c 0,130,131
 400 231 400 231 408 237 c 1,132,133
 520 341 520 341 526 345 c 0,134,135
 543 358 543 358 561 356 c 1,136,-1
 567 354 l 2,137,138
 576 350 576 350 573 336 c 0,139,140
 572 331 572 331 570 325 c 1,141,-1
 545 298 l 1,74,75
EndSplineSet
EndChar

StartChar: xru
Encoding: 2827 2827 10
Width: 837
GlyphClass: 2
Flags: W
LayerCount: 2
Fore
SplineSet
312 303 m 0,0,1
 269 304 269 304 237 282 c 0,2,3
 220 271 220 271 206 253 c 0,4,5
 180 219 180 219 180 177 c 0,6,7
 180 111 180 111 236 72 c 0,8,9
 273 47 273 47 318 48 c 0,10,11
 381 50 381 50 415 104 c 0,12,13
 435 134 435 134 435 171 c 0,14,15
 435 239 435 239 382 278 c 0,16,17
 351 302 351 302 312 303 c 0,0,1
306 345 m 0,18,19
 400 347 400 347 463 288 c 0,20,21
 515 239 515 239 516 171 c 0,22,23
 517 115 517 115 483 74 c 0,24,25
 466 53 466 53 440 36 c 0,26,27
 386 0 386 0 318 0 c 0,28,29
 201 0 201 0 141 66 c 0,30,31
 105 106 105 106 102 162 c 0,32,33
 98 249 98 249 176 304 c 0,34,35
 233 344 233 344 306 345 c 0,18,19
657 372 m 1,36,37
 646 506 646 506 566 555 c 0,38,39
 478 610 478 610 380 609 c 0,40,41
 274 608 274 608 207 560 c 0,42,43
 120 498 120 498 122 398 c 0,44,45
 124 318 124 318 187 267 c 1,46,-1
 136 240 l 1,47,48
 92 263 92 263 64 317 c 0,49,50
 44 355 44 355 43 398 c 0,51,52
 42 458 42 458 62 503 c 0,53,54
 72 526 72 526 87 544 c 0,55,56
 114 577 114 577 157 599 c 0,57,58
 256 651 256 651 381 650 c 0,59,60
 522 648 522 648 616 594 c 0,61,62
 738 525 738 525 730 399 c 0,63,64
 729 396 729 396 729 390 c 0,65,66
 722 304 722 304 674 275 c 1,67,68
 781 252 781 252 782 165 c 0,69,70
 783 123 783 123 744 84 c 0,71,72
 725 65 725 65 695 46 c 0,73,74
 670 30 670 30 685 9 c 0,75,76
 693 -2 693 -2 712 -15 c 2,77,-1
 795 -68 l 1,78,79
 806 -89 806 -89 776 -98 c 0,80,81
 760 -103 760 -103 733 -105 c 1,82,-1
 719 -103 l 1,83,-1
 716 -101 l 2,84,85
 711 -98 711 -98 705 -93 c 0,86,87
 695 -83 695 -83 689 -76 c 0,88,89
 618 9 618 9 626 24 c 1,90,91
 649 38 649 38 684 77 c 0,92,93
 716 112 716 112 711 158 c 0,94,95
 711 163 711 163 710 166 c 0,96,97
 699 231 699 231 613 244 c 1,98,99
 658 301 658 301 657 367 c 1,100,-1
 657 372 l 1,36,37
EndSplineSet
EndChar

StartChar: ampersand
Encoding: 2828 2828 11
Width: 628
GlyphClass: 2
Flags: W
LayerCount: 2
Fore
SplineSet
419 210 m 0,0,1
 388 208 388 208 365 192 c 0,2,3
 339 174 339 174 338 143 c 0,4,5
 337 131 337 131 341 119 c 0,6,7
 344 113 344 113 347 108 c 0,8,9
 352 100 352 100 360 92 c 0,10,11
 388 65 388 65 419 65 c 128,-1,12
 450 65 450 65 479 92 c 0,13,14
 504 114 504 114 504 143 c 0,15,16
 504 173 504 173 479 192 c 0,17,18
 452 213 452 213 419 210 c 0,0,1
227 434 m 0,19,20
 220 433 220 433 213 438 c 0,21,22
 209 441 209 441 204 446 c 0,23,24
 197 453 197 453 189 464 c 0,25,26
 165 500 165 500 160 531 c 0,27,28
 158 546 158 546 160 560 c 0,29,30
 164 574 l 0,31,32
 168 584 168 584 174 593 c 0,33,34
 187 610 187 610 200 618 c 0,35,36
 246 650 246 650 319 650 c 0,37,38
 403 650 403 650 459 615 c 0,39,40
 517 577 517 577 517 525 c 0,41,42
 516 465 516 465 454 429 c 0,43,44
 368 378 368 378 291 346 c 0,45,46
 137 280 137 280 135 206 c 0,47,48
 134 185 134 185 140 166 c 0,49,50
 143 156 143 156 147 147 c 0,51,52
 154 134 154 134 164 122 c 0,53,54
 180 104 180 104 203 88 c 1,55,56
 266 49 266 49 345 49 c 1,57,58
 276 79 276 79 272 149 c 0,59,60
 270 180 270 180 294 209 c 0,61,62
 307 224 307 224 326 238 c 0,63,64
 361 263 361 263 422 263 c 2,65,-1
 427 263 l 2,66,67
 485 260 485 260 533 227 c 0,68,69
 580 194 580 194 580 145 c 0,70,71
 578 95 578 95 508 50 c 0,72,73
 444 7 444 7 360 0 c 0,74,75
 271 -9 271 -9 201 15 c 0,76,77
 166 27 166 27 135 47 c 0,78,79
 38 109 38 109 44 194 c 0,80,81
 45 198 45 198 45 201 c 1,82,-1
 47 213 l 2,83,84
 60 291 60 291 210 354 c 0,85,86
 360 418 360 418 394 450 c 0,87,88
 426 480 426 480 423 520 c 1,89,-1
 423 525 l 1,90,91
 420 562 420 562 392 581 c 0,92,93
 362 602 362 602 315 601 c 0,94,95
 255 599 255 599 238 575 c 0,96,97
 220 550 220 550 221 522 c 0,98,99
 223 491 223 491 236 472 c 0,100,101
 248 455 248 455 245 445 c 1,102,-1
 243 441 l 1,103,-1
 232 435 l 2,104,105
 231 434 231 434 227 434 c 0,19,20
EndSplineSet
EndChar

StartChar: xe
Encoding: 2831 2831 12
Width: 731
GlyphClass: 2
Flags: W
LayerCount: 2
Fore
SplineSet
368 410 m 0,0,1
 347 449 347 449 368 484 c 0,2,3
 380 504 380 504 404 519 c 2,4,-1
 582 630 l 2,5,6
 617 651 617 651 648 650 c 0,7,8
 682 648 682 648 682 595 c 2,9,-1
 682 75 l 2,10,11
 682 13 682 13 650 3 c 1,12,-1
 627 0 l 1,13,14
 596 0 596 0 568 26 c 1,15,-1
 63 424 l 1,16,17
 34 448 34 448 43 472 c 0,18,19
 46 479 46 479 51 484 c 0,20,21
 74 507 74 507 117 480 c 0,22,23
 125 475 125 475 133 469 c 2,24,-1
 539 149 l 2,25,26
 566 128 566 128 588 131 c 1,27,28
 608 138 608 138 608 174 c 2,29,-1
 608 524 l 2,30,31
 608 549 608 549 597 554 c 0,32,33
 588 558 588 558 580 557 c 0,34,35
 576 556 576 556 573 555 c 0,36,37
 566 553 566 553 555 546 c 2,38,-1
 463 487 l 1,39,40
 497 474 497 474 503 445 c 0,41,42
 509 411 509 411 492 391 c 1,43,-1
 479 380 l 1,44,-1
 470 375 l 2,45,46
 446 365 446 365 424 368 c 0,47,48
 418 369 418 369 411 371 c 0,49,50
 385 380 385 380 368 410 c 0,0,1
EndSplineSet
EndChar

StartChar: xei
Encoding: 2832 2832 13
Width: 1061
GlyphClass: 2
Flags: W
LayerCount: 2
Fore
SplineSet
368 410 m 0,0,1
 347 449 347 449 368 484 c 0,2,3
 380 504 380 504 404 519 c 2,4,-1
 582 630 l 2,5,6
 617 651 617 651 648 650 c 0,7,8
 682 648 682 648 682 596 c 2,9,-1
 682 75 l 2,10,11
 682 16 682 16 656 4 c 0,12,13
 646 0 646 0 630 0 c 0,14,15
 599 0 599 0 568 26 c 1,16,-1
 63 424 l 1,17,18
 34 448 34 448 43 472 c 0,19,20
 46 479 46 479 51 484 c 0,21,22
 74 507 74 507 117 480 c 0,23,24
 125 475 125 475 133 469 c 2,25,-1
 539 149 l 2,26,27
 566 128 566 128 588 131 c 1,28,29
 608 138 608 138 608 174 c 2,30,-1
 608 524 l 2,31,32
 608 549 608 549 597 554 c 0,33,34
 588 558 588 558 580 557 c 0,35,36
 576 556 576 556 573 555 c 0,37,38
 566 553 566 553 555 546 c 2,39,-1
 463 487 l 1,40,41
 497 474 497 474 503 445 c 0,42,43
 509 411 509 411 492 391 c 1,44,-1
 479 380 l 1,45,-1
 470 375 l 2,46,47
 446 365 446 365 424 368 c 0,48,49
 418 369 418 369 411 371 c 0,50,51
 385 380 385 380 368 410 c 0,0,1
860 651 m 1,52,53
 897 695 897 695 896 758 c 1,54,55
 893 818 893 818 850 839 c 0,56,57
 821 853 821 853 767 850 c 0,58,59
 758 850 758 850 749 849 c 2,60,-1
 678 838 l 2,61,62
 677 837 677 837 674 837 c 0,63,64
 644 831 644 831 604 837 c 0,65,66
 584 840 584 840 561 846 c 0,67,68
 523 856 523 856 486 871 c 0,69,70
 457 884 457 884 460 907 c 0,71,72
 464 932 464 932 505 919 c 1,73,74
 586 890 586 890 645 895 c 0,75,76
 652 896 652 896 658 897 c 0,77,78
 676 900 676 900 691 906 c 0,79,80
 757 933 757 933 829 928 c 0,81,82
 837 928 837 928 845 927 c 0,83,84
 866 926 866 926 891 919 c 0,85,86
 972 900 972 900 984 809 c 0,87,88
 992 752 992 752 972 701 c 0,89,90
 960 670 960 670 939 650 c 1,91,-1
 940 103 l 1,92,93
 940 65 940 65 973 65 c 0,94,95
 1003 65 1003 65 1013 96 c 0,96,97
 1015 100 1015 100 1016 103 c 1,98,-1
 1014 70 l 1,99,100
 1012 62 l 0,101,102
 1009 53 1009 53 1005 45 c 0,103,104
 998 32 998 32 988 22 c 0,105,106
 966 1 966 1 932 0 c 0,107,108
 906 -1 906 -1 890 11 c 0,109,110
 882 16 882 16 876 25 c 0,111,112
 866 38 866 38 863 61 c 0,113,114
 861 79 861 79 861 89 c 1,115,-1
 860 651 l 1,52,53
640 418 m 1,116,117
 704 337 704 337 784 338 c 0,118,119
 876 340 876 340 924 413 c 1,120,-1
 925 356 l 1,121,122
 877 277 877 277 784 277 c 0,123,124
 701 277 701 277 640 356 c 1,125,-1
 640 418 l 1,116,117
EndSplineSet
EndChar

StartChar: xo
Encoding: 2835 2835 14
Width: 700
GlyphClass: 2
Flags: W
LayerCount: 2
Fore
SplineSet
127 615 m 0,0,1
 147 647 147 647 160 650 c 0,2,3
 176 654 176 654 175 626 c 0,4,5
 175 621 175 621 156 580 c 0,6,7
 115 490 115 490 109 417 c 1,8,-1
 108 408 l 1,9,10
 104 328 104 328 122 267 c 0,11,12
 131 236 131 236 146 210 c 0,13,14
 167 174 167 174 204 143 c 0,15,16
 311 57 311 57 410 66 c 0,17,18
 416 66 416 66 422 67 c 0,19,20
 432 68 432 68 445 72 c 0,21,22
 564 101 564 101 566 182 c 0,23,24
 567 246 567 246 534 281 c 1,25,-1
 514 297 l 2,26,27
 504 304 504 304 491 309 c 1,28,-1
 454 319 l 1,29,30
 425 324 425 324 395 323 c 2,31,-1
 391 323 l 2,32,33
 363 322 363 322 351 328 c 0,34,35
 345 331 345 331 344 336 c 1,36,-1
 346 348 l 1,37,38
 348 352 348 352 351 356 c 1,39,-1
 396 370 l 1,40,41
 545 383 545 383 553 482 c 0,42,43
 555 509 555 509 547 531 c 0,44,45
 542 544 542 544 534 555 c 0,46,47
 525 570 525 570 506 585 c 0,48,49
 485 601 485 601 444 600 c 0,50,51
 440 599 440 599 435 599 c 0,52,53
 417 597 417 597 409 595 c 0,54,55
 378 589 378 589 362 555 c 0,56,57
 357 546 357 546 358 533 c 1,58,-1
 359 526 l 1,59,60
 360 521 360 521 366 509 c 0,61,62
 373 497 373 497 372 491 c 1,63,-1
 369 486 l 1,64,65
 365 482 365 482 355 482 c 0,66,67
 342 482 342 482 322 509 c 1,68,69
 307 532 307 532 311 557 c 0,70,71
 313 566 313 566 316 574 c 0,72,73
 324 593 324 593 340 612 c 0,74,75
 373 650 373 650 453 650 c 0,76,77
 495 651 495 651 529 638 c 0,78,79
 546 631 546 631 560 622 c 0,80,81
 582 609 582 609 600 586 c 0,82,83
 646 528 646 528 627 457 c 0,84,85
 607 383 607 383 524 360 c 1,86,87
 594 334 594 334 629 270 c 0,88,89
 653 225 653 225 651 182 c 0,90,91
 650 178 650 178 650 175 c 0,92,93
 649 169 649 169 648 162 c 0,94,95
 642 137 642 137 627 113 c 0,96,97
 574 30 574 30 460 6 c 0,98,99
 415 -3 415 -3 368 0 c 0,100,101
 342 2 342 2 315 8 c 0,102,103
 276 16 276 16 235 32 c 0,104,105
 144 66 144 66 82 173 c 0,106,107
 37 251 37 251 43 349 c 0,108,109
 43 358 43 358 44 366 c 0,110,111
 45 379 45 379 47 392 c 0,112,113
 58 466 58 466 96 554 c 0,114,115
 111 589 111 589 127 615 c 0,0,1
EndSplineSet
EndChar

StartChar: xou
Encoding: 2836 2836 15
Width: 980
GlyphClass: 2
Flags: W
LayerCount: 2
Fore
SplineSet
782 650 m 1,0,1
 819 694 819 694 818 754 c 1,2,3
 815 814 815 814 772 835 c 0,4,5
 743 849 743 849 689 846 c 0,6,7
 680 846 680 846 671 845 c 2,8,-1
 600 834 l 2,9,10
 599 833 599 833 596 833 c 0,11,12
 566 827 566 827 526 833 c 0,13,14
 506 836 506 836 483 842 c 0,15,16
 445 852 445 852 408 867 c 0,17,18
 381 878 381 878 382 903 c 1,19,20
 386 928 386 928 427 915 c 1,21,22
 508 886 508 886 567 891 c 0,23,24
 574 892 574 892 580 893 c 0,25,26
 598 896 598 896 613 902 c 0,27,28
 679 929 679 929 751 924 c 0,29,30
 759 924 759 924 767 923 c 0,31,32
 788 922 788 922 813 915 c 0,33,34
 894 895 894 895 906 805 c 0,35,36
 913 748 913 748 892 699 c 0,37,38
 881 673 881 673 863 649 c 1,39,-1
 863 103 l 2,40,41
 863 78 863 78 877 69 c 0,42,43
 884 65 884 65 896 65 c 0,44,45
 926 65 926 65 936 96 c 0,46,47
 938 100 938 100 939 103 c 1,48,49
 940 69 940 69 928 45 c 0,50,51
 921 32 921 32 911 22 c 0,52,53
 889 1 889 1 855 0 c 0,54,55
 838 -1 838 -1 825 4 c 2,56,-1
 812 10 l 1,57,-1
 799 22 l 2,58,59
 798 23 798 23 797 25 c 0,60,61
 788 36 788 36 785 61 c 0,62,63
 783 79 783 79 783 89 c 1,64,-1
 782 650 l 1,0,1
546 315 m 1,65,66
 600 247 600 247 690 248 c 0,67,68
 798 251 798 251 830 310 c 1,69,-1
 831 253 l 1,70,71
 790 187 790 187 690 187 c 0,72,73
 590 186 590 186 546 253 c 1,74,-1
 546 315 l 1,65,66
436 650 m 0,75,76
 529 648 529 648 578 585 c 0,77,78
 616 537 616 537 608 474 c 0,79,80
 606 460 606 460 604 453 c 0,81,82
 585 381 585 381 504 358 c 1,83,84
 572 334 572 334 606 270 c 0,85,86
 629 226 629 226 627 184 c 0,87,88
 626 180 626 180 626 177 c 0,89,90
 625 171 625 171 624 164 c 0,91,92
 620 140 620 140 604 115 c 0,93,94
 549 31 549 31 443 7 c 0,95,96
 395 -3 395 -3 347 1 c 0,97,98
 325 3 325 3 303 8 c 0,99,100
 282 12 282 12 226 33 c 0,101,102
 140 65 140 65 78 175 c 0,103,104
 34 253 34 253 42 363 c 0,105,106
 42 376 42 376 44 390 c 0,107,108
 47 413 47 413 63 477 c 0,109,110
 77 527 77 527 129 619 c 0,111,112
 146 649 146 649 160 654 c 1,113,-1
 169 653 l 1,114,-1
 170 652 l 2,115,116
 173 650 173 650 174 646 c 1,117,-1
 175 631 l 1,118,119
 175 620 175 620 157 585 c 1,120,121
 108 478 108 478 103 405 c 1,122,123
 100 326 100 326 117 267 c 0,124,125
 126 237 126 237 140 212 c 0,126,127
 164 170 164 170 196 144 c 0,128,129
 298 61 298 61 394 70 c 0,130,131
 400 70 400 70 406 71 c 0,132,133
 422 73 422 73 428 75 c 0,134,135
 544 104 544 104 545 183 c 0,136,137
 548 327 548 327 377 321 c 0,138,139
 311 320 311 320 338 354 c 1,140,-1
 381 368 l 1,141,142
 525 381 525 381 532 478 c 0,143,144
 534 505 534 505 523 531 c 0,145,146
 518 543 518 543 509 556 c 0,147,148
 477 600 477 600 422 600 c 0,149,150
 374 600 374 600 348 550 c 0,151,152
 343 541 343 541 344 528 c 1,153,-1
 345 521 l 1,154,-1
 352 505 l 2,155,156
 358 493 358 493 357 487 c 1,157,-1
 355 482 l 1,158,-1
 345 478 l 1,159,-1
 342 478 l 2,160,161
 326 478 326 478 309 505 c 0,162,163
 296 528 296 528 297 556 c 0,164,165
 298 560 298 560 298 563 c 0,166,167
 300 572 300 572 303 582 c 0,168,169
 327 651 327 651 436 650 c 0,75,76
EndSplineSet
EndChar

StartChar: ko
Encoding: 2837 2837 16
Width: 768
GlyphClass: 2
Flags: W
LayerCount: 2
Fore
SplineSet
618 248 m 2,0,-1
 618 74 l 2,1,2
 618 47 618 47 643 47 c 0,3,4
 666 47 666 47 673 69 c 0,5,6
 675 73 675 73 676 74 c 1,7,8
 677 58 677 58 673 45 c 0,9,10
 671 39 671 39 667 33 c 0,11,12
 663 25 663 25 654 16 c 0,13,14
 638 2 638 2 612 0 c 1,15,16
 564 0 564 0 559 44 c 0,17,18
 558 51 558 51 558 64 c 2,19,-1
 558 207 l 1,20,-1
 558 244 l 2,21,22
 558 306 558 306 493 308 c 0,23,24
 465 309 465 309 450 297 c 1,25,-1
 440 286 l 2,26,27
 438 283 438 283 437 281 c 0,28,29
 429 265 429 265 429 244 c 2,30,-1
 429 207 l 1,31,-1
 429 38 l 2,32,33
 429 0 429 0 400 0 c 0,34,35
 369 0 369 0 369 37 c 2,36,-1
 369 96 l 1,37,38
 348 71 348 71 332 62 c 0,39,40
 283 37 283 37 232 49 c 0,41,42
 205 55 205 55 181 70 c 0,43,44
 112 113 112 113 111 194 c 0,45,46
 110 222 110 222 117 248 c 0,47,48
 121 261 121 261 127 273 c 0,49,50
 136 291 136 291 149 308 c 0,51,52
 187 358 187 358 259 360 c 0,53,54
 286 361 286 361 309 352 c 0,55,56
 331 343 331 343 346 326 c 0,57,58
 373 296 373 296 374 295 c 0,59,60
 376 293 376 293 377 291 c 1,61,62
 384 306 384 306 402 324 c 0,63,64
 456 375 456 375 522 356 c 0,65,66
 553 347 553 347 584 324 c 0,67,68
 618 299 618 299 618 248 c 2,0,-1
256 309 m 0,69,70
 218 308 218 308 190 266 c 0,71,72
 171 236 171 236 171 192 c 1,73,74
 176 136 176 136 222 106 c 0,75,76
 241 94 241 94 274 95 c 2,77,-1
 279 95 l 2,78,79
 311 98 311 98 340 136 c 0,80,81
 357 157 357 157 356 200 c 1,82,-1
 356 205 l 1,83,-1
 356 211 l 1,84,85
 353 257 353 257 321 286 c 0,86,87
 294 310 294 310 256 309 c 0,69,70
166 225 m 1,88,89
 63 259 63 259 46 372 c 0,90,91
 30 484 30 484 121 567 c 0,92,93
 211 648 211 648 359 650 c 0,94,95
 442 651 442 651 505 635 c 0,96,97
 537 628 537 628 564 616 c 0,98,99
 604 599 604 599 633 572 c 0,100,101
 717 493 717 493 722 364 c 0,102,103
 723 349 723 349 718 329 c 1,104,-1
 712 308 l 1,105,106
 707 293 707 293 700 276 c 0,107,108
 697 269 697 269 689 269 c 1,109,-1
 682 272 l 2,110,111
 675 276 675 276 676 291 c 1,112,-1
 678 307 l 1,113,114
 682 366 682 366 661 418 c 0,115,116
 651 445 651 445 634 470 c 0,117,118
 577 554 577 554 478 581 c 0,119,120
 447 589 447 589 411 594 c 0,121,122
 356 600 356 600 306 590 c 0,123,124
 279 585 279 585 254 575 c 0,125,126
 134 528 134 528 113 410 c 0,127,128
 101 340 101 340 135 305 c 1,129,130
 153 288 153 288 182 279 c 1,131,-1
 166 225 l 1,88,89
EndSplineSet
EndChar

StartChar: kho
Encoding: 2838 2838 17
Width: 768
GlyphClass: 2
Flags: W
LayerCount: 2
Fore
SplineSet
660 102 m 2,0,1
 660 64 660 64 688 64 c 0,2,3
 714 64 714 64 723 95 c 2,4,-1
 725 102 l 1,5,6
 726 80 726 80 721 62 c 0,7,8
 719 52 719 52 715 44 c 0,9,10
 710 32 710 32 701 22 c 0,11,12
 682 1 682 1 652 0 c 0,13,14
 601 -2 601 -2 592 60 c 0,15,16
 590 78 590 78 590 88 c 2,17,-1
 590 585 l 2,18,19
 590 613 590 613 619 624 c 0,20,21
 646 634 646 634 652 640 c 128,-1,22
 658 646 658 646 660 650 c 1,23,-1
 660 102 l 2,0,1
294 313 m 0,24,25
 351 316 351 316 405 283 c 0,26,27
 485 236 485 236 485 158 c 0,28,29
 485 108 485 108 451 68 c 0,30,31
 390 -1 390 -1 307 0 c 0,32,33
 213 1 213 1 171 48 c 0,34,35
 124 99 124 99 123 147 c 0,36,37
 122 176 122 176 131 201 c 0,38,39
 136 214 136 214 144 226 c 1,40,41
 154 245 154 245 173 262 c 0,42,43
 223 309 223 309 294 313 c 0,24,25
298 268 m 1,44,45
 249 263 249 263 225 236 c 0,46,47
 192 198 192 198 192 152 c 0,48,49
 192 115 192 115 219 83 c 0,50,51
 220 82 220 82 223 78 c 0,52,53
 252 43 252 43 301 44 c 0,54,55
 342 46 342 46 365 63 c 0,56,57
 413 97 413 97 411 160 c 1,58,59
 406 222 406 222 358 251 c 0,60,61
 326 269 326 269 298 268 c 1,44,45
45 392 m 0,62,63
 40 450 40 450 74 509 c 0,64,65
 91 539 91 539 114 560 c 0,66,67
 212 650 212 650 347 650 c 0,68,69
 377 650 377 650 403 640 c 0,70,71
 409 637 409 637 409 633 c 0,72,73
 408 627 408 627 403 624 c 0,74,75
 391 617 391 617 373 590 c 0,76,77
 354 559 354 559 355 526 c 1,78,79
 363 458 363 458 419 448 c 0,80,81
 496 434 496 434 557 517 c 0,82,83
 585 554 585 554 595 590 c 1,84,-1
 595 523 l 2,85,86
 595 504 595 504 557 458 c 0,87,88
 523 416 523 416 487 404 c 0,89,90
 421 380 421 380 373 400 c 0,91,92
 348 410 348 410 327 432 c 0,93,94
 292 470 292 470 291 526 c 0,95,96
 290 543 290 543 294 557 c 0,97,98
 295 564 295 564 298 571 c 0,99,100
 302 582 302 582 308 591 c 1,101,102
 293 594 293 594 278 592 c 0,103,104
 270 591 270 591 261 589 c 0,105,106
 248 585 248 585 235 580 c 0,107,108
 124 536 124 536 107 431 c 0,109,110
 104 411 104 411 105 390 c 1,111,112
 118 280 118 280 213 270 c 1,113,-1
 179 234 l 1,114,-1
 158 236 l 2,115,116
 155 237 155 237 151 239 c 0,117,118
 143 242 143 242 134 247 c 0,119,120
 102 265 102 265 87 282 c 0,121,122
 50 324 50 324 45 392 c 0,62,63
EndSplineSet
EndChar

StartChar: go
Encoding: 2839 2839 18
Width: 786
GlyphClass: 2
Flags: W
AnchorPoint: "Anchor-0" 399 -1 basechar 0
LayerCount: 2
Fore
SplineSet
597 555 m 0,0,1
 619 531 619 531 626 518 c 1,2,-1
 626 471 l 1,3,4
 564 553 564 553 478 584 c 0,5,6
 403 611 403 611 334 604 c 0,7,8
 317 602 317 602 301 598 c 0,9,10
 260 587 260 587 222 564 c 0,11,12
 136 511 136 511 112 400 c 0,13,14
 101 346 101 346 127 295 c 0,15,16
 152 248 152 248 198 237 c 1,17,-1
 163 196 l 1,18,19
 90 228 90 228 58 302 c 0,20,21
 46 330 46 330 45 366 c 0,22,23
 41 457 41 457 82 520 c 0,24,25
 101 549 101 549 132 576 c 0,26,27
 198 635 198 635 310 648 c 0,28,29
 327 650 327 650 342 650 c 0,30,31
 412 651 412 651 473 631 c 0,32,33
 503 621 503 621 531 606 c 0,34,35
 570 584 570 584 597 555 c 0,0,1
680 102 m 2,36,37
 680 64 680 64 708 64 c 0,38,39
 733 64 733 64 743 95 c 2,40,-1
 745 102 l 1,41,42
 746 80 746 80 741 62 c 0,43,44
 739 52 739 52 735 44 c 0,45,46
 730 32 730 32 721 22 c 0,47,48
 702 1 702 1 672 0 c 0,49,50
 621 -2 621 -2 612 60 c 0,51,52
 610 78 610 78 610 88 c 2,53,-1
 610 585 l 2,54,55
 610 613 610 613 639 624 c 0,56,57
 666 634 666 634 672 640 c 128,-1,58
 678 646 678 646 680 650 c 1,59,-1
 680 102 l 2,36,37
297 313 m 0,60,61
 354 316 354 316 408 283 c 0,62,63
 488 236 488 236 488 158 c 0,64,65
 488 108 488 108 454 68 c 0,66,67
 393 -1 393 -1 310 0 c 0,68,69
 216 0 216 0 174 48 c 0,70,71
 128 99 128 99 126 147 c 0,72,73
 125 176 125 176 134 201 c 0,74,75
 139 214 139 214 147 226 c 1,76,77
 157 245 157 245 176 262 c 0,78,79
 226 309 226 309 297 313 c 0,60,61
301 268 m 0,80,81
 255 261 255 261 228 236 c 1,82,83
 192 200 192 200 195 152 c 0,84,85
 198 108 198 108 226 78 c 1,86,87
 262 43 262 43 304 44 c 0,88,89
 341 45 341 45 368 64 c 0,90,91
 414 99 414 99 414 160 c 1,92,93
 409 221 409 221 361 250 c 0,94,95
 324 271 324 271 301 268 c 0,80,81
EndSplineSet
EndChar

StartChar: gho
Encoding: 2840 2840 19
Width: 817
GlyphClass: 2
Flags: W
LayerCount: 2
Fore
SplineSet
699 103 m 2,0,1
 699 65 699 65 732 65 c 0,2,3
 762 65 762 65 772 96 c 0,4,5
 774 100 774 100 775 103 c 1,6,7
 776 69 776 69 764 45 c 0,8,9
 757 32 757 32 747 22 c 0,10,11
 725 1 725 1 691 0 c 0,12,13
 665 -1 665 -1 649 11 c 0,14,15
 641 16 641 16 635 25 c 0,16,17
 625 38 625 38 622 61 c 0,18,19
 620 79 620 79 620 89 c 2,20,-1
 620 584 l 2,21,22
 620 612 620 612 652 623 c 0,23,24
 683 633 683 633 691 639 c 0,25,26
 696 644 696 644 699 650 c 1,27,-1
 699 103 l 2,0,1
205 259 m 1,28,29
 169 261 169 261 133 276 c 0,30,31
 70 302 70 302 52 387 c 0,32,33
 37 454 37 454 64 508 c 0,34,35
 78 534 78 534 101 557 c 0,36,37
 137 592 137 592 197 620 c 0,38,39
 288 662 288 662 404 647 c 0,40,41
 467 640 467 640 512 614 c 0,42,43
 585 574 585 574 624 518 c 1,44,-1
 624 442 l 1,45,46
 595 513 595 513 523 556 c 1,47,48
 494 571 494 571 485 575 c 0,49,50
 401 608 401 608 334 601 c 0,51,52
 324 600 324 600 314 598 c 0,53,54
 281 593 281 593 247 579 c 0,55,56
 161 545 161 545 135 475 c 0,57,58
 123 444 123 444 124 405 c 1,59,60
 130 315 130 315 196 309 c 1,61,-1
 221 309 l 2,62,63
 222 310 222 310 224 310 c 2,64,-1
 236 312 l 1,65,66
 262 321 262 321 300 347 c 1,67,68
 305 349 305 349 324 346 c 1,69,70
 330 343 330 343 329 332 c 1,71,-1
 326 325 l 1,72,-1
 326 324 l 1,73,-1
 298 300 l 2,74,75
 250 257 250 257 232 196 c 0,76,77
 216 143 216 143 225 108 c 0,78,79
 229 90 229 90 240 77 c 0,80,81
 258 55 258 55 292 50 c 0,82,83
 340 43 340 43 367 105 c 0,84,85
 381 136 381 136 390 184 c 0,86,87
 394 209 394 209 407 212 c 0,88,89
 412 213 412 213 415 209 c 1,90,91
 418 207 418 207 419 202 c 2,92,-1
 422 186 l 1,93,94
 429 62 429 62 515 59 c 0,95,96
 598 56 598 56 620 188 c 1,97,-1
 620 72 l 1,98,99
 609 31 609 31 564 11 c 0,100,101
 507 -14 507 -14 465 10 c 0,102,103
 444 22 444 22 426 46 c 0,104,105
 404 75 404 75 404 84 c 1,106,107
 405 78 405 78 396 63 c 1,108,-1
 384 46 l 2,109,110
 348 -6 348 -6 279 -1 c 0,111,112
 275 -1 275 -1 270 0 c 0,113,114
 192 9 192 9 164 70 c 0,115,116
 152 95 152 95 152 126 c 0,117,118
 152 198 152 198 205 259 c 1,28,29
EndSplineSet
EndChar

StartChar: ouno
Encoding: 2841 2841 20
Width: 862
GlyphClass: 2
Flags: W
LayerCount: 2
Fore
SplineSet
613 546 m 1,0,-1
 577 497 l 1,1,2
 526 565 526 565 447 587 c 0,3,4
 386 604 386 604 329 600 c 0,5,6
 317 599 317 599 305 597 c 0,7,8
 272 592 272 592 240 580 c 1,9,10
 127 528 127 528 111 417 c 0,11,12
 102 354 102 354 138 312 c 0,13,14
 149 299 149 299 175 288 c 1,15,-1
 158 236 l 1,16,17
 51 282 51 282 46 365 c 0,18,19
 45 368 45 368 45 380 c 0,20,21
 42 438 42 438 63 492 c 0,22,23
 82 540 82 540 116 572 c 0,24,25
 198 648 198 648 337 650 c 1,26,27
 497 650 497 650 585 577 c 0,28,29
 599 565 599 565 613 546 c 1,0,-1
665 573 m 0,30,31
 710 576 710 576 752 549 c 0,32,33
 816 510 816 510 815 447 c 0,34,35
 813 401 813 401 788 374 c 0,36,37
 741 321 741 321 674 317 c 0,38,39
 630 316 630 316 598 334 c 0,40,41
 581 343 581 343 567 358 c 0,42,43
 531 397 531 397 530 438 c 0,44,45
 529 453 529 453 533 468 c 0,46,47
 534 476 534 476 537 483 c 0,48,49
 541 493 541 493 546 503 c 0,50,51
 555 518 555 518 569 532 c 0,52,53
 607 570 607 570 665 573 c 0,30,31
668 540 m 1,54,55
 632 535 632 535 615 514 c 0,56,57
 589 481 589 481 591 444 c 1,58,59
 596 405 596 405 613 383 c 0,60,61
 636 355 636 355 670 355 c 0,62,63
 698 356 698 356 716 371 c 0,64,65
 751 399 751 399 750 450 c 0,66,67
 747 502 747 502 711 525 c 0,68,69
 687 541 687 541 668 540 c 1,54,55
347 46 m 0,70,71
 480 51 480 51 501 160 c 0,72,73
 503 169 503 169 504 179 c 0,74,75
 505 196 505 196 501 211 c 0,76,77
 498 219 498 219 494 226 c 0,78,79
 488 235 488 235 480 243 c 0,80,81
 469 255 469 255 448 265 c 1,82,-1
 400 219 l 1,83,84
 381 205 381 205 367 207 c 2,85,-1
 363 208 l 1,86,87
 349 217 349 217 352 232 c 0,88,89
 355 243 355 243 360 248 c 2,90,-1
 470 360 l 1,91,92
 482 371 482 371 499 370 c 0,93,94
 502 370 502 370 504 369 c 2,95,-1
 509 367 l 2,96,97
 518 363 518 363 515 348 c 0,98,99
 514 343 514 343 512 336 c 1,100,-1
 489 308 l 1,101,102
 552 288 552 288 573 232 c 0,103,104
 579 215 579 215 579 198 c 0,105,106
 579 131 579 131 542 88 c 0,107,108
 529 74 529 74 511 58 c 0,109,110
 458 11 458 11 394 3 c 0,111,112
 373 0 373 0 347 0 c 0,113,114
 264 0 264 0 205 41 c 0,115,116
 195 48 195 48 182 58 c 0,117,118
 119 108 119 108 117 179 c 0,119,120
 116 200 116 200 120 221 c 0,121,122
 122 232 122 232 126 243 c 0,123,124
 131 256 131 256 137 269 c 0,125,126
 145 286 145 286 165 309 c 0,127,128
 196 344 196 344 243 377 c 0,129,130
 268 394 268 394 282 389 c 1,131,132
 288 384 288 384 287 374 c 0,133,134
 287 372 287 372 286 369 c 0,135,136
 284 362 284 362 278 352 c 1,137,-1
 217 276 l 1,138,139
 205 257 205 257 194 204 c 0,140,141
 183 147 183 147 242 86 c 0,142,143
 281 45 281 45 347 46 c 0,70,71
EndSplineSet
EndChar

StartChar: co
Encoding: 2842 2842 21
Width: 738
GlyphClass: 2
Flags: W
LayerCount: 2
Fore
SplineSet
169 173 m 1,0,1
 105 196 105 196 67 271 c 0,2,3
 51 303 51 303 46 336 c 0,4,5
 44 344 44 344 42 364 c 0,6,7
 36 415 36 415 54 463 c 0,8,9
 63 488 63 488 78 512 c 0,10,11
 96 541 96 541 121 564 c 0,12,13
 204 642 204 642 334 649 c 0,14,15
 348 650 348 650 362 650 c 0,16,17
 442 651 442 651 504 632 c 0,18,19
 536 623 536 623 562 609 c 0,20,21
 595 590 595 590 619 565 c 0,22,23
 648 533 648 533 665 495 c 0,24,25
 696 426 696 426 690 350 c 0,26,27
 689 339 689 339 687 328 c 0,28,29
 676 258 676 258 673 250 c 1,30,-1
 663 230 l 1,31,-1
 662 229 l 2,32,33
 658 222 658 222 657 222 c 2,34,-1
 651 221 l 1,35,-1
 650 221 l 2,36,37
 647 222 647 222 644 224 c 1,38,-1
 639 230 l 1,39,40
 636 236 636 236 637 245 c 2,41,-1
 641 279 l 1,42,43
 644 321 644 321 640 358 c 0,44,45
 637 377 637 377 633 395 c 0,46,47
 626 422 626 422 615 445 c 0,48,49
 566 547 566 547 483 576 c 0,50,51
 444 589 444 589 403 594 c 0,52,53
 367 599 367 599 333 595 c 0,54,55
 315 593 315 593 299 589 c 0,56,57
 273 583 273 583 248 572 c 0,58,59
 128 514 128 514 115 382 c 1,60,-1
 116 340 l 1,61,-1
 116 337 l 1,62,63
 128 258 128 258 196 228 c 1,64,-1
 169 173 l 1,0,1
313 323 m 0,65,66
 338 324 338 324 359 321 c 0,67,68
 375 319 375 319 389 314 c 0,69,70
 411 307 411 307 434 294 c 0,71,72
 500 259 500 259 510 188 c 0,73,74
 511 176 511 176 511 163 c 0,75,76
 509 107 509 107 478 70 c 1,77,78
 413 -1 413 -1 326 0 c 0,79,80
 224 2 224 2 180 49 c 0,81,82
 135 97 135 97 133 152 c 0,83,84
 132 171 132 171 137 189 c 0,85,86
 139 199 139 199 143 208 c 0,87,88
 148 222 148 222 155 234 c 0,89,90
 163 247 163 247 184 270 c 0,91,92
 229 318 229 318 313 323 c 0,65,66
316 277 m 1,93,94
 264 272 264 272 237 244 c 1,95,96
 204 206 204 206 205 162 c 1,97,-1
 204 157 l 1,98,99
 209 105 209 105 238 80 c 0,100,101
 281 44 281 44 320 45 c 0,102,103
 364 47 364 47 389 66 c 1,104,105
 437 99 437 99 436 165 c 1,106,107
 433 231 433 231 380 260 c 0,108,109
 349 277 349 277 316 277 c 1,93,94
EndSplineSet
EndChar

StartChar: cho
Encoding: 2843 2843 22
Width: 656
GlyphClass: 2
Flags: W
LayerCount: 2
Fore
SplineSet
356 93 m 1,0,1
 399 47 399 47 442 41 c 0,2,3
 467 37 467 37 485 41 c 0,4,5
 494 42 494 42 502 46 c 0,6,7
 511 50 511 50 520 59 c 0,8,9
 536 78 536 78 533 100 c 0,10,11
 531 108 531 108 525 116 c 0,12,13
 501 149 501 149 459 146 c 2,14,-1
 454 146 l 2,15,16
 450 146 450 146 447 145 c 0,17,18
 396 138 396 138 356 93 c 1,0,1
286 93 m 1,19,20
 242 149 242 149 185 149 c 0,21,22
 140 149 140 149 118 121 c 0,23,24
 107 106 107 106 109 89 c 0,25,26
 110 83 110 83 113 78 c 0,27,28
 119 68 119 68 131 57 c 1,29,30
 154 40 154 40 201 40 c 0,31,32
 239 41 239 41 286 93 c 1,19,20
421 304 m 0,33,34
 385 364 385 364 315 362 c 0,35,36
 248 359 248 359 217 299 c 0,37,38
 202 272 202 272 208 242 c 0,39,40
 210 228 210 228 218 212 c 0,41,42
 248 148 248 148 319 148 c 0,43,44
 392 148 392 148 422 209 c 0,45,46
 437 239 437 239 434 266 c 0,47,48
 434 270 434 270 433 274 c 0,49,50
 430 290 430 290 421 304 c 0,33,34
607 357 m 0,51,52
 604 350 604 350 599 343 c 0,53,54
 596 338 596 338 589 338 c 2,55,-1
 585 338 l 1,56,-1
 581 340 l 2,57,58
 575 343 575 343 576 355 c 0,59,60
 580 374 580 374 577 397 c 0,61,62
 575 409 575 409 572 422 c 0,63,64
 568 438 568 438 561 454 c 0,65,66
 549 479 549 479 536 499 c 0,67,68
 491 567 491 567 413 589 c 0,69,70
 352 607 352 607 310 603 c 2,71,-1
 299 602 l 1,72,-1
 287 600 l 2,73,74
 235 587 235 587 228 584 c 0,75,76
 135 544 135 544 119 458 c 0,77,78
 119 453 119 453 118 450 c 0,79,80
 113 427 113 427 118 405 c 0,81,82
 121 393 121 393 126 382 c 0,83,84
 128 378 128 378 131 371 c 1,85,-1
 146 351 l 1,86,87
 156 341 156 341 163 337 c 1,88,89
 185 368 185 368 215 387 c 0,90,91
 263 418 263 418 337 411 c 0,92,93
 355 409 355 409 372 405 c 0,94,95
 461 382 461 382 487 312 c 0,96,97
 493 297 493 297 494 283 c 0,98,99
 498 237 498 237 480 207 c 0,100,101
 471 191 471 191 456 179 c 1,102,103
 486 186 486 186 520 176 c 0,104,105
 529 174 529 174 540 170 c 128,-1,106
 551 166 551 166 568 149 c 1,107,108
 593 127 593 127 589 92 c 0,109,110
 589 88 589 88 588 84 c 0,111,112
 585 65 585 65 575 51 c 0,113,114
 546 7 546 7 483 0 c 0,115,116
 456 -3 456 -3 430 3 c 0,117,118
 419 6 419 6 407 10 c 0,119,120
 386 19 386 19 372 29 c 0,121,122
 336 56 336 56 321 72 c 1,123,124
 284 39 284 39 279 35 c 0,125,126
 233 -1 233 -1 167 0 c 2,127,-1
 161 0 l 2,128,129
 93 6 93 6 60 52 c 0,130,131
 40 80 40 80 44 104 c 0,132,133
 44 108 44 108 45 111 c 0,134,135
 50 128 50 128 61 140 c 0,136,137
 90 175 90 175 148 178 c 1,138,-1
 60 219 l 1,139,140
 51 226 51 226 52 234 c 0,141,142
 53 237 53 237 58 242 c 0,143,144
 61 245 61 245 71 244 c 0,145,146
 83 241 83 241 86 240 c 0,147,148
 130 226 130 226 167 209 c 1,149,150
 149 220 149 220 148 263 c 0,151,152
 148 280 148 280 152 291 c 1,153,154
 89 330 89 330 67 372 c 0,155,156
 57 393 57 393 53 418 c 0,157,158
 46 466 46 466 63 509 c 0,159,160
 68 523 68 523 76 538 c 0,161,162
 89 563 89 563 113 585 c 0,163,164
 184 647 184 647 318 647 c 0,165,166
 468 646 468 646 540 578 c 0,167,168
 615 508 615 508 615 412 c 0,169,170
 615 383 615 383 607 357 c 0,51,52
EndSplineSet
EndChar

StartChar: jo
Encoding: 2844 2844 23
Width: 721
GlyphClass: 2
Flags: W
LayerCount: 2
Fore
SplineSet
156 236 m 1,0,1
 59 272 59 272 44 380 c 0,2,3
 43 385 43 385 43 394 c 0,4,5
 37 463 37 463 70 519 c 0,6,7
 87 547 87 547 114 572 c 0,8,9
 197 649 197 649 334 650 c 0,10,11
 454 651 454 651 528 618 c 0,12,13
 564 602 564 602 589 577 c 0,14,15
 668 498 668 498 672 372 c 0,16,17
 673 349 673 349 663 318 c 1,18,-1
 652 286 l 2,19,20
 651 283 651 283 648 280 c 1,21,-1
 640 280 l 2,22,23
 637 281 637 281 635 282 c 0,24,25
 628 286 628 286 629 300 c 1,26,-1
 631 314 l 1,27,-1
 631 315 l 1,28,29
 635 374 635 374 610 434 c 0,30,31
 602 454 602 454 590 476 c 0,32,33
 545 556 545 556 445 586 c 0,34,35
 334 618 334 618 238 580 c 0,36,37
 126 534 126 534 107 417 c 0,38,39
 104 396 104 396 105 380 c 0,40,41
 106 369 106 369 109 359 c 0,42,43
 122 299 122 299 183 279 c 1,44,-1
 156 236 l 1,0,1
119 219 m 0,45,46
 137 294 137 294 226 336 c 0,47,48
 247 345 247 345 264 347 c 1,49,-1
 274 346 l 1,50,-1
 276 345 l 2,51,52
 279 342 279 342 278 338 c 2,53,-1
 277 333 l 1,54,55
 276 330 276 330 256 318 c 0,56,57
 201 287 201 287 180 219 c 0,58,59
 172 191 172 191 173 166 c 0,60,61
 174 163 174 163 174 160 c 0,62,63
 175 152 175 152 177 145 c 0,64,65
 184 117 184 117 187 107 c 0,66,67
 207 56 207 56 260 46 c 0,68,69
 268 45 268 45 276 45 c 0,70,71
 336 46 336 46 358 88 c 0,72,73
 366 104 366 104 364 122 c 1,74,75
 336 146 336 146 322 173 c 1,76,77
 308 205 308 205 311 236 c 0,78,79
 311 241 311 241 312 246 c 0,80,81
 315 262 315 262 323 280 c 0,82,83
 333 301 333 301 352 317 c 0,84,85
 402 360 402 360 466 354 c 2,86,-1
 482 352 l 2,87,88
 516 346 516 346 551 320 c 0,89,90
 588 293 588 293 588 232 c 2,91,-1
 588 83 l 2,92,93
 588 53 588 53 616 53 c 0,94,95
 640 53 640 53 648 77 c 1,96,-1
 651 83 l 1,97,-1
 649 56 l 1,98,99
 648 52 648 52 647 49 c 2,100,-1
 641 37 l 2,101,102
 637 28 637 28 627 18 c 0,103,104
 609 0 609 0 581 0 c 0,105,106
 527 0 527 0 523 49 c 0,107,108
 522 54 522 54 522 72 c 2,109,-1
 522 186 l 1,110,-1
 522 228 l 2,111,112
 522 299 522 299 451 299 c 0,113,114
 410 299 410 299 384 276 c 1,115,116
 359 251 359 251 361 218 c 0,117,118
 362 215 362 215 362 213 c 0,119,120
 368 175 368 175 395 165 c 0,121,122
 418 157 418 157 419 131 c 1,123,-1
 417 103 l 1,124,-1
 417 102 l 1,125,126
 415 94 415 94 412 87 c 0,127,128
 408 75 408 75 397 61 c 0,129,130
 354 0 354 0 280 0 c 0,131,132
 167 2 167 2 128 94 c 0,133,134
 109 136 109 136 115 196 c 0,135,136
 116 208 116 208 119 219 c 0,45,46
EndSplineSet
EndChar

StartChar: jho
Encoding: 2845 2845 24
Width: 703
GlyphClass: 2
Flags: W
LayerCount: 2
Fore
SplineSet
515 54 m 2,0,1
 527 47 527 47 537 50 c 0,2,3
 540 51 540 51 546 57 c 1,4,5
 552 66 552 66 549 75 c 0,6,7
 548 80 548 80 542 85 c 2,8,-1
 539 88 l 1,9,10
 567 72 567 72 573 50 c 1,11,-1
 574 35 l 1,12,-1
 572 29 l 1,13,14
 570 21 570 21 567 18 c 0,15,16
 549 -9 549 -9 513 6 c 0,17,18
 500 12 500 12 498 14 c 2,19,-1
 422 61 l 2,20,21
 411 68 411 68 412 86 c 1,22,23
 416 99 416 99 416 107 c 1,24,-1
 413 113 l 1,25,-1
 515 54 l 2,0,1
283 294 m 1,26,-1
 320 292 l 2,27,28
 323 292 323 292 326 291 c 0,29,30
 339 288 339 288 351 283 c 0,31,32
 366 278 366 278 384 266 c 1,33,34
 457 223 457 223 457 148 c 0,35,36
 457 101 457 101 426 64 c 0,37,38
 371 0 371 0 288 0 c 0,39,40
 230 0 230 0 174 42 c 0,41,42
 172 43 172 43 170 45 c 0,43,44
 129 77 129 77 127 138 c 0,45,46
 126 200 126 200 172 246 c 0,47,48
 217 290 217 290 283 294 c 1,26,-1
286 252 m 1,49,50
 242 248 242 248 220 222 c 0,51,52
 189 184 189 184 190 143 c 1,53,54
 195 99 195 99 218 73 c 0,55,56
 246 40 246 40 289 41 c 0,57,58
 324 43 324 43 347 60 c 0,59,60
 394 94 394 94 389 150 c 1,61,62
 386 209 386 209 341 235 c 0,63,64
 314 252 314 252 286 252 c 1,49,50
76 484 m 1,65,66
 120 544 120 544 159 564 c 1,67,-1
 182 574 l 1,68,69
 229 600 229 600 333 599 c 2,70,-1
 350 599 l 1,71,-1
 356 599 l 2,72,73
 395 599 395 599 406 578 c 1,74,-1
 405 567 l 1,75,76
 405 566 405 566 404 564 c 2,77,-1
 397 552 l 1,78,79
 388 540 388 540 382 510 c 0,80,81
 379 495 379 495 380 481 c 0,82,83
 380 474 380 474 382 467 c 0,84,85
 384 458 384 458 389 449 c 1,86,-1
 401 431 l 1,87,88
 403 430 403 430 407 426 c 0,89,90
 447 390 447 390 495 396 c 0,91,92
 504 397 504 397 513 399 c 0,93,94
 538 405 538 405 564 425 c 0,95,96
 615 464 615 464 604 518 c 0,97,98
 603 523 603 523 602 529 c 0,99,100
 599 544 599 544 593 558 c 0,101,102
 582 586 582 586 543 626 c 0,103,104
 534 635 534 635 535 644 c 1,105,106
 539 650 539 650 547 650 c 0,107,108
 550 650 550 650 552 648 c 0,109,110
 599 620 599 620 619 591 c 0,111,112
 656 538 656 538 657 506 c 0,113,114
 660 432 660 432 616 396 c 0,115,116
 561 351 561 351 494 347 c 0,117,118
 407 341 407 341 354 414 c 0,119,120
 329 449 329 449 329 507 c 0,121,122
 329 521 329 521 332 545 c 1,123,124
 253 549 253 549 205 522 c 0,125,126
 180 508 180 508 165 491 c 0,127,128
 120 444 120 444 106 392 c 1,129,-1
 106 353 l 1,130,-1
 106 351 l 1,131,132
 107 348 107 348 107 342 c 0,133,134
 112 280 112 280 144 254 c 2,135,-1
 150 250 l 2,136,137
 182 230 182 230 203 228 c 1,138,-1
 168 185 l 1,139,140
 121 204 121 204 108 217 c 1,141,-1
 91 231 l 1,142,143
 60 261 60 261 45 321 c 0,144,145
 41 342 41 342 41 360 c 0,146,147
 41 439 41 439 76 484 c 1,65,66
EndSplineSet
EndChar

StartChar: nio
Encoding: 2846 2846 25
Width: 642
GlyphClass: 2
Flags: W
LayerCount: 2
Fore
SplineSet
241 199 m 0,0,1
 249 191 249 191 246 183 c 1,2,3
 243 179 243 179 235 178 c 1,4,-1
 221 180 l 2,5,6
 219 181 219 181 216 183 c 0,7,8
 212 185 212 185 208 188 c 0,9,10
 203 191 203 191 194 202 c 0,11,12
 170 230 170 230 168 264 c 1,13,-1
 170 292 l 1,14,15
 172 296 172 296 173 301 c 0,16,17
 176 312 176 312 181 320 c 0,18,19
 189 331 189 331 202 340 c 1,20,21
 192 344 192 344 154 365 c 0,22,23
 144 370 144 370 133 362 c 0,24,25
 129 359 129 359 120 350 c 1,26,27
 93 317 93 317 95 267 c 0,28,29
 95 264 95 264 95 262 c 2,30,-1
 95 256 l 2,31,32
 95 248 95 248 96 244 c 0,33,34
 107 161 107 161 176 108 c 0,35,36
 254 48 254 48 348 48 c 0,37,38
 436 48 436 48 498 110 c 0,39,40
 548 160 548 160 546 224 c 0,41,-1
 546 228 l 0,42,43
 545 232 545 232 545 235 c 0,44,45
 545 242 545 242 544 246 c 0,46,47
 529 340 529 340 461 342 c 1,48,-1
 439 340 l 2,49,-1
 433 338 l 0,50,51
 426 335 426 335 421 332 c 128,-1,52
 416 329 416 329 406 319 c 0,53,54
 379 288 379 288 380 228 c 0,55,56
 382 192 382 192 362 192 c 0,57,58
 348 192 348 192 346 224 c 0,59,60
 340 301 340 301 312 316 c 0,61,62
 288 328 288 328 263 326 c 0,63,64
 255 325 255 325 247 320 c 0,65,66
 212 301 212 301 215 261 c 1,67,-1
 215 257 l 2,68,69
 215 253 215 253 216 249 c 0,70,71
 220 220 220 220 241 199 c 0,0,1
351 516 m 1,72,73
 340 600 340 600 286 603 c 1,74,-1
 261 601 l 1,75,-1
 252 598 l 1,76,-1
 237 588 l 1,77,78
 228 580 228 580 222 567 c 0,79,80
 215 551 215 551 217 535 c 0,81,82
 218 530 218 530 220 524 c 0,83,84
 224 511 224 511 230 501 c 0,85,86
 240 485 240 485 238 474 c 1,87,-1
 235 471 l 2,88,89
 231 467 231 467 225 468 c 0,90,91
 223 468 223 468 221 469 c 0,92,93
 217 471 217 471 213 474 c 0,94,95
 210 477 210 477 202 487 c 1,96,97
 178 523 178 523 178 555 c 0,98,99
 178 600 178 600 222 632 c 0,100,101
 247 650 247 650 282 650 c 0,102,103
 284 650 284 650 288 649 c 2,104,-1
 301 646 l 1,105,-1
 302 646 l 2,106,107
 341 646 341 646 368 585 c 1,108,109
 385 620 385 620 419 640 c 0,110,111
 440 653 440 653 468 651 c 0,112,113
 472 650 472 650 475 650 c 0,114,115
 484 649 484 649 493 646 c 0,116,117
 514 637 514 637 516 636 c 0,118,119
 569 607 569 607 582 549 c 0,120,121
 592 504 592 504 582 468 c 0,122,123
 578 452 578 452 566 433 c 0,124,125
 547 405 547 405 502 378 c 1,126,127
 532 372 532 372 566 332 c 0,128,129
 605 285 605 285 602 218 c 0,130,131
 602 215 602 215 602 213 c 2,132,-1
 602 207 l 1,133,-1
 599 192 l 1,134,135
 587 98 587 98 516 51 c 1,136,137
 447 0 447 0 322 0 c 0,138,139
 316 0 316 0 307 1 c 2,140,-1
 280 4 l 2,141,142
 172 16 172 16 91 123 c 1,143,144
 37 191 37 191 43 252 c 0,145,-1
 45 262 l 0,146,147
 46 267 46 267 46 271 c 1,148,-1
 47 284 l 1,149,150
 56 366 56 366 114 402 c 1,151,152
 82 422 82 422 66 456 c 0,153,154
 41 508 41 508 50 534 c 0,155,156
 51 537 51 537 51 541 c 0,157,158
 51 547 51 547 53 557 c 0,159,160
 58 583 58 583 88 631 c 0,161,162
 98 647 98 647 110 649 c 0,163,164
 120 651 120 651 122 637 c 1,165,-1
 120 626 l 1,166,-1
 119 623 l 1,167,-1
 114 613 l 2,168,169
 96 577 96 577 98 537 c 1,170,-1
 99 530 l 1,171,-1
 100 512 l 1,172,173
 109 453 109 453 180 408 c 0,174,175
 234 373 234 373 326 374 c 2,176,-1
 332 374 l 2,177,178
 439 376 439 376 492 417 c 0,179,180
 536 452 536 452 536 512 c 0,181,182
 536 516 536 516 535 521 c 128,-1,183
 534 526 534 526 530 541 c 0,184,185
 512 597 512 597 468 603 c 0,186,187
 436 608 436 608 415 591 c 0,188,189
 405 583 405 583 398 569 c 0,190,191
 388 550 388 550 385 513 c 0,192,193
 383 489 383 489 368 489 c 0,194,195
 356 489 356 489 351 516 c 1,72,73
EndSplineSet
EndChar

StartChar: tto
Encoding: 2847 2847 26
Width: 717
GlyphClass: 2
Flags: W
LayerCount: 2
Fore
SplineSet
597 559 m 0,0,1
 623 532 623 532 626 525 c 1,2,-1
 626 471 l 1,3,4
 564 553 564 553 478 584 c 0,5,6
 403 611 403 611 334 604 c 0,7,8
 317 602 317 602 301 598 c 0,9,10
 260 587 260 587 222 564 c 0,11,12
 134 510 134 510 112 408 c 0,13,14
 101 354 101 354 127 300 c 0,15,16
 151 248 151 248 198 237 c 1,17,-1
 163 196 l 1,18,19
 89 222 89 222 58 302 c 0,20,21
 46 333 46 333 45 366 c 0,22,23
 41 457 41 457 82 520 c 0,24,25
 101 549 101 549 132 576 c 0,26,27
 198 635 198 635 310 648 c 0,28,29
 327 650 327 650 342 650 c 0,30,31
 447 652 447 652 528 610 c 0,32,33
 569 589 569 589 597 559 c 0,0,1
633 319 m 1,34,35
 597 321 597 321 596 369 c 1,36,-1
 596 379 l 1,37,-1
 596 585 l 2,38,39
 596 613 596 613 625 624 c 0,40,41
 651 634 651 634 657 640 c 0,42,43
 666 648 666 648 666 650 c 2,44,-1
 666 381 l 1,45,-1
 666 369 l 1,46,47
 663 323 663 323 633 319 c 1,34,35
299 295 m 1,48,-1
 336 293 l 2,49,50
 339 293 339 293 342 292 c 0,51,52
 355 289 355 289 367 284 c 0,53,54
 382 279 382 279 400 267 c 1,55,56
 473 224 473 224 473 149 c 0,57,58
 472 99 472 99 442 65 c 0,59,60
 385 0 385 0 310 0 c 0,61,62
 226 1 226 1 186 46 c 0,63,64
 144 94 144 94 143 139 c 0,65,66
 142 200 142 200 188 247 c 1,67,68
 235 292 235 292 299 295 c 1,48,-1
304 252 m 1,69,70
 260 247 260 247 238 223 c 1,71,72
 207 185 207 185 208 144 c 1,73,74
 213 100 213 100 236 74 c 0,75,76
 264 41 264 41 307 42 c 0,77,78
 342 44 342 44 365 61 c 0,79,80
 411 95 411 95 408 151 c 0,81,82
 405 210 405 210 359 236 c 0,83,84
 333 252 333 252 304 252 c 1,69,70
EndSplineSet
EndChar

StartChar: ttho
Encoding: 2848 2848 27
Width: 701
GlyphClass: 2
Flags: W
LayerCount: 2
Fore
SplineSet
339 593 m 0,0,1
 235 590 235 590 174 494 c 0,2,3
 128 422 128 422 128 330 c 0,4,5
 128 215 128 215 194 137 c 0,6,7
 253 67 253 67 340 66 c 0,8,9
 446 65 446 65 512 160 c 0,10,11
 567 238 567 238 566 342 c 0,12,13
 564 452 564 452 494 527 c 0,14,15
 429 596 429 596 339 593 c 0,0,1
337 650 m 0,16,17
 423 651 423 651 492 610 c 0,18,19
 526 589 526 589 556 558 c 1,20,-1
 584 525 l 1,21,22
 644 443 644 443 647 340 c 0,23,24
 650 252 650 252 613 178 c 0,25,26
 595 140 595 140 567 107 c 0,27,28
 482 6 482 6 356 0 c 2,29,-1
 345 0 l 2,30,31
 259 -1 259 -1 191 44 c 0,32,33
 157 66 157 66 127 100 c 0,34,35
 42 197 42 197 42 330 c 0,36,37
 42 462 42 462 129 556 c 0,38,39
 214 648 214 648 337 650 c 0,16,17
EndSplineSet
EndChar

StartChar: ddo
Encoding: 2849 2849 28
Width: 765
GlyphClass: 2
Flags: W
LayerCount: 2
Fore
SplineSet
177 223 m 1,0,1
 103 244 103 244 67 306 c 0,2,3
 58 321 58 321 53 337 c 1,4,-1
 44 372 l 1,5,6
 33 447 33 447 72 510 c 0,7,8
 91 540 91 540 121 567 c 0,9,10
 211 648 211 648 359 650 c 0,11,12
 414 651 414 651 461 644 c 0,13,14
 485 640 485 640 507 635 c 0,15,16
 538 627 538 627 564 616 c 0,17,18
 604 600 604 600 633 572 c 0,19,20
 717 493 717 493 722 364 c 1,21,-1
 719 330 l 1,22,-1
 715 312 l 1,23,24
 710 295 710 295 702 276 c 0,25,26
 699 267 699 267 688 269 c 0,27,28
 685 270 685 270 682 272 c 0,29,30
 675 276 675 276 676 291 c 1,31,32
 680 310 680 310 679 336 c 0,33,34
 678 349 678 349 676 364 c 0,35,36
 671 392 671 392 663 414 c 0,37,38
 653 442 653 442 634 470 c 0,39,40
 577 554 577 554 478 581 c 0,41,42
 398 604 398 604 325 593 c 0,43,44
 288 588 288 588 254 575 c 0,45,46
 134 528 134 528 113 410 c 0,47,48
 108 380 108 380 114 355 c 0,49,50
 117 341 117 341 124 329 c 0,51,52
 133 313 133 313 149 299 c 0,53,54
 172 279 172 279 202 270 c 1,55,-1
 177 223 l 1,0,1
545 298 m 1,56,57
 639 270 639 270 639 192 c 0,58,59
 638 145 638 145 589 91 c 1,60,-1
 562 65 l 1,61,-1
 554 59 l 2,62,63
 494 14 494 14 443 5 c 0,64,65
 417 0 417 0 383 0 c 0,66,67
 300 0 300 0 223 58 c 0,68,69
 178 92 178 92 162 150 c 0,70,71
 159 163 159 163 158 174 c 0,72,73
 155 220 155 220 176 258 c 0,74,75
 185 276 185 276 204 299 c 0,76,77
 234 335 234 335 282 364 c 0,78,79
 308 380 308 380 323 377 c 1,80,81
 326 375 326 375 325 367 c 1,82,-1
 316 352 l 1,83,-1
 288 324 l 1,84,-1
 255 285 l 1,85,86
 232 243 232 243 232 192 c 1,87,-1
 233 185 l 1,88,-1
 233 184 l 1,89,90
 236 146 236 146 268 106 c 2,91,-1
 278 94 l 2,92,93
 314 50 314 50 383 46 c 0,94,95
 426 43 426 43 464 60 c 0,96,97
 483 68 483 68 501 81 c 0,98,99
 560 123 560 123 561 174 c 0,100,101
 562 190 562 190 557 204 c 0,102,103
 554 212 554 212 550 218 c 0,104,105
 544 227 544 227 536 235 c 1,106,-1
 515 249 l 1,107,-1
 501 256 l 1,108,-1
 450 212 l 1,109,110
 429 199 429 199 415 200 c 1,111,-1
 410 202 l 2,112,113
 397 210 397 210 399 225 c 0,114,115
 400 231 400 231 408 237 c 2,116,-1
 529 343 l 2,117,118
 531 344 531 344 532 345 c 0,119,120
 552 359 552 359 567 354 c 1,121,122
 576 349 576 349 575 338 c 0,123,124
 575 336 575 336 574 334 c 0,125,126
 573 330 573 330 570 325 c 1,127,-1
 545 298 l 1,56,57
EndSplineSet
EndChar

StartChar: ddho
Encoding: 2850 2850 29
Width: 719
GlyphClass: 2
Flags: W
LayerCount: 2
Fore
SplineSet
161 236 m 1,0,1
 65 270 65 270 48 380 c 0,2,3
 38 455 38 455 72 515 c 0,4,5
 86 540 86 540 126 578 c 0,6,7
 204 650 204 650 340 650 c 0,8,9
 444 650 444 650 493 632 c 0,10,11
 500 629 500 629 508 626 c 0,12,13
 554 606 554 606 592 573 c 0,14,15
 595 571 595 571 598 568 c 0,16,17
 669 497 669 497 676 381 c 1,18,-1
 676 372 l 1,19,-1
 675 335 l 1,20,-1
 670 313 l 1,21,-1
 661 290 l 2,22,23
 657 279 657 279 647 279 c 1,24,-1
 640 282 l 2,25,26
 632 286 632 286 634 300 c 0,27,28
 639 330 639 330 637 358 c 0,29,30
 636 373 636 373 633 386 c 0,31,32
 629 408 629 408 620 429 c 0,33,34
 607 457 607 457 595 476 c 0,35,36
 542 559 542 559 450 586 c 0,37,38
 339 618 339 618 243 580 c 0,39,40
 117 529 117 529 110 417 c 0,41,42
 108 390 108 390 116 364 c 0,43,44
 121 351 121 351 128 338 c 0,45,46
 132 332 132 332 136 325 c 0,47,48
 151 303 151 303 188 291 c 1,49,-1
 161 236 l 1,0,1
444 -32 m 2,50,51
 348 16 348 16 315 89 c 0,52,53
 312 95 312 95 310 100 c 0,54,55
 290 156 290 156 295 205 c 0,56,57
 296 217 296 217 299 228 c 0,58,59
 304 250 304 250 322 281 c 0,60,61
 359 343 359 343 451 343 c 1,62,63
 535 341 535 341 568 278 c 0,64,65
 589 235 589 235 584 195 c 0,66,67
 583 188 583 188 581 180 c 0,68,69
 576 157 576 157 561 134 c 0,70,71
 539 100 539 100 497 67 c 1,72,73
 402 -3 402 -3 308 0 c 0,74,75
 306 0 306 0 303 0 c 2,76,-1
 296 0 l 2,77,78
 289 0 289 0 285 1 c 0,79,80
 166 13 166 13 121 101 c 0,81,82
 104 136 104 136 102 179 c 0,83,84
 101 209 101 209 108 236 c 0,85,86
 111 249 111 249 117 262 c 0,87,88
 126 283 126 283 140 303 c 0,89,90
 170 342 170 342 196 360 c 0,91,92
 236 387 236 387 257 387 c 128,-1,93
 278 387 278 387 277 374 c 0,94,95
 277 371 277 371 274 367 c 2,96,-1
 262 355 l 1,97,-1
 254 349 l 2,98,99
 189 304 189 304 174 231 c 0,100,101
 168 202 168 202 170 178 c 0,102,103
 171 168 171 168 173 158 c 0,104,105
 177 142 177 142 185 128 c 0,106,107
 196 107 196 107 217 90 c 0,108,109
 270 49 270 49 331 52 c 0,110,111
 334 53 334 53 338 53 c 0,112,113
 344 54 344 54 351 55 c 0,114,115
 368 58 368 58 384 64 c 0,116,117
 505 106 505 106 515 205 c 0,118,119
 517 225 517 225 513 241 c 0,120,121
 511 249 511 249 507 255 c 0,122,123
 501 265 501 265 491 272 c 0,124,125
 475 285 475 285 453 286 c 0,126,127
 432 288 432 288 415 283 c 0,128,129
 406 280 406 280 398 275 c 0,130,131
 388 269 388 269 380 260 c 0,132,133
 369 246 369 246 361 222 c 0,134,135
 353 196 353 196 355 168 c 0,136,137
 355 161 355 161 356 154 c 0,138,139
 358 136 358 136 365 120 c 0,140,141
 400 27 400 27 461 8 c 1,142,-1
 480 -15 l 1,143,144
 470 -39 470 -39 452 -36 c 1,145,-1
 444 -32 l 2,50,51
EndSplineSet
EndChar

StartChar: nno
Encoding: 2851 2851 30
Width: 790
GlyphClass: 2
Flags: W
LayerCount: 2
Fore
SplineSet
676 107 m 2,0,1
 676 64 676 64 709 64 c 0,2,3
 738 64 738 64 749 96 c 0,4,5
 751 100 751 100 752 103 c 1,6,7
 753 69 753 69 741 45 c 0,8,9
 734 32 734 32 724 22 c 0,10,11
 700 0 700 0 668 0 c 0,12,13
 625 0 625 0 605 35 c 0,14,15
 597 47 597 47 597 61 c 2,16,-1
 597 89 l 1,17,-1
 597 584 l 2,18,19
 597 612 597 612 629 623 c 0,20,21
 660 633 660 633 668 639 c 0,22,23
 673 644 673 644 676 650 c 1,24,-1
 676 107 l 2,0,1
135 194 m 1,25,26
 151 81 151 81 257 49 c 0,27,28
 302 36 302 36 334 43 c 0,29,30
 350 46 350 46 362 54 c 0,31,32
 384 69 384 69 395 90 c 0,33,34
 406 113 406 113 402 140 c 0,35,36
 401 152 401 152 397 164 c 0,37,38
 394 175 394 175 389 182 c 0,39,40
 373 209 373 209 351 226 c 1,41,42
 300 261 300 261 244 259 c 0,43,44
 240 258 240 258 236 258 c 2,45,-1
 224 256 l 2,46,47
 139 241 139 241 135 194 c 1,25,26
609 562 m 1,48,-1
 607 512 l 1,49,50
 559 573 559 573 500 593 c 0,51,52
 449 609 449 609 417 608 c 0,53,54
 415 607 415 607 411 607 c 0,55,56
 352 597 352 597 333 574 c 0,57,58
 304 540 304 540 319 501 c 0,59,60
 328 478 328 478 351 452 c 0,61,62
 363 438 363 438 394 417 c 2,63,-1
 402 411 l 2,64,65
 407 407 407 407 407 395 c 1,66,67
 405 387 405 387 393 386 c 0,68,69
 388 385 388 385 373 391 c 2,70,-1
 356 398 l 1,71,-1
 321 414 l 2,72,73
 275 436 275 436 232 431 c 0,74,75
 218 429 l 0,76,77
 203 427 203 427 192 421 c 0,78,79
 163 406 163 406 147 382 c 1,80,81
 114 327 114 327 117 273 c 0,82,83
 118 270 118 270 118 267 c 1,84,-1
 122 253 l 1,85,-1
 122 252 l 1,86,87
 160 292 160 292 227 303 c 0,88,89
 288 312 288 312 334 302 c 0,90,91
 358 297 358 297 378 288 c 0,92,93
 407 275 407 275 428 252 c 0,94,95
 484 191 484 191 463 111 c 0,96,97
 456 82 456 82 437 54 c 0,98,99
 390 -14 390 -14 278 -3 c 0,100,101
 267 -2 267 -2 254 0 c 0,102,103
 140 18 140 18 85 108 c 1,104,105
 14 219 14 219 58 348 c 0,106,107
 81 417 81 417 144 458 c 0,108,109
 189 487 189 487 246 485 c 0,110,111
 250 485 l 0,112,113
 255 484 255 484 259 484 c 2,114,-1
 281 480 l 1,115,116
 241 518 241 518 244 558 c 0,117,118
 245 560 245 560 245 563 c 0,119,120
 247 574 247 574 252 583 c 0,121,122
 262 605 262 605 291 623 c 0,123,124
 330 647 330 647 398 650 c 0,125,126
 424 651 424 651 452 646 c 0,127,128
 466 643 466 643 480 639 c 0,129,130
 503 632 503 632 524 622 c 0,131,132
 566 600 566 600 609 562 c 1,48,-1
EndSplineSet
EndChar

StartChar: to
Encoding: 2852 2852 31
Width: 739
GlyphClass: 2
Flags: W
LayerCount: 2
Fore
SplineSet
167 229 m 1,0,1
 95 252 95 252 62 317 c 0,2,3
 51 338 51 338 47 360 c 0,4,5
 34 440 34 440 62 500 c 0,6,7
 79 537 79 537 113 569 c 0,8,9
 200 652 200 652 350 650 c 0,10,11
 546 647 546 647 632 562 c 0,12,13
 701 493 701 493 695 364 c 0,14,15
 695 357 695 357 694 350 c 0,16,17
 693 318 693 318 662 258 c 1,18,19
 661 254 661 254 657 252 c 2,20,-1
 650 251 l 1,21,22
 647 252 647 252 645 253 c 0,23,24
 639 257 639 257 638 272 c 1,25,26
 652 312 652 312 650 362 c 0,27,28
 650 368 650 368 649 374 c 0,29,30
 646 403 646 403 638 435 c 0,31,32
 614 533 614 533 517 573 c 2,33,-1
 498 580 l 2,34,35
 413 608 413 608 334 602 c 0,36,37
 320 601 320 601 307 599 c 0,38,39
 270 593 270 593 234 580 c 0,40,41
 115 535 115 535 106 404 c 0,42,43
 102 342 102 342 139 303 c 0,44,45
 158 282 158 282 187 270 c 1,46,-1
 167 229 l 1,0,1
486 226 m 1,47,48
 476 206 476 206 450 209 c 0,49,50
 447 209 447 209 444 210 c 2,51,-1
 428 214 l 2,52,53
 394 224 394 224 386 260 c 0,54,55
 381 281 381 281 390 297 c 0,56,57
 395 305 395 305 404 312 c 0,58,59
 431 331 431 331 460 329 c 0,60,61
 462 328 462 328 465 328 c 0,62,63
 471 327 471 327 476 326 c 0,64,65
 506 319 506 319 532 278 c 0,66,67
 554 244 554 244 556 198 c 0,68,69
 557 173 557 173 554 151 c 0,70,71
 551 139 551 139 548 129 c 0,72,73
 543 112 543 112 534 98 c 0,74,75
 521 75 521 75 503 60 c 0,76,77
 436 0 436 0 345 0 c 0,78,79
 264 0 264 0 194 60 c 0,80,81
 138 108 138 108 134 180 c 0,82,83
 133 202 133 202 137 222 c 0,84,85
 139 233 139 233 142 244 c 0,86,87
 147 259 147 259 154 274 c 0,88,89
 164 294 164 294 184 318 c 0,90,91
 211 350 211 350 250 377 c 0,92,93
 278 395 278 395 289 390 c 1,94,95
 295 385 295 385 294 374 c 1,96,-1
 293 370 l 1,97,98
 292 364 292 364 285 352 c 1,99,-1
 224 276 l 1,100,101
 204 238 204 238 205 201 c 1,102,-1
 205 196 l 1,103,104
 206 194 206 194 206 190 c 0,105,106
 210 136 210 136 249 96 c 0,107,108
 294 49 294 49 345 46 c 0,109,110
 386 43 386 43 422 61 c 0,111,112
 439 70 439 70 455 83 c 0,113,114
 497 118 497 118 500 174 c 1,115,-1
 498 199 l 1,116,-1
 498 200 l 1,117,118
 497 206 497 206 495 211 c 1,119,-1
 486 226 l 1,47,48
EndSplineSet
EndChar

StartChar: tho
Encoding: 2853 2853 32
Width: 782
GlyphClass: 2
Flags: W
LayerCount: 2
Fore
SplineSet
669 103 m 2,0,1
 669 65 669 65 702 65 c 0,2,3
 732 65 732 65 742 96 c 0,4,5
 744 100 744 100 745 103 c 1,6,7
 746 69 746 69 734 45 c 0,8,9
 727 32 727 32 717 22 c 0,10,11
 695 1 695 1 661 0 c 0,12,13
 622 -2 622 -2 604 27 c 0,14,15
 595 41 595 41 592 61 c 0,16,17
 590 79 590 79 590 89 c 2,18,-1
 590 584 l 2,19,20
 590 612 590 612 622 623 c 0,21,22
 653 633 653 633 661 639 c 0,23,24
 666 644 666 644 669 650 c 1,25,-1
 669 103 l 2,0,1
478 530 m 0,26,27
 478 405 478 405 299 352 c 0,28,29
 130 303 130 303 130 203 c 1,30,31
 136 49 136 49 345 43 c 0,32,33
 421 41 421 41 478 71 c 0,34,35
 508 86 508 86 533 110 c 0,36,37
 570 144 570 144 596 199 c 1,38,-1
 596 125 l 1,39,40
 534 35 534 35 412 8 c 0,41,42
 377 0 377 0 341 0 c 0,43,44
 46 0 46 0 45 190 c 1,45,-1
 45 201 l 1,46,-1
 45 208 l 1,47,48
 52 320 52 320 254 377 c 0,49,50
 417 423 417 423 417 515 c 0,51,52
 417 553 417 553 389 575 c 0,53,54
 354 604 354 604 312 603 c 0,55,56
 258 602 258 602 235 569 c 0,57,58
 217 544 217 544 218 516 c 0,59,60
 220 485 220 485 233 466 c 0,61,62
 248 444 248 444 239 435 c 0,63,64
 235 430 235 430 224 428 c 0,65,66
 214 426 214 426 200 440 c 1,67,68
 189 453 189 453 186 458 c 0,69,70
 163 491 163 491 158 525 c 0,71,72
 156 542 156 542 160 557 c 0,73,74
 161 565 161 565 165 573 c 0,75,76
 171 586 171 586 181 597 c 1,77,-1
 197 612 l 2,78,79
 237 650 237 650 308 650 c 0,80,81
 389 650 389 650 423 625 c 0,82,83
 478 585 478 585 478 530 c 0,26,27
EndSplineSet
EndChar

StartChar: do
Encoding: 2854 2854 33
Width: 713
GlyphClass: 2
Flags: W
LayerCount: 2
Fore
SplineSet
494 0 m 1,0,1
 447 1 447 1 443 50 c 0,2,3
 442 61 442 61 442 75 c 2,4,-1
 442 305 l 2,5,6
 442 342 442 342 469 342 c 0,7,8
 486 342 486 342 501 357 c 0,9,10
 504 360 504 360 508 368 c 1,11,-1
 508 98 l 2,12,13
 508 62 508 62 535 62 c 0,14,15
 560 62 560 62 568 91 c 2,16,-1
 570 98 l 1,17,18
 571 77 571 77 568 62 c 0,19,20
 566 53 566 53 562 44 c 0,21,22
 552 23 552 23 549 21 c 2,23,-1
 536 10 l 1,24,25
 518 1 518 1 494 0 c 1,0,1
601 559 m 0,26,27
 675 474 675 474 669 371 c 0,28,29
 669 366 669 366 668 360 c 0,30,31
 667 351 667 351 666 341 c 0,32,33
 657 281 657 281 642 245 c 0,34,35
 638 238 638 238 631 238 c 1,36,37
 627 240 627 240 624 241 c 0,38,39
 617 245 617 245 618 261 c 1,40,41
 640 370 640 370 597 453 c 0,42,43
 550 542 550 542 467 579 c 0,44,45
 402 609 402 609 335 602 c 0,46,47
 326 602 326 602 317 600 c 0,48,49
 258 591 258 591 225 574 c 0,50,51
 121 520 121 520 110 419 c 0,52,53
 101 336 101 336 155 290 c 0,54,55
 173 274 173 274 197 264 c 1,56,-1
 167 224 l 1,57,58
 104 243 104 243 66 311 c 0,59,60
 45 350 45 350 42 390 c 0,61,62
 39 438 39 438 55 480 c 0,63,64
 71 523 71 523 109 566 c 0,65,66
 181 648 181 648 356 650 c 0,67,68
 433 651 433 651 503 624 c 0,69,70
 566 600 566 600 601 559 c 0,26,27
447 215 m 1,71,-1
 447 99 l 1,72,73
 421 69 421 69 380 52 c 0,74,75
 338 34 338 34 293 39 c 0,76,77
 282 40 282 40 270 43 c 0,78,79
 231 52 231 52 201 76 c 0,80,81
 144 122 144 122 147 193 c 1,82,-1
 147 198 l 1,83,84
 148 222 148 222 160 250 c 0,85,86
 182 301 182 301 260 335 c 0,87,88
 303 353 303 353 327 351 c 0,89,90
 329 350 329 350 331 350 c 0,91,92
 343 349 343 349 345 340 c 1,93,-1
 343 333 l 1,94,95
 342 331 342 331 341 330 c 0,96,97
 338 327 338 327 335 325 c 0,98,99
 329 320 329 320 290 303 c 0,100,101
 204 264 204 264 207 182 c 0,102,103
 208 179 208 179 208 175 c 0,104,105
 215 107 215 107 296 96 c 0,106,107
 310 94 310 94 319 94 c 0,108,109
 361 93 361 93 391 117 c 0,110,111
 406 129 406 129 418 147 c 0,112,113
 437 175 437 175 447 215 c 1,71,-1
EndSplineSet
EndChar

StartChar: dho
Encoding: 2855 2855 34
Width: 706
GlyphClass: 2
Flags: W
LayerCount: 2
Fore
SplineSet
592 114 m 2,0,1
 592 70 592 70 626 70 c 0,2,3
 654 70 654 70 665 103 c 0,4,5
 667 107 667 107 668 110 c 1,6,7
 669 74 669 74 657 49 c 0,8,9
 650 35 650 35 640 24 c 0,10,11
 616 0 616 0 582 0 c 0,12,13
 532 0 532 0 517 43 c 0,14,15
 513 56 513 56 513 71 c 2,16,-1
 513 84 l 1,17,-1
 513 579 l 2,18,19
 513 609 513 609 545 621 c 128,-1,20
 577 633 577 633 584 638 c 0,21,22
 589 643 589 643 592 650 c 1,23,-1
 592 114 l 2,0,1
235 443 m 1,24,-1
 103 604 l 1,25,26
 94 619 94 619 102 630 c 0,27,28
 107 637 107 637 117 643 c 0,29,30
 128 649 128 649 141 648 c 0,31,32
 144 648 144 648 147 647 c 0,33,34
 155 642 155 642 160 636 c 2,35,-1
 382 357 l 1,36,37
 393 345 393 345 391 332 c 0,38,39
 390 329 390 329 389 327 c 0,40,41
 386 320 386 320 378 315 c 0,42,43
 363 306 363 306 346 312 c 0,44,45
 338 315 338 315 328 322 c 1,46,-1
 267 401 l 1,47,48
 231 406 231 406 183 371 c 0,49,50
 122 328 122 328 125 239 c 0,51,52
 126 235 126 235 126 231 c 1,53,-1
 129 216 l 1,54,55
 138 144 138 144 209 94 c 0,56,57
 265 55 265 55 322 52 c 0,58,59
 358 50 358 50 389 60 c 0,60,61
 405 64 405 64 420 72 c 0,62,63
 441 82 441 82 462 101 c 0,64,65
 500 135 500 135 526 197 c 1,66,-1
 548 205 l 1,67,68
 541 136 541 136 491 78 c 0,69,70
 484 70 484 70 477 63 c 0,71,72
 410 0 410 0 322 0 c 0,73,74
 204 2 204 2 127 66 c 1,75,76
 53 131 53 131 43 220 c 0,77,78
 34 295 34 295 69 347 c 0,79,80
 87 374 87 374 117 395 c 0,81,82
 179 440 179 440 235 443 c 1,24,-1
EndSplineSet
EndChar

StartChar: no
Encoding: 2856 2856 35
Width: 716
GlyphClass: 2
Flags: W
LayerCount: 2
Fore
SplineSet
177 226 m 1,0,1
 88 252 88 252 58 333 c 0,2,3
 52 349 52 349 49 367 c 0,4,5
 40 424 40 424 52 471 c 0,6,7
 58 494 58 494 68 514 c 0,8,9
 84 544 84 544 113 570 c 0,10,11
 203 650 203 650 356 650 c 0,12,13
 530 648 530 648 607 558 c 0,14,15
 678 473 678 473 672 368 c 0,16,17
 671 363 671 363 671 358 c 1,18,-1
 669 339 l 1,19,20
 660 279 660 279 645 243 c 0,21,22
 641 236 641 236 634 236 c 1,23,24
 630 238 630 238 627 239 c 0,25,26
 620 243 620 243 621 259 c 1,27,28
 644 368 644 368 600 451 c 0,29,30
 555 537 555 537 470 577 c 0,31,32
 353 632 353 632 236 574 c 0,33,34
 126 518 126 518 120 409 c 0,35,36
 117 361 117 361 133 327 c 1,37,-1
 147 305 l 1,38,-1
 154 298 l 2,39,40
 173 279 173 279 203 270 c 1,41,-1
 177 226 l 1,0,1
192 119 m 1,42,43
 213 126 213 126 229 123 c 0,44,45
 237 122 237 122 244 117 c 128,-1,46
 251 112 251 112 256 104 c 0,47,48
 267 88 267 88 267 64 c 0,49,50
 268 34 268 34 246 17 c 0,51,52
 240 12 240 12 231 8 c 0,53,54
 213 0 213 0 191 0 c 0,55,56
 139 1 139 1 120 55 c 0,57,58
 111 81 111 81 114 111 c 0,59,60
 114 119 114 119 116 128 c 0,61,62
 137 243 137 243 226 306 c 0,63,64
 297 356 297 356 389 360 c 0,65,66
 425 361 425 361 451 354 c 0,67,68
 469 349 469 349 481 341 c 0,69,70
 492 334 492 334 501 324 c 0,71,72
 531 294 531 294 531 240 c 2,73,-1
 531 80 l 2,74,75
 531 51 531 51 559 50 c 0,76,77
 584 50 584 50 591 74 c 0,78,79
 593 79 593 79 595 80 c 1,80,81
 596 41 596 41 571 17 c 0,82,83
 554 2 554 2 524 0 c 0,84,85
 509 -1 509 -1 498 3 c 1,86,-1
 487 9 l 2,87,88
 480 13 480 13 475 20 c 0,89,90
 466 32 466 32 465 48 c 1,91,-1
 465 69 l 1,92,-1
 465 193 l 1,93,-1
 465 236 l 1,94,95
 461 293 461 293 413 305 c 1,96,97
 382 310 382 310 349 302 c 0,98,99
 332 298 332 298 316 291 c 0,100,101
 261 268 261 268 225 221 c 0,102,103
 189 175 189 175 192 119 c 1,42,43
EndSplineSet
EndChar

StartChar: po
Encoding: 2858 2858 36
Width: 791
GlyphClass: 2
Flags: W
LayerCount: 2
Fore
SplineSet
587 89 m 2,0,-1
 587 584 l 2,1,2
 587 612 587 612 619 623 c 0,3,4
 650 633 650 633 658 639 c 0,5,6
 663 644 663 644 666 650 c 1,7,-1
 666 105 l 2,8,9
 666 65 666 65 699 65 c 0,10,11
 729 65 729 65 739 96 c 0,12,13
 741 100 741 100 742 103 c 1,14,15
 743 69 743 69 731 45 c 0,16,17
 724 32 724 32 714 22 c 0,18,19
 692 1 692 1 658 0 c 0,20,21
 632 -1 632 -1 614 14 c 0,22,23
 587 36 587 36 587 89 c 2,0,-1
219 172 m 0,24,25
 240 54 240 54 371 54 c 0,26,27
 467 54 467 54 535 122 c 0,28,29
 578 166 578 166 595 239 c 1,30,-1
 595 143 l 1,31,32
 550 44 550 44 442 12 c 0,33,34
 404 0 404 0 365 0 c 0,35,36
 280 -1 280 -1 221 40 c 0,37,38
 191 61 191 61 168 92 c 0,39,40
 135 136 135 136 141 185 c 0,41,42
 142 196 142 196 146 206 c 0,43,44
 157 240 157 240 197 273 c 1,45,46
 112 270 112 270 68 330 c 0,47,48
 51 354 51 354 44 384 c 0,49,50
 38 413 38 413 44 443 c 0,51,52
 47 458 47 458 52 473 c 0,53,54
 62 498 62 498 77 521 c 0,55,56
 119 585 119 585 201 620 c 0,57,58
 268 649 268 649 334 650 c 0,59,60
 435 650 435 650 506 592 c 0,61,62
 582 530 582 530 593 488 c 1,63,-1
 594 483 l 1,64,-1
 594 399 l 1,65,66
 587 445 587 445 535 507 c 0,67,68
 509 539 509 539 481 559 c 0,69,70
 402 617 402 617 313 607 c 0,71,72
 300 606 300 606 286 603 c 0,73,74
 248 595 248 595 219 579 c 0,75,76
 113 521 113 521 113 425 c 1,77,78
 116 343 116 343 178 327 c 0,79,80
 201 322 201 322 228 326 c 0,81,82
 242 328 242 328 258 333 c 2,83,-1
 338 358 l 1,84,85
 352 361 352 361 356 352 c 0,86,87
 358 347 358 347 353 341 c 2,88,-1
 348 336 l 1,89,-1
 264 280 l 2,90,91
 226 255 226 255 219 204 c 1,92,-1
 218 178 l 1,93,94
 218 175 218 175 219 172 c 0,24,25
EndSplineSet
EndChar

StartChar: pho
Encoding: 2859 2859 37
Width: 1005
GlyphClass: 2
Flags: W
LayerCount: 2
Fore
SplineSet
798 612 m 0,0,1
 749 612 749 612 723 562 c 0,2,3
 709 534 709 534 710 501 c 0,4,5
 713 447 713 447 756 421 c 0,6,7
 776 408 776 408 803 408 c 0,8,9
 853 410 853 410 877 459 c 0,10,11
 887 480 887 480 887 505 c 0,12,13
 888 558 888 558 852 591 c 0,14,15
 829 612 829 612 798 612 c 0,0,1
801 650 m 0,16,17
 850 651 850 651 887 627 c 0,18,19
 906 615 906 615 922 596 c 0,20,21
 954 558 954 558 954 509 c 0,22,23
 954 437 954 437 890 395 c 0,24,25
 851 370 851 370 804 369 c 0,26,27
 728 367 728 367 681 420 c 0,28,29
 650 455 650 455 648 501 c 0,30,31
 645 573 645 573 707 619 c 0,32,33
 749 649 749 649 801 650 c 0,16,17
587 89 m 2,34,-1
 587 584 l 2,35,36
 587 612 587 612 619 623 c 0,37,38
 650 633 650 633 658 639 c 0,39,40
 663 644 663 644 666 650 c 1,41,-1
 666 105 l 2,42,43
 666 65 666 65 699 65 c 0,44,45
 729 65 729 65 739 96 c 0,46,47
 741 100 741 100 742 103 c 1,48,49
 743 69 743 69 731 45 c 0,50,51
 724 32 724 32 714 22 c 0,52,53
 692 1 692 1 658 0 c 0,54,55
 632 -1 632 -1 614 14 c 0,56,57
 587 36 587 36 587 89 c 2,34,-1
219 172 m 0,58,59
 240 54 240 54 371 54 c 0,60,61
 467 54 467 54 535 122 c 0,62,63
 578 166 578 166 595 239 c 1,64,-1
 595 143 l 1,65,66
 504 1 504 1 365 0 c 0,67,68
 280 -1 280 -1 221 40 c 0,69,70
 191 61 191 61 168 92 c 0,71,72
 135 136 135 136 141 185 c 0,73,74
 142 196 142 196 146 206 c 0,75,76
 157 240 157 240 197 273 c 1,77,78
 112 270 112 270 68 330 c 0,79,80
 51 354 51 354 44 384 c 0,81,82
 38 413 38 413 44 443 c 0,83,84
 47 458 47 458 52 473 c 0,85,86
 62 498 62 498 77 521 c 0,87,88
 119 585 119 585 201 620 c 0,89,90
 268 649 268 649 334 650 c 0,91,92
 435 650 435 650 506 592 c 0,93,94
 582 530 582 530 593 488 c 1,95,-1
 594 483 l 1,96,-1
 594 399 l 1,97,98
 587 445 587 445 535 507 c 0,99,100
 509 539 509 539 481 559 c 0,101,102
 402 617 402 617 313 607 c 0,103,104
 300 606 300 606 286 603 c 0,105,106
 251 595 251 595 219 578 c 0,107,108
 113 520 113 520 113 425 c 1,109,110
 116 343 116 343 178 327 c 0,111,112
 201 322 201 322 228 326 c 0,113,114
 242 328 242 328 258 333 c 2,115,-1
 338 358 l 1,116,117
 352 361 352 361 356 352 c 0,118,119
 358 347 358 347 353 341 c 2,120,-1
 348 336 l 1,121,-1
 264 280 l 2,122,123
 226 255 226 255 219 204 c 1,124,-1
 218 178 l 1,125,126
 218 175 218 175 219 172 c 0,58,59
EndSplineSet
EndChar

StartChar: bo
Encoding: 2860 2860 38
Width: 718
GlyphClass: 2
Flags: W
LayerCount: 2
Fore
SplineSet
306 318 m 0,0,1
 250 317 250 317 221 263 c 0,2,3
 206 235 206 235 207 200 c 0,4,5
 209 142 209 142 253 111 c 0,6,7
 277 95 277 95 306 95 c 0,8,9
 369 95 369 95 395 145 c 0,10,11
 409 171 409 171 407 205 c 0,12,13
 404 269 404 269 359 301 c 0,14,15
 335 318 335 318 306 318 c 0,0,1
306 360 m 0,16,17
 360 363 360 363 400 339 c 0,18,19
 421 327 421 327 439 307 c 0,20,21
 475 267 475 267 477 213 c 0,22,23
 479 160 479 160 450 120 c 0,24,25
 435 100 435 100 412 83 c 0,26,27
 367 50 367 50 309 48 c 0,28,29
 255 47 255 47 215 71 c 0,30,31
 194 84 194 84 176 103 c 0,32,33
 139 144 139 144 138 198 c 0,34,35
 137 251 137 251 167 290 c 0,36,37
 182 310 182 310 206 326 c 0,38,39
 250 357 250 357 306 360 c 0,16,17
476 6 m 1,40,41
 476 -30 476 -30 446 -30 c 0,42,43
 417 -30 417 -30 417 6 c 2,44,-1
 417 164 l 1,45,-1
 477 214 l 1,46,-1
 477 164 l 1,47,-1
 476 6 l 1,40,41
667 338 m 1,48,49
 660 283 660 283 642 242 c 0,50,51
 638 235 638 235 630 235 c 1,52,-1
 624 238 l 2,53,54
 617 242 617 242 618 258 c 1,55,56
 624 297 624 297 622 333 c 0,57,58
 622 342 622 342 621 350 c 0,59,60
 619 373 619 373 614 394 c 0,61,62
 610 411 610 411 600 438 c 0,63,64
 566 532 566 532 471 576 c 0,65,66
 402 608 402 608 328 600 c 0,67,68
 312 598 312 598 296 595 c 0,69,70
 266 589 266 589 234 575 c 0,71,72
 146 533 146 533 120 449 c 0,73,74
 111 422 111 422 112 387 c 1,75,-1
 112 382 l 1,76,77
 116 306 116 306 158 283 c 0,78,79
 177 274 177 274 195 270 c 1,80,-1
 171 219 l 1,81,82
 112 240 112 240 74 297 c 1,83,84
 52 333 52 333 48 369 c 0,85,86
 43 421 43 421 58 469 c 0,87,88
 65 492 65 492 76 514 c 0,89,90
 147 649 147 649 351 650 c 0,91,92
 488 651 488 651 569 585 c 0,93,94
 587 570 587 570 603 551 c 0,95,96
 620 530 620 530 633 505 c 0,97,98
 671 435 671 435 668 362 c 0,99,100
 668 359 668 359 668 355 c 0,101,102
 668 349 668 349 667 343 c 1,103,-1
 667 338 l 1,48,49
EndSplineSet
EndChar

StartChar: bho
Encoding: 2861 2861 39
Width: 819
GlyphClass: 2
Flags: W
LayerCount: 2
Fore
SplineSet
117 348 m 0,0,1
 131 287 131 287 205 248 c 1,2,-1
 160 210 l 1,3,4
 60 268 60 268 46 359 c 0,5,6
 44 374 44 374 44 390 c 0,7,8
 43 500 43 500 113 566 c 0,9,10
 149 599 149 599 203 620 c 0,11,12
 277 650 277 650 366 650 c 0,13,14
 537 650 537 650 638 559 c 0,15,16
 729 477 729 477 728 336 c 0,17,18
 727 276 727 276 667 194 c 0,19,20
 645 165 645 165 652 140 c 0,21,22
 654 131 654 131 660 122 c 0,23,24
 671 105 671 105 696 90 c 1,25,-1
 774 37 l 1,26,27
 784 18 784 18 756 7 c 1,28,-1
 722 1 l 2,29,30
 720 0 720 0 716 0 c 0,31,32
 705 -1 705 -1 690 12 c 0,33,34
 683 19 683 19 674 29 c 0,35,36
 614 99 614 99 607 127 c 0,37,38
 604 138 604 138 605 152 c 0,39,40
 605 159 605 159 607 167 c 0,41,42
 610 177 610 177 614 189 c 0,43,44
 657 301 657 301 658 336 c 0,45,46
 659 437 659 437 580 515 c 0,47,48
 493 600 493 600 367 600 c 0,49,50
 299 601 299 601 242 577 c 0,51,52
 214 565 214 565 188 547 c 0,53,54
 160 526 160 526 141 500 c 0,55,56
 96 435 96 435 117 348 c 0,0,1
356 0 m 0,57,58
 142 0 142 0 138 205 c 0,59,60
 137 224 137 224 147 252 c 0,61,62
 152 266 152 266 160 283 c 0,63,64
 184 336 184 336 221 377 c 0,65,66
 246 405 246 405 270 408 c 0,67,68
 280 409 280 409 281 404 c 1,69,-1
 281 397 l 1,70,71
 278 387 278 387 265 370 c 0,72,73
 207 292 207 292 203 200 c 1,74,75
 222 53 222 53 347 48 c 0,76,77
 439 45 439 45 491 102 c 0,78,79
 517 131 517 131 516 161 c 1,80,81
 484 121 484 121 436 113 c 2,82,-1
 423 111 l 2,83,84
 360 101 360 101 325 150 c 0,85,86
 303 179 303 179 309 226 c 0,87,88
 311 238 311 238 314 252 c 0,89,90
 330 313 330 313 355 343 c 0,91,92
 367 359 367 359 382 359 c 0,93,94
 399 359 399 359 396 340 c 1,95,-1
 394 333 l 1,96,97
 370 270 370 270 369 246 c 0,98,99
 367 224 367 224 370 208 c 0,100,101
 372 199 372 199 375 193 c 0,102,103
 380 182 380 182 389 175 c 0,104,105
 400 167 400 167 421 165 c 0,106,107
 448 164 448 164 467 169 c 0,108,109
 477 172 477 172 485 177 c 0,110,111
 497 183 497 183 504 194 c 0,112,113
 514 210 514 210 514 235 c 2,114,-1
 514 320 l 2,115,116
 514 355 514 355 540 355 c 0,117,118
 567 355 567 355 567 321 c 2,119,-1
 567 174 l 2,120,121
 567 82 567 82 497 36 c 1,122,-1
 466 19 l 1,123,124
 436 0 436 0 356 0 c 0,57,58
EndSplineSet
EndChar

StartChar: mo
Encoding: 2862 2862 40
Width: 795
GlyphClass: 2
Flags: W
LayerCount: 2
Fore
SplineSet
674 103 m 2,0,1
 674 65 674 65 707 65 c 0,2,3
 737 65 737 65 747 96 c 0,4,5
 749 100 749 100 750 103 c 1,6,7
 751 69 751 69 739 45 c 0,8,9
 732 32 732 32 722 22 c 0,10,11
 700 1 700 1 666 0 c 0,12,13
 649 -1 649 -1 636 4 c 1,14,-1
 623 11 l 1,15,-1
 611 23 l 1,16,-1
 609 25 l 2,17,18
 598 39 598 39 595 61 c 1,19,-1
 595 89 l 1,20,-1
 595 584 l 2,21,22
 595 612 595 612 627 623 c 0,23,24
 658 633 658 633 666 639 c 0,25,26
 671 644 671 644 674 650 c 1,27,-1
 674 103 l 2,0,1
431 306 m 0,28,29
 337 266 337 266 303 242 c 2,30,-1
 296 237 l 2,31,32
 230 190 230 190 218 139 c 0,33,34
 214 124 214 124 215 107 c 1,35,36
 241 136 241 136 275 116 c 0,37,38
 297 103 297 103 303 86 c 0,39,40
 306 78 306 78 307 69 c 0,41,42
 310 37 310 37 294 19 c 0,43,44
 286 10 286 10 273 4 c 1,45,-1
 250 -2 l 1,46,-1
 220 -1 l 2,47,48
 216 -1 216 -1 212 0 c 0,49,50
 154 11 154 11 137 67 c 0,51,52
 134 76 134 76 134 81 c 0,53,54
 137 157 137 157 164 192 c 0,55,56
 192 228 192 228 230 261 c 1,57,58
 44 288 44 288 41 414 c 0,59,60
 38 491 38 491 97 549 c 0,61,62
 127 579 127 579 172 604 c 0,63,64
 203 621 203 621 235 632 c 0,65,66
 307 657 307 657 382 652 c 0,67,68
 404 650 l 0,69,70
 444 645 444 645 484 632 c 0,71,72
 564 605 564 605 603 532 c 1,73,-1
 603 430 l 1,74,75
 569 577 569 577 408 601 c 0,76,77
 381 605 381 605 348 605 c 0,78,79
 296 605 296 605 235 578 c 0,80,81
 152 542 152 542 129 473 c 0,82,83
 121 450 121 450 121 412 c 0,84,85
 120 328 120 328 255 313 c 2,86,-1
 263 312 l 1,87,88
 313 318 313 318 384 340 c 0,89,90
 416 350 416 350 419 351 c 0,91,92
 446 361 446 361 454 342 c 0,93,94
 459 329 459 329 453 320 c 0,95,96
 450 315 450 315 443 312 c 0,97,98
 434 308 434 308 431 306 c 0,28,29
EndSplineSet
EndChar

StartChar: zo
Encoding: 2863 2863 41
Width: 878
GlyphClass: 2
Flags: W
LayerCount: 2
Fore
SplineSet
754 103 m 2,0,1
 754 65 754 65 787 65 c 0,2,3
 817 65 817 65 827 96 c 0,4,5
 829 100 829 100 830 103 c 1,6,7
 831 69 831 69 819 45 c 0,8,9
 812 32 812 32 802 22 c 0,10,11
 780 1 780 1 746 0 c 0,12,13
 707 -1 707 -1 689 27 c 0,14,15
 681 40 681 40 677 61 c 0,16,17
 675 79 675 79 675 89 c 2,18,-1
 675 584 l 2,19,20
 675 612 675 612 707 623 c 0,21,22
 738 633 738 633 746 639 c 0,23,24
 751 644 751 644 754 650 c 1,25,-1
 754 103 l 2,0,1
301 315 m 2,26,-1
 385 339 l 1,27,-1
 400 339 l 2,28,29
 404 338 404 338 406 336 c 0,30,31
 410 332 410 332 408 323 c 1,32,-1
 402 313 l 1,33,-1
 338 252 l 2,34,35
 292 208 292 208 308 138 c 0,36,37
 325 66 325 66 418 56 c 0,38,39
 436 53 436 53 446 54 c 0,40,41
 592 72 592 72 644 155 c 1,42,43
 681 217 681 217 686 223 c 1,44,-1
 686 155 l 1,45,46
 596 0 596 0 423 0 c 0,47,48
 342 0 342 0 291 38 c 0,49,50
 227 85 227 85 233 146 c 0,51,52
 233 150 233 150 234 153 c 1,53,-1
 234 158 l 1,54,55
 235 189 235 189 257 218 c 1,56,-1
 136 136 l 1,57,58
 169 118 169 118 169 87 c 0,59,60
 169 50 169 50 146 35 c 1,61,-1
 127 28 l 2,62,63
 119 26 119 26 114 26 c 0,64,65
 71 23 71 23 55 48 c 0,66,67
 46 62 46 62 45 84 c 0,68,69
 44 107 44 107 53 126 c 0,70,71
 58 136 58 136 66 145 c 0,72,73
 78 159 78 159 97 171 c 2,74,-1
 241 263 l 1,75,76
 154 276 154 276 116 341 c 0,77,78
 103 365 103 365 100 390 c 0,79,80
 83 558 83 558 245 622 c 0,81,82
 316 650 316 650 391 650 c 0,83,84
 573 650 573 650 681 503 c 2,85,-1
 683 500 l 1,86,-1
 683 415 l 1,87,88
 598 571 598 571 456 600 c 0,89,90
 428 605 428 605 400 605 c 0,91,92
 304 605 304 605 238 538 c 0,93,94
 179 478 179 478 184 402 c 0,95,96
 189 332 189 332 262 317 c 0,97,98
 289 312 289 312 301 315 c 2,26,-1
EndSplineSet
EndChar

StartChar: ro
Encoding: 2864 2864 42
Width: 801
GlyphClass: 2
Flags: W
LayerCount: 2
Fore
SplineSet
306 279 m 0,0,1
 249 279 249 279 218 224 c 0,2,3
 200 191 200 191 201 150 c 0,4,5
 204 92 204 92 252 64 c 1,6,7
 276 48 276 48 306 49 c 0,8,9
 364 50 364 50 394 100 c 0,10,11
 409 124 409 124 410 154 c 0,12,13
 412 194 412 194 394 225 c 0,14,15
 385 241 385 241 370 254 c 0,16,17
 342 279 342 279 306 279 c 0,0,1
188 534 m 0,18,19
 120 470 120 470 123 392 c 0,20,21
 123 388 l 0,22,23
 131 296 131 296 205 250 c 0,24,25
 212 246 212 246 220 242 c 1,26,-1
 172 204 l 1,27,28
 54 261 54 261 48 384 c 0,29,30
 45 441 45 441 72 497 c 0,31,32
 138 635 138 635 348 649 c 0,33,34
 393 652 393 652 435 647 c 0,35,36
 457 644 457 644 478 640 c 0,37,38
 626 609 626 609 690 492 c 0,39,40
 726 427 726 427 723 364 c 0,41,42
 722 359 722 359 722 355 c 0,43,44
 722 349 722 349 721 344 c 0,45,46
 720 332 720 332 714 308 c 0,47,48
 706 280 706 280 634 192 c 0,49,50
 610 163 610 163 617 138 c 0,51,52
 620 130 620 130 626 122 c 0,53,54
 638 105 638 105 665 90 c 1,55,-1
 748 37 l 1,56,57
 755 24 755 24 745 15 c 0,58,59
 740 10 740 10 729 7 c 2,60,-1
 691 0 l 1,61,-1
 686 0 l 2,62,63
 675 -1 675 -1 659 13 c 0,64,65
 651 19 651 19 642 29 c 0,66,67
 580 98 580 98 570 127 c 0,68,69
 563 149 563 149 572 176 c 0,70,71
 576 190 576 190 584 206 c 0,72,73
 590 218 590 218 598 229 c 0,74,75
 648 303 648 303 642 378 c 0,76,77
 642 384 642 384 641 389 c 0,78,79
 639 401 639 401 636 413 c 0,80,81
 627 447 627 447 606 480 c 0,82,83
 553 562 553 562 447 590 c 0,84,85
 413 600 413 600 380 600 c 0,86,87
 257 600 257 600 188 534 c 0,18,19
308 0 m 0,88,89
 267 -1 267 -1 231 12 c 0,90,91
 213 18 213 18 196 29 c 0,92,93
 130 69 130 69 126 150 c 0,94,95
 125 180 125 180 139 211 c 0,96,97
 146 227 146 227 158 244 c 0,98,99
 207 316 207 316 298 321 c 0,100,101
 379 326 379 326 427 286 c 0,102,103
 451 266 451 266 467 234 c 0,104,105
 485 197 485 197 485 161 c 0,106,107
 485 96 485 96 441 50 c 0,108,109
 408 16 408 16 353 5 c 0,110,111
 332 1 332 1 308 0 c 0,88,89
EndSplineSet
EndChar

StartChar: lo
Encoding: 2866 2866 43
Width: 910
GlyphClass: 2
Flags: W
LayerCount: 2
Fore
SplineSet
538 582 m 0,0,1
 437 605 437 605 384 605 c 0,2,3
 270 603 270 603 187 534 c 1,4,5
 100 464 100 464 121 348 c 0,6,7
 132 289 132 289 210 248 c 1,8,-1
 167 210 l 1,9,10
 51 267 51 267 43 390 c 0,11,12
 39 462 39 462 84 522 c 1,13,14
 108 552 108 552 144 580 c 0,15,16
 236 650 236 650 385 650 c 0,17,18
 519 650 519 650 608 619 c 0,19,20
 711 583 711 583 766 494 c 0,21,22
 814 417 814 417 807 330 c 0,23,24
 806 323 806 323 805 315 c 0,25,26
 797 255 797 255 745 194 c 0,27,28
 716 160 716 160 728 134 c 0,29,30
 731 128 731 128 737 121 c 0,31,32
 754 102 754 102 776 90 c 1,33,-1
 859 37 l 1,34,35
 870 16 870 16 840 7 c 0,36,37
 824 2 824 2 797 0 c 0,38,39
 786 -1 786 -1 770 13 c 0,40,41
 762 19 762 19 753 29 c 0,42,43
 681 108 681 108 681 127 c 0,44,45
 681 166 681 166 709 231 c 0,46,47
 748 326 748 326 724 404 c 0,48,49
 712 444 712 444 683 480 c 0,50,51
 616 564 616 564 538 582 c 0,0,1
155 230 m 2,52,53
 155 266 155 266 189 306 c 0,54,55
 214 335 214 335 261 345 c 0,56,57
 272 347 272 347 280 347 c 0,58,59
 324 347 324 347 370 309 c 0,60,61
 404 282 404 282 404 232 c 2,62,-1
 404 35 l 2,63,64
 404 0 404 0 373 0 c 0,65,66
 344 0 344 0 344 36 c 2,67,-1
 344 196 l 1,68,-1
 344 231 l 2,69,70
 344 292 344 292 280 291 c 0,71,72
 215 289 215 289 215 231 c 2,73,-1
 215 195 l 1,74,-1
 215 36 l 2,75,76
 215 0 215 0 186 0 c 0,77,78
 155 0 155 0 155 35 c 2,79,-1
 155 230 l 2,52,53
593 233 m 2,80,-1
 593 70 l 2,81,82
 593 44 593 44 618 44 c 0,83,84
 640 44 640 44 648 65 c 0,85,86
 650 69 650 69 651 70 c 1,87,88
 652 48 652 48 642 31 c 0,89,90
 639 25 639 25 629 15 c 1,91,92
 612 2 612 2 587 0 c 0,93,94
 556 -2 556 -2 542 18 c 0,95,96
 536 26 536 26 534 42 c 0,97,98
 533 48 533 48 533 60 c 2,99,-1
 533 194 l 1,100,-1
 533 229 l 2,101,102
 533 287 533 287 468 289 c 0,103,104
 441 290 441 290 425 279 c 0,105,106
 416 273 416 273 411 264 c 0,107,108
 404 250 404 250 404 229 c 2,109,-1
 404 194 l 1,110,-1
 404 36 l 2,111,112
 404 0 404 0 375 0 c 0,113,114
 344 0 344 0 344 35 c 2,115,-1
 344 230 l 2,116,117
 344 280 344 280 378 307 c 0,118,119
 426 347 426 347 469 347 c 0,120,121
 535 347 535 347 570 303 c 0,122,123
 593 275 593 275 593 233 c 2,80,-1
EndSplineSet
EndChar

StartChar: llo
Encoding: 2867 2867 44
Width: 756
GlyphClass: 2
Flags: W
LayerCount: 2
Fore
SplineSet
155 230 m 2,0,1
 155 266 155 266 189 306 c 0,2,3
 214 335 214 335 261 345 c 0,4,5
 272 347 272 347 280 347 c 0,6,7
 324 347 324 347 370 309 c 0,8,9
 404 282 404 282 404 232 c 2,10,-1
 404 35 l 2,11,12
 404 0 404 0 373 0 c 0,13,14
 344 0 344 0 344 36 c 2,15,-1
 344 196 l 1,16,-1
 344 231 l 2,17,18
 344 292 344 292 280 291 c 0,19,20
 215 289 215 289 215 231 c 2,21,-1
 215 195 l 1,22,-1
 215 36 l 2,23,24
 215 0 215 0 186 0 c 0,25,26
 155 0 155 0 155 35 c 2,27,-1
 155 230 l 2,0,1
593 233 m 2,28,-1
 593 70 l 2,29,30
 593 44 593 44 618 44 c 0,31,32
 640 44 640 44 648 65 c 0,33,34
 650 69 650 69 651 70 c 1,35,36
 652 48 652 48 642 31 c 0,37,38
 639 25 639 25 629 15 c 1,39,40
 612 2 612 2 587 0 c 0,41,42
 556 -2 556 -2 542 18 c 0,43,44
 536 26 536 26 534 42 c 0,45,46
 533 48 533 48 533 60 c 2,47,-1
 533 194 l 1,48,-1
 533 229 l 2,49,50
 533 287 533 287 468 289 c 0,51,52
 441 290 441 290 425 279 c 0,53,54
 416 273 416 273 411 264 c 0,55,56
 404 250 404 250 404 229 c 2,57,-1
 404 194 l 1,58,-1
 404 36 l 2,59,60
 404 0 404 0 375 0 c 0,61,62
 344 0 344 0 344 35 c 2,63,-1
 344 230 l 2,64,65
 344 280 344 280 378 307 c 0,66,67
 418 340 418 340 469 347 c 0,68,69
 518 353 518 353 556 319 c 0,70,71
 593 287 593 287 593 233 c 2,28,-1
116 394 m 0,72,73
 114 346 114 346 136 309 c 0,74,75
 146 290 146 290 163 274 c 0,76,77
 178 260 178 260 199 246 c 1,78,-1
 168 210 l 1,79,80
 110 228 110 228 73 291 c 0,81,82
 54 323 54 323 49 356 c 0,83,84
 38 437 38 437 65 495 c 0,85,86
 82 533 82 533 116 565 c 0,87,88
 206 651 206 651 359 650 c 0,89,90
 546 647 546 647 636 559 c 0,91,92
 713 484 713 484 708 356 c 0,93,94
 707 351 707 351 707 346 c 0,95,96
 704 302 704 302 683 254 c 0,97,98
 679 247 679 247 668 247 c 0,99,100
 667 247 667 247 663 249 c 0,101,102
 657 253 657 253 656 268 c 1,103,104
 671 483 671 483 525 562 c 0,105,106
 455 599 455 599 360 599 c 0,107,108
 220 599 220 599 153 500 c 0,109,110
 119 450 119 450 116 394 c 0,72,73
EndSplineSet
EndChar

StartChar: vo
Encoding: 2869 2869 45
Width: 719
GlyphClass: 2
Flags: W
LayerCount: 2
Fore
SplineSet
340 540 m 2,0,1
 276 536 276 536 270 482 c 1,2,-1
 270 471 l 2,3,4
 270 435 270 435 305 419 c 0,5,6
 317 413 317 413 331 413 c 0,7,8
 355 412 355 412 374 422 c 0,9,10
 384 427 384 427 392 436 c 0,11,12
 406 451 406 451 407 471 c 0,13,14
 408 495 408 495 398 512 c 0,15,16
 392 520 392 520 384 527 c 1,17,-1
 367 537 l 1,18,-1
 344 540 l 1,19,-1
 340 540 l 2,0,1
306 318 m 0,20,21
 250 317 250 317 221 263 c 0,22,23
 206 235 206 235 207 200 c 0,24,25
 209 142 209 142 253 111 c 0,26,27
 277 95 277 95 306 95 c 0,28,29
 369 95 369 95 395 145 c 0,30,31
 409 171 409 171 407 205 c 0,32,33
 404 269 404 269 359 301 c 0,34,35
 335 318 335 318 306 318 c 0,20,21
306 360 m 0,36,37
 360 363 360 363 400 339 c 0,38,39
 421 327 421 327 439 307 c 0,40,41
 475 267 475 267 477 213 c 0,42,43
 480 135 480 135 412 84 c 0,44,45
 362 47 362 47 309 48 c 0,46,47
 224 50 224 50 176 103 c 0,48,49
 139 144 139 144 138 198 c 0,50,51
 137 251 137 251 167 290 c 0,52,53
 182 310 182 310 206 326 c 0,54,55
 250 357 250 357 306 360 c 0,36,37
476 6 m 1,56,57
 476 -30 476 -30 446 -30 c 0,58,59
 417 -30 417 -30 417 6 c 2,60,-1
 417 164 l 1,61,-1
 477 214 l 1,62,-1
 477 164 l 1,63,-1
 476 6 l 1,56,57
202 258 m 1,64,-1
 178 207 l 1,65,66
 99 234 99 234 64 313 c 0,67,68
 54 338 54 338 49 369 c 0,69,70
 42 420 42 420 55 467 c 0,71,72
 62 492 62 492 74 516 c 0,73,74
 141 649 141 649 346 650 c 0,75,76
 443 651 443 651 511 622 c 0,77,78
 545 608 545 608 572 586 c 0,79,80
 612 553 612 553 635 504 c 0,81,82
 663 446 663 446 660 385 c 0,83,84
 660 377 l 0,85,86
 659 369 659 369 658 360 c 0,87,88
 658 356 658 356 657 354 c 0,89,90
 643 281 643 281 612 238 c 0,91,92
 603 224 603 224 591 229 c 2,93,-1
 587 231 l 2,94,95
 583 233 583 233 584 242 c 1,96,-1
 586 250 l 1,97,-1
 586 251 l 1,98,99
 608 295 608 295 608 363 c 0,100,101
 606 515 606 515 471 576 c 0,102,103
 400 608 400 608 321 600 c 0,104,105
 306 599 306 599 291 596 c 0,106,107
 183 574 183 574 137 501 c 0,108,109
 107 454 107 454 112 390 c 0,110,111
 119 290 119 290 198 259 c 0,112,113
 200 259 200 259 202 258 c 1,64,-1
EndSplineSet
EndChar

StartChar: sho
Encoding: 2870 2870 46
Width: 759
GlyphClass: 2
Flags: W
LayerCount: 2
Fore
SplineSet
323 286 m 0,0,1
 263 285 263 285 232 229 c 0,2,3
 214 197 214 197 215 157 c 0,4,5
 218 98 218 98 266 66 c 0,6,7
 293 48 293 48 326 49 c 0,8,9
 380 51 380 51 412 101 c 0,10,11
 431 131 431 131 431 166 c 0,12,13
 431 228 431 228 386 264 c 0,14,15
 358 287 358 287 323 286 c 0,0,1
252 459 m 1,16,17
 223 502 223 502 227 540 c 0,18,19
 228 544 228 544 229 549 c 128,-1,20
 230 554 230 554 232 558 c 0,21,22
 250 597 250 597 266 612 c 0,23,24
 302 644 302 644 365 641 c 0,25,26
 373 641 l 0,27,28
 436 636 436 636 493 595 c 2,29,-1
 592 522 l 1,30,-1
 592 465 l 1,31,32
 536 521 536 521 469 560 c 1,33,34
 417 588 417 588 377 588 c 0,35,36
 325 587 325 587 302 557 c 1,37,38
 281 533 281 533 287 504 c 0,39,40
 289 495 289 495 294 484 c 0,41,42
 305 462 305 462 326 441 c 0,43,44
 352 415 352 415 376 400 c 0,45,46
 385 394 385 394 383 386 c 0,47,48
 380 374 380 374 369 377 c 1,49,50
 327 397 327 397 297 405 c 0,51,52
 246 418 246 418 204 416 c 0,53,54
 200 415 200 415 195 415 c 0,55,56
 174 413 174 413 158 404 c 0,57,58
 136 392 136 392 119 364 c 0,59,60
 107 345 107 345 108 324 c 0,61,62
 114 260 114 260 170 230 c 0,63,64
 185 222 185 222 202 219 c 1,65,-1
 167 176 l 1,66,67
 65 214 65 214 47 287 c 0,68,69
 42 307 42 307 42 330 c 0,70,71
 42 415 42 415 124 447 c 0,72,73
 168 465 168 465 230 461 c 0,74,75
 252 459 l 1,16,17
143 157 m 1,76,77
 144 266 144 266 237 309 c 0,78,79
 272 325 272 325 313 326 c 0,80,81
 349 327 349 327 379 318 c 0,82,83
 394 314 394 314 408 307 c 0,84,85
 482 271 482 271 497 209 c 0,86,87
 502 189 502 189 502 168 c 0,88,89
 502 113 502 113 468 73 c 0,90,91
 407 1 407 1 325 0 c 0,92,93
 234 0 234 0 177 67 c 0,94,95
 171 74 171 74 167 81 c 0,96,97
 143 122 143 122 143 152 c 2,98,-1
 143 157 l 1,76,77
650 103 m 2,99,100
 650 65 650 65 678 65 c 0,101,102
 703 65 703 65 712 96 c 2,103,-1
 714 103 l 1,104,105
 716 52 716 52 690 22 c 0,106,107
 671 1 671 1 643 0 c 0,108,109
 622 -1 622 -1 608 11 c 0,110,111
 601 17 601 17 595 26 c 0,112,113
 587 41 587 41 584 61 c 0,114,115
 583 67 583 67 583 89 c 2,116,-1
 583 584 l 2,117,118
 583 612 583 612 610 623 c 0,119,120
 638 634 638 634 643 639 c 0,121,122
 644 640 644 640 650 650 c 1,123,-1
 650 103 l 2,99,100
EndSplineSet
EndChar

StartChar: ssho
Encoding: 2871 2871 47
Width: 777
GlyphClass: 2
Flags: W
LayerCount: 2
Fore
SplineSet
183 541 m 1,0,-1
 219 579 l 1,1,-1
 630 168 l 1,2,-1
 591 133 l 1,3,-1
 183 541 l 1,0,-1
659 103 m 2,4,5
 659 65 659 65 692 65 c 0,6,7
 722 65 722 65 732 96 c 0,8,9
 734 100 734 100 735 103 c 1,10,11
 736 69 736 69 724 45 c 0,12,13
 717 32 717 32 707 22 c 0,14,15
 685 1 685 1 651 0 c 0,16,17
 625 -1 625 -1 609 11 c 0,18,19
 601 16 601 16 595 25 c 0,20,21
 585 38 585 38 582 61 c 0,22,23
 580 79 580 79 580 89 c 2,24,-1
 580 584 l 2,25,26
 580 612 580 612 612 623 c 0,27,28
 643 633 643 633 651 639 c 0,29,30
 656 644 656 644 659 650 c 1,31,-1
 659 103 l 2,4,5
138 163 m 0,32,33
 136 194 136 194 155 224 c 0,34,35
 164 239 164 239 179 253 c 0,36,37
 191 264 191 264 204 272 c 1,38,39
 164 271 164 271 135 277 c 0,40,41
 120 281 120 281 107 286 c 0,42,43
 88 294 88 294 75 307 c 0,44,45
 57 325 57 325 48 358 c 1,46,47
 42 387 42 387 48 416 c 0,48,49
 51 431 51 431 57 447 c 0,50,51
 65 470 65 470 81 495 c 0,52,53
 122 558 122 558 202 592 c 0,54,55
 285 628 285 628 366 619 c 0,56,57
 383 617 383 617 400 613 c 0,58,59
 451 601 451 601 496 573 c 0,60,61
 558 536 558 536 596 483 c 1,62,-1
 596 399 l 1,63,64
 587 458 587 458 484 528 c 1,65,66
 397 590 397 590 310 579 c 1,67,-1
 289 575 l 2,68,69
 254 567 254 567 222 550 c 0,70,71
 116 492 116 492 116 397 c 1,72,73
 120 305 120 305 239 328 c 0,74,75
 263 332 263 332 291 341 c 2,76,-1
 371 366 l 2,77,78
 384 369 384 369 389 360 c 1,79,-1
 388 352 l 1,80,-1
 387 350 l 2,81,82
 386 347 386 347 381 344 c 2,83,-1
 297 288 l 2,84,85
 217 234 217 234 221 177 c 0,86,87
 222 175 222 175 222 172 c 0,88,89
 242 66 242 66 362 55 c 0,90,91
 368 54 368 54 374 54 c 0,92,93
 434 51 434 51 486 81 c 0,94,95
 513 97 513 97 538 122 c 0,96,97
 582 166 582 166 598 239 c 1,98,-1
 598 143 l 1,99,100
 507 1 507 1 368 0 c 0,101,102
 311 -1 311 -1 249 26 c 0,103,104
 144 71 144 71 138 163 c 0,32,33
EndSplineSet
EndChar

StartChar: so
Encoding: 2872 2872 48
Width: 653
GlyphClass: 2
Flags: W
LayerCount: 2
Fore
SplineSet
278 266 m 1,0,-1
 274 226 l 1,1,2
 214 224 214 224 162 249 c 0,3,4
 136 262 136 262 113 281 c 0,5,6
 45 338 45 338 45 420 c 0,7,8
 45 543 45 543 135 606 c 0,9,10
 193 647 193 647 284 650 c 0,11,12
 359 653 359 653 423 614 c 0,13,14
 455 595 455 595 485 565 c 0,15,16
 544 508 544 508 554 454 c 1,17,-1
 554 395 l 1,18,19
 451 611 451 611 287 600 c 0,20,21
 183 593 183 593 136 516 c 0,22,23
 108 471 108 471 111 414 c 0,24,25
 115 329 115 329 183 290 c 0,26,27
 225 266 225 266 278 266 c 1,0,-1
541 120 m 1,28,-1
 539 584 l 1,29,30
 539 612 539 612 566 623 c 0,31,32
 593 633 593 633 599 639 c 0,33,34
 602 642 602 642 606 650 c 1,35,-1
 606 64 l 2,36,37
 606 15 606 15 604 10 c 0,38,39
 599 0 599 0 577 0 c 0,40,41
 556 0 556 0 523 9 c 2,42,-1
 170 105 l 2,43,44
 136 114 136 114 128 131 c 0,45,46
 126 135 126 135 125 140 c 0,47,48
 122 150 122 150 128 160 c 0,49,50
 131 166 131 166 136 171 c 0,51,52
 139 174 139 174 147 180 c 2,53,-1
 377 351 l 2,54,55
 408 374 408 374 425 357 c 0,56,57
 448 332 448 332 416 309 c 1,58,-1
 255 186 l 2,59,60
 235 171 235 171 235 169 c 2,61,-1
 235 165 l 1,62,-1
 236 157 l 1,63,-1
 237 156 l 1,64,65
 234 157 234 157 247 153 c 0,66,67
 254 151 254 151 266 148 c 2,68,-1
 492 85 l 2,69,70
 519 78 519 78 530 86 c 1,71,72
 541 98 541 98 541 120 c 1,28,-1
EndSplineSet
EndChar

StartChar: ho
Encoding: 2873 2873 49
Width: 595
GlyphClass: 2
Flags: W
LayerCount: 2
Fore
SplineSet
161 279 m 1,0,1
 49 318 49 318 41 421 c 1,2,-1
 41 441 l 1,3,4
 44 547 44 547 131 605 c 0,5,6
 198 650 198 650 290 650 c 0,7,8
 424 650 424 650 500 570 c 0,9,10
 558 510 558 510 558 417 c 0,11,12
 558 338 558 338 536 310 c 0,13,14
 528 300 528 300 522 301 c 0,15,16
 514 302 514 302 514 314 c 1,17,-1
 519 376 l 1,18,19
 519 397 519 397 514 420 c 0,20,21
 492 528 492 528 403 573 c 0,22,23
 349 601 349 601 281 597 c 0,24,25
 161 591 161 591 114 508 c 0,26,27
 98 480 98 480 94 444 c 0,28,29
 87 386 87 386 124 348 c 0,30,31
 143 328 143 328 171 317 c 1,32,-1
 161 279 l 1,0,1
257 152 m 1,33,-1
 179 74 l 2,34,35
 166 61 166 61 166 60 c 0,36,37
 166 49 166 49 182 46 c 2,38,-1
 458 5 l 2,39,40
 485 2 485 2 490 -16 c 0,41,42
 491 -20 491 -20 490 -24 c 0,43,44
 490 -27 490 -27 489 -28 c 0,45,46
 482 -42 482 -42 452 -40 c 0,47,48
 450 -39 450 -39 445 -39 c 0,49,50
 443 -38 443 -38 439 -38 c 2,51,-1
 126 10 l 2,52,53
 102 14 102 14 95 31 c 0,54,55
 91 41 91 41 100 54 c 0,56,57
 103 58 103 58 106 61 c 2,58,-1
 214 168 l 1,59,-1
 257 152 l 1,33,-1
382 168 m 1,60,-1
 380 360 l 1,61,62
 380 392 380 392 405 392 c 0,63,64
 421 392 421 392 432 406 c 0,65,66
 436 412 436 412 438 418 c 1,67,-1
 438 195 l 2,68,69
 438 160 438 160 461 160 c 0,70,71
 478 160 478 160 488 188 c 0,72,73
 489 189 489 189 489 195 c 1,74,-1
 487 163 l 1,75,76
 487 160 487 160 486 158 c 2,77,-1
 481 144 l 1,78,79
 476 134 476 134 470 127 c 0,80,81
 455 107 455 107 432 106 c 0,82,83
 411 105 411 105 399 114 c 0,84,85
 393 119 393 119 389 127 c 0,86,87
 382 142 382 142 382 168 c 1,60,-1
270 395 m 2,88,89
 262 386 262 386 246 374 c 0,90,91
 182 326 182 326 192 257 c 0,92,93
 203 187 203 187 284 185 c 0,94,95
 322 184 322 184 347 206 c 0,96,97
 360 217 360 217 369 233 c 0,98,99
 382 258 382 258 390 297 c 1,100,-1
 390 189 l 1,101,102
 364 157 364 157 334 146 c 0,103,104
 294 133 294 133 261 135 c 0,105,106
 256 135 256 135 252 136 c 0,107,108
 240 138 240 138 229 142 c 0,109,110
 204 150 204 150 185 168 c 0,111,112
 136 212 136 212 140 271 c 0,113,114
 141 275 141 275 141 278 c 1,115,-1
 143 292 l 1,116,117
 148 310 148 310 155 328 c 0,118,119
 171 368 171 368 230 404 c 0,120,121
 250 415 250 415 261 416 c 0,122,123
 268 416 268 416 272 406 c 1,124,-1
 271 397 l 1,125,-1
 270 395 l 2,88,89
EndSplineSet
EndChar

StartChar: xnuk
Encoding: 2876 2876 50
Width: 16
GlyphClass: 2
Flags: W
LayerCount: 2
Fore
SplineSet
-222 -42 m 0,0,1
 -175 -43 -175 -43 -153 -79 c 0,2,3
 -143 -95 -143 -95 -143 -114 c 0,4,5
 -144 -156 -144 -156 -189 -173 c 0,6,7
 -206 -179 -206 -179 -224 -179 c 0,8,9
 -253 -180 -253 -180 -276 -164 c 0,10,11
 -287 -156 -287 -156 -296 -144 c 0,12,13
 -307 -129 -307 -129 -306 -110 c 1,14,15
 -300 -66 -300 -66 -262 -50 c 0,16,17
 -244 -41 -244 -41 -222 -42 c 0,0,1
EndSplineSet
EndChar

StartChar: tingy1
Encoding: 2877 2877 51
Width: 379
GlyphClass: 2
Flags: W
LayerCount: 2
Fore
SplineSet
64 497 m 2,0,-1
 264 641 l 2,1,2
 283 655 283 655 299 652 c 1,3,-1
 303 650 l 2,4,5
 324 638 324 638 307 622 c 0,6,7
 306 621 306 621 302 618 c 2,8,-1
 146 498 l 2,9,10
 126 483 126 483 131 468 c 0,11,12
 133 463 133 463 142 457 c 2,13,-1
 282 368 l 2,14,15
 315 347 315 347 309 331 c 0,16,17
 306 324 306 324 298 317 c 0,18,19
 284 306 284 306 282 304 c 2,20,-1
 146 209 l 1,21,22
 131 195 131 195 129 188 c 1,23,24
 129 181 129 181 142 172 c 2,25,-1
 332 42 l 2,26,27
 347 32 347 32 342 16 c 0,28,29
 340 10 340 10 336 6 c 0,30,31
 326 -4 326 -4 309 1 c 0,32,33
 302 3 302 3 295 7 c 0,34,35
 285 12 285 12 267 24 c 2,36,-1
 65 159 l 2,37,38
 43 174 43 174 46 191 c 0,39,40
 47 194 47 194 49 196 c 2,41,-1
 65 211 l 1,42,-1
 196 302 l 1,43,-1
 213 315 l 1,44,45
 220 322 220 322 220 328 c 0,46,47
 221 344 221 344 205 352 c 0,48,49
 204 353 204 353 200 355 c 2,50,-1
 58 446 l 2,51,52
 43 456 43 456 44 470 c 0,53,54
 45 483 45 483 64 497 c 2,0,-1
EndSplineSet
EndChar

StartChar: xaakar
Encoding: 2878 2878 52
Width: 234
GlyphClass: 2
Flags: W
LayerCount: 2
Fore
SplineSet
44 81 m 2,0,-1
 44 584 l 2,1,2
 44 612 44 612 76 623 c 0,3,4
 107 633 107 633 115 639 c 0,5,6
 120 644 120 644 123 650 c 1,7,-1
 123 105 l 2,8,9
 123 67 123 67 156 67 c 0,10,11
 186 67 186 67 196 98 c 0,12,13
 198 102 198 102 199 105 c 1,14,-1
 197 72 l 1,15,16
 195 64 l 0,17,18
 192 55 192 55 188 47 c 0,19,20
 179 31 179 31 171 23 c 0,21,22
 148 1 148 1 114 0 c 0,23,24
 88 -1 88 -1 69 16 c 0,25,26
 44 38 44 38 44 81 c 2,0,-1
EndSplineSet
EndChar

StartChar: xikar
Encoding: 2879 2879 53
Width: 18
GlyphClass: 2
Flags: W
LayerCount: 2
Fore
SplineSet
-162 714 m 0,0,1
 -294 795 -294 795 -435 762 c 0,2,3
 -497 748 -497 748 -553 713 c 0,4,5
 -583 695 -583 695 -600 699 c 1,6,-1
 -606 705 l 1,7,8
 -619 726 -619 726 -585 753 c 0,9,10
 -399 906 -399 906 -174 783 c 1,11,12
 -148 770 -148 770 -123 750 c 0,13,14
 -83 719 -83 719 -91 702 c 1,15,16
 -106 686 -106 686 -138 701 c 0,17,18
 -148 706 -148 706 -162 714 c 0,0,1
EndSplineSet
EndChar

StartChar: xiikar
Encoding: 2880 2880 54
Width: 289
GlyphClass: 2
Flags: W
LayerCount: 2
Fore
SplineSet
-74 548 m 1,0,-1
 126 638 l 2,1,2
 152 650 152 650 163 651 c 1,3,-1
 171 650 l 1,4,-1
 177 645 l 1,5,6
 178 640 178 640 178 631 c 2,7,-1
 178 107 l 2,8,9
 178 65 178 65 211 65 c 1,10,11
 243 67 243 67 251 96 c 0,12,13
 253 103 253 103 254 103 c 1,14,15
 255 83 255 83 250 65 c 0,16,17
 248 55 248 55 243 46 c 0,18,19
 236 32 236 32 226 22 c 0,20,21
 204 1 204 1 170 0 c 0,22,23
 132 -1 132 -1 113 27 c 0,24,25
 103 42 103 42 101 61 c 0,26,27
 99 85 99 85 99 89 c 2,28,-1
 99 545 l 2,29,30
 99 564 99 564 79 563 c 0,31,32
 76 563 76 563 74 562 c 2,33,-1
 -46 510 l 1,34,-1
 -60 506 l 1,35,36
 -71 506 -71 506 -78 516 c 0,37,38
 -86 527 -86 527 -82 537 c 0,39,40
 -80 542 -80 542 -74 548 c 1,0,-1
EndSplineSet
EndChar

StartChar: xukar
Encoding: 2881 2881 55
Width: 18
GlyphClass: 2
Flags: W
LayerCount: 2
Fore
SplineSet
-98 -23 m 1,0,-1
 -98 -108 l 2,1,2
 -98 -132 -98 -132 -87 -147 c 2,3,-1
 -84 -151 l 2,4,5
 -50 -197 -50 -197 -4 -212 c 0,6,7
 11 -217 11 -217 30 -220 c 0,8,9
 59 -223 59 -223 87 -214 c 0,10,11
 102 -209 102 -209 112 -199 c 1,12,13
 129 -185 129 -185 143 -188 c 2,14,-1
 148 -190 l 2,15,16
 157 -193 157 -193 156 -204 c 1,17,-1
 147 -216 l 1,18,-1
 146 -217 l 2,19,20
 93 -270 93 -270 50 -270 c 0,21,22
 -14 -270 -14 -270 -77 -222 c 1,23,-1
 -131 -174 l 1,24,-1
 -153 -206 l 1,25,26
 -209 -277 -209 -277 -289 -285 c 0,27,28
 -348 -291 -348 -291 -394 -265 c 0,29,30
 -455 -232 -455 -232 -453 -154 c 0,31,32
 -453 -150 l 0,33,34
 -450 -96 -450 -96 -392 -64 c 0,35,36
 -353 -42 -353 -42 -309 -43 c 0,37,38
 -241 -45 -241 -45 -173 -100 c 0,39,40
 -169 -103 -169 -103 -160 -111 c 1,41,-1
 -160 -19 l 2,42,43
 -160 0 -160 0 -132 1 c 0,44,45
 -116 1 -116 1 -108 -4 c 0,46,47
 -99 -10 -99 -10 -98 -23 c 1,0,-1
-165 -149 m 1,48,49
 -209 -115 -209 -115 -249 -97 c 1,50,51
 -289 -82 -289 -82 -322 -87 c 0,52,53
 -337 -89 -337 -89 -350 -95 c 0,54,55
 -389 -112 -389 -112 -394 -163 c 0,56,57
 -397 -188 -397 -188 -382 -206 c 0,58,59
 -375 -215 -375 -215 -363 -222 c 0,60,61
 -334 -241 -334 -241 -285 -237 c 0,62,63
 -203 -231 -203 -231 -171 -163 c 0,64,65
 -165 -150 -165 -150 -165 -149 c 1,48,49
EndSplineSet
EndChar

StartChar: xuukar
Encoding: 2882 2882 56
Width: 18
GlyphClass: 2
Flags: W
LayerCount: 2
Fore
SplineSet
-322 -135 m 0,0,1
 -326 -157 -326 -157 -317 -172 c 0,2,3
 -313 -180 -313 -180 -305 -187 c 0,4,5
 -292 -198 -292 -198 -271 -205 c 0,6,7
 -256 -210 -256 -210 -235 -212 c 0,8,9
 -207 -214 -207 -214 -181 -205 c 0,10,11
 -168 -201 -168 -201 -156 -193 c 0,12,13
 -131 -178 -131 -178 -120 -165 c 0,14,15
 -108 -150 -108 -150 -93 -135 c 0,16,17
 -83 -125 -83 -125 -67 -125 c 0,18,19
 -64 -125 -64 -125 -62 -126 c 0,20,21
 -54 -128 -54 -128 -48 -134 c 0,22,23
 5 -187 5 -187 61 -191 c 1,24,-1
 86 -189 l 2,25,26
 93 -188 93 -188 99 -185 c 0,27,28
 109 -181 109 -181 121 -181 c 0,29,30
 124 -181 124 -181 126 -184 c 1,31,-1
 125 -190 l 1,32,-1
 124 -191 l 2,33,34
 101 -214 101 -214 66 -216 c 1,35,-1
 24 -214 l 2,36,37
 17 -213 17 -213 10 -211 c 0,38,39
 -4 -208 -4 -208 -16 -203 c 0,40,41
 -36 -194 -36 -194 -52 -184 c 0,42,43
 -61 -178 -61 -178 -70 -179 c 0,44,45
 -72 -179 -72 -179 -74 -180 c 2,46,-1
 -80 -184 l 1,47,48
 -146 -248 -146 -248 -230 -248 c 2,49,-1
 -243 -248 l 2,50,51
 -342 -248 -342 -248 -371 -189 c 1,52,53
 -384 -168 -384 -168 -382 -140 c 0,54,55
 -381 -136 -381 -136 -381 -133 c 0,56,57
 -380 -124 -380 -124 -376 -114 c 0,58,59
 -359 -66 -359 -66 -295 -50 c 0,60,61
 -287 -48 -287 -48 -279 -47 c 0,62,63
 -255 -44 -255 -44 -201 -56 c 0,64,65
 -192 -58 -192 -58 -184 -61 c 0,66,67
 -170 -66 -170 -66 -157 -65 c 0,68,69
 -149 -63 l 0,70,71
 -134 -58 -134 -58 -134 -43 c 0,72,73
 -134 -37 -134 -37 -152 -25 c 0,74,75
 -164 -17 -164 -17 -162 -8 c 1,76,77
 -157 3 -157 3 -137 0 c 0,78,79
 -132 0 -132 0 -125 -2 c 0,80,81
 -117 -4 -117 -4 -113 -8 c 2,82,-1
 -91 -29 l 1,83,84
 -83 -40 -83 -40 -85 -61 c 0,85,86
 -89 -97 -89 -97 -133 -98 c 0,87,88
 -139 -98 -139 -98 -144 -97 c 2,89,-1
 -230 -79 l 2,90,91
 -245 -77 -245 -77 -258 -79 c 0,92,93
 -265 -80 -265 -80 -271 -82 c 0,94,95
 -302 -93 -302 -93 -321 -131 c 0,96,97
 -322 -133 -322 -133 -322 -135 c 0,0,1
EndSplineSet
EndChar

StartChar: xrukar
Encoding: 2883 2883 57
Width: 18
GlyphClass: 2
Flags: W
LayerCount: 2
Fore
SplineSet
-120 -303 m 1,0,1
 -237 -302 -237 -302 -279 -221 c 0,2,3
 -295 -189 -295 -189 -294 -147 c 0,4,5
 -290 -78 -290 -78 -209 -14 c 0,6,7
 -165 20 -165 20 -142 22 c 1,8,-1
 -130 20 l 2,9,10
 -128 19 -128 19 -126 17 c 0,11,12
 -124 14 -124 14 -123 10 c 0,13,14
 -122 7 -122 7 -125 0 c 0,15,16
 -126 -4 -126 -4 -129 -6 c 2,17,-1
 -168 -34 l 1,18,19
 -236 -88 -236 -88 -238 -144 c 0,20,21
 -241 -212 -241 -212 -192 -238 c 0,22,23
 -167 -252 -167 -252 -128 -254 c 0,24,25
 -37 -259 -37 -259 -16 -197 c 0,26,27
 -11 -184 -11 -184 -14 -172 c 0,28,29
 -16 -166 -16 -166 -20 -160 c 0,30,31
 -38 -133 -38 -133 -75 -126 c 0,32,33
 -107 -120 -107 -120 -108 -107 c 0,34,35
 -108 -104 -108 -104 -106 -100 c 0,36,37
 -101 -90 -101 -90 -59 -93 c 0,38,39
 -46 -94 -46 -94 -40 -96 c 0,40,41
 17 -111 17 -111 33 -151 c 0,42,43
 36 -158 36 -158 37 -166 c 0,44,45
 42 -196 42 -196 31 -222 c 0,46,47
 25 -236 25 -236 15 -248 c 0,48,49
 -32 -301 -32 -301 -120 -303 c 1,0,1
EndSplineSet
EndChar

StartChar: xekar
Encoding: 2887 2887 58
Width: 537
GlyphClass: 2
Flags: W
LayerCount: 2
Fore
SplineSet
136 258 m 1,0,1
 141 153 141 153 208 90 c 0,2,3
 237 63 237 63 271 53 c 0,4,5
 330 36 330 36 373 65 c 0,6,7
 401 84 401 84 409 102 c 0,8,9
 429 143 429 143 424 186 c 0,10,11
 420 206 l 0,12,13
 405 270 405 270 361 300 c 0,14,15
 301 340 301 340 252 338 c 0,16,17
 248 337 248 337 245 337 c 0,18,19
 156 324 156 324 136 258 c 1,0,1
487 144 m 0,20,21
 475 29 475 29 364 5 c 0,22,23
 341 0 341 0 315 0 c 0,24,25
 187 0 187 0 121 93 c 0,26,27
 102 119 102 119 101 123 c 1,28,29
 39 233 39 233 49 351 c 0,30,31
 50 359 50 359 50 366 c 0,32,33
 55 466 55 466 125 563 c 2,34,-1
 130 570 l 1,35,36
 200 652 200 652 312 648 c 0,37,38
 318 648 l 0,39,40
 373 648 373 648 421 620 c 0,41,42
 453 601 453 601 449 585 c 0,43,44
 448 583 448 583 446 581 c 0,45,46
 443 576 443 576 428 578 c 0,47,48
 420 579 420 579 409 582 c 2,49,-1
 371 593 l 2,50,51
 320 608 320 608 272 595 c 0,52,53
 264 593 264 593 226 576 c 0,54,55
 193 562 193 562 156 498 c 0,56,57
 114 426 114 426 123 326 c 1,58,59
 165 380 165 380 227 389 c 0,60,61
 234 390 234 390 240 391 c 0,62,63
 277 396 277 396 314 390 c 0,64,65
 333 387 333 387 351 380 c 0,66,67
 414 359 414 359 452 306 c 0,68,69
 488 256 488 256 488 156 c 0,70,71
 488 150 488 150 487 144 c 0,20,21
EndSplineSet
EndChar

StartChar: xeikar
Encoding: 2888 2888 59
Width: 1173
GlyphClass: 2
Flags: W
LayerCount: 2
Fore
SplineSet
136 258 m 1,0,1
 141 154 141 154 204 92 c 0,2,3
 235 62 235 62 271 53 c 0,4,5
 324 40 324 40 364 60 c 0,6,7
 393 74 393 74 409 102 c 0,8,9
 435 146 435 146 418 210 c 0,10,11
 403 265 403 265 361 300 c 0,12,13
 311 341 311 341 257 338 c 0,14,15
 255 338 255 338 252 338 c 0,16,17
 248 337 248 337 245 337 c 0,18,19
 149 323 149 323 136 258 c 1,0,1
487 144 m 0,20,21
 475 27 475 27 364 5 c 0,22,23
 341 0 341 0 315 0 c 0,24,25
 192 0 192 0 121 93 c 0,26,27
 111 107 111 107 101 123 c 0,28,29
 45 211 45 211 47 357 c 1,30,-1
 47 365 l 1,31,32
 50 480 50 480 120 568 c 0,33,34
 181 643 181 643 288 650 c 2,35,-1
 303 650 l 2,36,37
 366 650 366 650 421 618 c 0,38,39
 454 598 454 598 449 583 c 0,40,41
 448 581 448 581 446 579 c 0,42,43
 439 571 439 571 409 577 c 1,44,-1
 371 588 l 2,45,46
 318 605 318 605 272 593 c 0,47,48
 248 587 248 587 226 574 c 0,49,50
 194 555 194 555 163 508 c 0,51,52
 109 425 109 425 123 326 c 1,53,54
 161 375 161 375 227 389 c 0,55,56
 234 390 234 390 240 391 c 0,57,58
 277 396 277 396 314 390 c 0,59,60
 333 387 333 387 351 380 c 0,61,62
 414 359 414 359 452 306 c 0,63,64
 494 247 494 247 488 156 c 0,65,66
 488 150 488 150 487 144 c 0,20,21
1084 814 m 0,67,68
 1031 843 1031 843 994 832 c 0,69,70
 972 825 972 825 960 804 c 1,71,-1
 950 779 l 1,72,73
 944 755 944 755 945 732 c 0,74,75
 947 720 l 0,76,77
 949 706 949 706 955 692 c 128,-1,78
 961 678 961 678 959 666 c 1,79,-1
 957 658 l 1,80,-1
 950 648 l 1,81,-1
 943 644 l 1,82,83
 931 641 931 641 920 653 c 0,84,85
 914 660 914 660 908 672 c 2,86,-1
 901 687 l 2,87,88
 877 738 877 738 880 784 c 0,89,90
 880 788 880 788 881 793 c 0,91,92
 882 803 882 803 885 814 c 0,93,94
 897 861 897 861 942 882 c 0,95,96
 973 897 973 897 1015 893 c 0,97,98
 1024 893 1024 893 1033 891 c 0,99,100
 1074 885 1074 885 1105 856 c 0,101,102
 1119 844 1119 844 1124 830 c 0,103,104
 1130 815 1130 815 1118 809 c 0,105,106
 1110 804 1110 804 1098 808 c 0,107,108
 1092 810 1092 810 1084 814 c 0,67,68
461 701 m 0,109,110
 654 860 654 860 872 731 c 1,111,112
 898 718 898 718 923 698 c 0,113,114
 936 688 936 688 950 663 c 0,115,116
 958 651 958 651 953 648 c 0,117,118
 940 638 940 638 914 648 c 0,119,120
 901 652 901 652 884 662 c 0,121,122
 779 728 779 728 668 719 c 0,123,124
 650 717 l 0,125,126
 630 715 630 715 610 710 c 0,127,128
 553 697 553 697 493 661 c 0,129,130
 469 647 469 647 455 649 c 2,131,-1
 450 650 l 1,132,-1
 443 653 l 2,133,134
 431 659 431 659 438 673 c 0,135,136
 441 680 441 680 450 690 c 0,137,138
 455 696 455 696 461 701 c 0,109,110
988 216 m 1,139,140
 1021 267 1021 267 1022 307 c 1,141,-1
 1022 311 l 1,142,143
 1023 328 1023 328 1018 346 c 0,144,145
 1016 355 1016 355 1012 364 c 0,146,147
 1007 377 1007 377 998 391 c 0,148,149
 991 402 991 402 991 403 c 1,150,-1
 1041 441 l 1,151,152
 1086 377 1086 377 1090 334 c 1,153,-1
 1091 310 l 1,154,155
 1090 250 1090 250 1049 197 c 2,156,-1
 1034 177 l 1,157,-1
 988 216 l 1,139,140
700 133 m 1,158,159
 752 82 752 82 816 82 c 1,160,161
 868 84 868 84 923 131 c 1,162,-1
 961 90 l 1,163,164
 923 60 923 60 908 53 c 0,165,166
 866 33 866 33 815 33 c 0,167,168
 774 32 774 32 734 49 c 0,169,170
 714 58 714 58 694 71 c 0,171,172
 685 76 685 76 667 90 c 1,173,-1
 700 133 l 1,158,159
590 429 m 1,174,-1
 638 389 l 1,175,176
 609 359 609 359 611 312 c 0,177,178
 615 255 615 255 642 221 c 0,179,180
 639 225 639 225 637 228 c 2,181,-1
 646 217 l 1,182,-1
 591 193 l 1,183,184
 552 234 552 234 547 299 c 0,185,186
 546 304 546 304 546 315 c 0,187,188
 548 382 548 382 590 429 c 1,174,-1
698 483 m 1,189,-1
 666 525 l 1,190,191
 731 572 731 572 808 573 c 0,192,193
 833 574 833 574 864 565 c 0,194,195
 880 561 880 561 897 554 c 0,196,197
 922 544 922 544 951 529 c 2,198,-1
 959 525 l 1,199,-1
 927 481 l 1,200,201
 874 528 874 528 814 529 c 2,202,-1
 806 529 l 2,203,204
 761 528 761 528 718 497 c 2,205,-1
 698 483 l 1,189,-1
EndSplineSet
EndChar

StartChar: xokar
Encoding: 2891 2891 60
Width: 1377
GlyphClass: 2
Flags: W
LayerCount: 2
Fore
SplineSet
136 258 m 1,0,1
 141 153 141 153 208 90 c 0,2,3
 237 63 237 63 271 53 c 0,4,5
 330 36 330 36 373 65 c 0,6,7
 393 79 393 79 409 102 c 0,8,9
 431 133 431 133 425 181 c 0,10,11
 423 193 423 193 420 206 c 0,12,13
 405 263 405 263 361 300 c 0,14,15
 311 341 311 341 257 338 c 0,16,17
 255 338 255 338 252 338 c 0,18,19
 248 337 248 337 245 337 c 0,20,21
 149 323 149 323 136 258 c 1,0,1
490 144 m 0,22,23
 468 39 468 39 371 6 c 0,24,25
 355 0 355 0 315 0 c 0,26,27
 187 0 187 0 121 93 c 0,28,29
 111 107 111 107 101 123 c 0,30,31
 42 225 42 225 47 351 c 0,32,33
 48 358 48 358 48 366 c 0,34,35
 54 486 54 486 115 563 c 1,36,37
 117 567 117 567 120 570 c 0,38,39
 198 651 198 651 303 650 c 0,40,41
 370 650 370 650 421 620 c 0,42,43
 453 601 453 601 449 585 c 0,44,45
 448 583 448 583 446 581 c 0,46,47
 439 573 439 573 409 579 c 1,48,-1
 371 590 l 2,49,50
 328 602 328 602 293 599 c 0,51,52
 282 598 282 598 272 595 c 0,53,54
 248 589 248 589 226 576 c 0,55,56
 190 555 190 555 165 511 c 0,57,58
 117 431 117 431 122 338 c 0,59,60
 122 332 122 332 123 326 c 1,61,62
 165 380 165 380 227 389 c 0,63,64
 234 390 234 390 240 391 c 0,65,66
 277 396 277 396 314 390 c 0,67,68
 333 387 333 387 351 380 c 0,69,70
 414 359 414 359 452 306 c 0,71,72
 509 226 509 226 491 153 c 0,73,74
 491 149 491 149 490 144 c 0,22,23
1251 103 m 2,75,76
 1251 65 1251 65 1284 65 c 0,77,78
 1314 65 1314 65 1324 96 c 0,79,80
 1325 99 1325 99 1327 103 c 1,81,-1
 1325 70 l 1,82,83
 1323 62 l 0,84,85
 1320 53 1320 53 1316 45 c 0,86,87
 1308 32 1308 32 1299 22 c 1,88,89
 1277 1 1277 1 1243 0 c 0,90,91
 1202 -2 1202 -2 1186 27 c 0,92,93
 1177 41 1177 41 1174 61 c 0,94,95
 1172 85 1172 85 1172 89 c 2,96,-1
 1172 582 l 2,97,98
 1172 610 1172 610 1204 621 c 0,99,100
 1237 632 1237 632 1243 637 c 0,101,102
 1248 642 1248 642 1251 648 c 1,103,-1
 1251 103 l 2,75,76
988 216 m 1,104,105
 1021 267 1021 267 1022 307 c 1,106,-1
 1022 311 l 1,107,108
 1023 328 1023 328 1018 346 c 0,109,110
 1016 355 1016 355 1012 364 c 0,111,112
 1007 377 1007 377 998 391 c 0,113,114
 991 402 991 402 991 403 c 1,115,-1
 1041 441 l 1,116,117
 1086 377 1086 377 1090 334 c 1,118,-1
 1091 310 l 1,119,120
 1090 250 1090 250 1049 197 c 2,121,-1
 1034 177 l 1,122,-1
 988 216 l 1,104,105
700 133 m 1,123,124
 752 82 752 82 816 82 c 1,125,126
 868 84 868 84 923 131 c 1,127,-1
 961 90 l 1,128,129
 923 60 923 60 908 53 c 0,130,131
 866 33 866 33 815 33 c 0,132,133
 774 32 774 32 734 49 c 0,134,135
 714 58 714 58 694 71 c 0,136,137
 685 76 685 76 667 90 c 1,138,-1
 700 133 l 1,123,124
590 429 m 1,139,-1
 638 389 l 1,140,141
 609 359 609 359 611 312 c 0,142,143
 615 255 615 255 642 221 c 0,144,145
 639 225 639 225 637 228 c 2,146,-1
 646 217 l 1,147,-1
 591 193 l 1,148,149
 552 234 552 234 547 299 c 0,150,151
 546 304 546 304 546 315 c 0,152,153
 548 382 548 382 590 429 c 1,139,-1
698 483 m 1,154,-1
 666 525 l 1,155,156
 730 571 730 571 808 573 c 0,157,158
 835 574 835 574 865 566 c 0,159,160
 880 561 880 561 897 555 c 0,161,162
 936 539 936 539 951 530 c 2,163,-1
 959 525 l 1,164,-1
 927 481 l 1,165,166
 873 529 873 529 814 529 c 2,167,-1
 806 529 l 2,168,169
 764 529 764 529 718 497 c 2,170,-1
 698 483 l 1,154,-1
EndSplineSet
EndChar

StartChar: xoukar
Encoding: 2892 2892 61
Width: 1380
GlyphClass: 2
Flags: W
LayerCount: 2
Fore
SplineSet
136 258 m 1,0,1
 141 153 141 153 208 90 c 0,2,3
 237 63 237 63 271 53 c 0,4,5
 330 36 330 36 373 65 c 0,6,7
 393 79 393 79 409 102 c 0,8,9
 431 133 431 133 425 181 c 0,10,11
 423 193 423 193 420 206 c 0,12,13
 405 263 405 263 361 300 c 0,14,15
 311 341 311 341 257 338 c 0,16,17
 255 338 255 338 252 338 c 0,18,19
 248 337 248 337 245 337 c 0,20,21
 149 323 149 323 136 258 c 1,0,1
487 144 m 0,22,23
 475 27 475 27 364 5 c 0,24,25
 341 0 341 0 315 0 c 0,26,27
 192 0 192 0 121 93 c 0,28,29
 111 107 111 107 101 123 c 0,30,31
 42 216 42 216 47 351 c 0,32,33
 48 358 48 358 48 366 c 0,34,35
 55 482 55 482 115 563 c 0,36,37
 117 567 117 567 120 570 c 0,38,39
 189 647 189 647 303 650 c 1,40,41
 370 650 370 650 421 620 c 0,42,43
 454 600 454 600 449 585 c 0,44,45
 448 583 448 583 446 581 c 0,46,47
 439 573 439 573 409 579 c 1,48,-1
 371 590 l 2,49,50
 318 607 318 607 272 595 c 0,51,52
 248 589 248 589 226 576 c 0,53,54
 196 558 196 558 165 511 c 0,55,56
 114 433 114 433 121 343 c 0,57,58
 122 335 122 335 123 326 c 1,59,60
 161 375 161 375 227 389 c 0,61,62
 234 390 234 390 240 391 c 0,63,64
 277 396 277 396 314 390 c 0,65,66
 333 387 333 387 351 380 c 0,67,68
 414 359 414 359 452 306 c 0,69,70
 494 247 494 247 488 156 c 0,71,72
 488 150 488 150 487 144 c 0,22,23
1248 103 m 2,73,74
 1248 65 1248 65 1281 65 c 0,75,76
 1311 65 1311 65 1321 96 c 0,77,78
 1322 99 1322 99 1324 103 c 1,79,-1
 1322 70 l 1,80,81
 1320 62 l 0,82,83
 1317 53 1317 53 1313 45 c 0,84,85
 1306 32 1306 32 1296 22 c 0,86,87
 1274 1 1274 1 1240 0 c 0,88,89
 1200 -2 1200 -2 1183 27 c 0,90,91
 1174 41 1174 41 1171 61 c 0,92,93
 1169 85 1169 85 1169 89 c 2,94,-1
 1169 582 l 2,95,96
 1169 610 1169 610 1201 621 c 0,97,98
 1234 632 1234 632 1240 637 c 0,99,100
 1245 642 1245 642 1248 648 c 1,101,-1
 1248 103 l 2,73,74
954 691 m 0,102,103
 960 677 960 677 958 665 c 1,104,-1
 956 657 l 1,105,-1
 949 647 l 1,106,-1
 940 643 l 1,107,108
 928 640 928 640 917 654 c 0,109,110
 912 660 912 660 907 671 c 2,111,-1
 900 686 l 2,112,113
 874 739 874 739 878 785 c 0,114,115
 878 789 878 789 879 793 c 0,116,117
 880 803 880 803 883 813 c 0,118,119
 890 841 890 841 910 859 c 0,120,121
 961 906 961 906 1030 889 c 1,122,123
 1068 882 1068 882 1099 853 c 0,124,125
 1122 830 1122 830 1125 822 c 1,126,-1
 1125 809 l 1,127,-1
 1124 807 l 2,128,129
 1120 795 1120 795 1105 797 c 2,130,-1
 1101 798 l 1,131,-1
 1082 805 l 2,132,133
 1079 807 1079 807 1071 811 c 0,134,135
 1018 844 1018 844 987 830 c 0,136,137
 970 823 970 823 959 803 c 1,138,-1
 949 778 l 1,139,140
 943 754 943 754 944 731 c 0,141,142
 946 719 l 0,143,144
 948 705 948 705 954 691 c 0,102,103
461 701 m 0,145,146
 654 860 654 860 872 731 c 1,147,148
 898 718 898 718 923 698 c 0,149,150
 936 688 936 688 950 663 c 0,151,152
 958 651 958 651 953 648 c 0,153,154
 940 638 940 638 914 648 c 0,155,156
 901 652 901 652 884 662 c 0,157,158
 779 728 779 728 668 719 c 0,159,160
 650 717 l 0,161,162
 630 715 630 715 610 710 c 0,163,164
 553 697 553 697 493 661 c 0,165,166
 469 647 469 647 455 649 c 2,167,-1
 450 650 l 1,168,-1
 443 653 l 2,169,170
 431 659 431 659 438 673 c 0,171,172
 441 680 441 680 450 690 c 0,173,174
 455 696 455 696 461 701 c 0,145,146
988 216 m 1,175,176
 1021 267 1021 267 1022 307 c 1,177,-1
 1022 311 l 1,178,179
 1023 328 1023 328 1018 346 c 0,180,181
 1016 355 1016 355 1012 364 c 0,182,183
 1007 377 1007 377 998 391 c 0,184,185
 991 402 991 402 991 403 c 1,186,-1
 1041 441 l 1,187,188
 1086 377 1086 377 1090 334 c 1,189,-1
 1091 310 l 1,190,191
 1090 250 1090 250 1049 197 c 2,192,-1
 1034 177 l 1,193,-1
 988 216 l 1,175,176
700 133 m 1,194,195
 752 82 752 82 816 82 c 1,196,197
 868 84 868 84 923 131 c 1,198,-1
 961 90 l 1,199,200
 923 60 923 60 908 53 c 0,201,202
 866 33 866 33 815 33 c 0,203,204
 774 32 774 32 734 49 c 0,205,206
 714 58 714 58 694 71 c 0,207,208
 685 76 685 76 667 90 c 1,209,-1
 700 133 l 1,194,195
590 429 m 1,210,-1
 638 389 l 1,211,212
 609 359 609 359 611 312 c 0,213,214
 615 255 615 255 642 221 c 0,215,216
 639 225 639 225 637 228 c 2,217,-1
 646 217 l 1,218,-1
 591 193 l 1,219,220
 552 234 552 234 547 299 c 0,221,222
 546 304 546 304 546 315 c 0,223,224
 548 382 548 382 590 429 c 1,210,-1
698 483 m 1,225,-1
 666 525 l 1,226,227
 731 572 731 572 808 573 c 0,228,229
 833 574 833 574 864 565 c 0,230,231
 880 561 880 561 897 554 c 0,232,233
 922 544 922 544 951 529 c 2,234,-1
 959 525 l 1,235,-1
 927 481 l 1,236,237
 874 528 874 528 814 529 c 2,238,-1
 806 529 l 2,239,240
 761 528 761 528 718 497 c 2,241,-1
 698 483 l 1,225,-1
EndSplineSet
EndChar

StartChar: holonto
Encoding: 2893 2893 62
Width: 18
GlyphClass: 2
Flags: W
LayerCount: 2
Fore
SplineSet
-38 -50 m 1,0,-1
 73 -222 l 1,1,2
 89 -251 89 -251 75 -258 c 2,3,-1
 69 -261 l 2,4,5
 57 -267 57 -267 40 -252 c 1,6,-1
 23 -235 l 1,7,-1
 -110 -53 l 2,8,9
 -126 -30 -126 -30 -128 -16 c 1,10,-1
 -127 -4 l 1,11,12
 -126 -1 -126 -1 -124 2 c 0,13,14
 -112 16 -112 16 -93 13 c 1,15,-1
 -85 10 l 1,16,-1
 -79 6 l 2,17,18
 -66 -4 -66 -4 -38 -50 c 1,0,-1
EndSplineSet
EndChar

StartChar: xeikar.sign
Encoding: 2902 2902 63
Width: 774
GlyphClass: 2
Flags: W
LayerCount: 2
Fore
SplineSet
563 692 m 0,0,1
 569 678 569 678 567 666 c 1,2,-1
 565 658 l 1,3,-1
 558 648 l 1,4,-1
 549 644 l 1,5,6
 537 641 537 641 528 652 c 0,7,8
 522 658 522 658 517 670 c 2,9,-1
 509 687 l 2,10,11
 481 744 481 744 488 795 c 0,12,13
 489 806 489 806 492 816 c 0,14,15
 500 842 500 842 519 860 c 0,16,17
 570 906 570 906 639 890 c 0,18,19
 676 882 676 882 708 854 c 1,20,21
 732 830 732 830 734 823 c 1,22,-1
 734 810 l 1,23,-1
 733 808 l 2,24,25
 728 794 728 794 710 799 c 0,26,27
 702 800 702 800 691 806 c 0,28,29
 688 808 688 808 680 812 c 0,30,31
 627 845 627 845 596 831 c 0,32,33
 579 824 579 824 568 804 c 1,34,-1
 558 779 l 1,35,36
 552 755 552 755 553 732 c 0,37,38
 555 720 l 0,39,40
 557 706 557 706 563 692 c 0,0,1
69 703 m 0,41,42
 268 862 268 862 480 738 c 1,43,44
 513 720 513 720 529 705 c 0,45,46
 557 678 557 678 558 671 c 0,47,48
 563 651 563 651 561 650 c 0,49,50
 550 641 550 641 535 644 c 0,51,52
 529 645 529 645 523 648 c 0,53,54
 519 650 519 650 496 667 c 2,55,-1
 492 670 l 2,56,57
 384 751 384 751 239 727 c 0,58,59
 207 722 207 722 182 710 c 0,60,61
 136 690 136 690 101 663 c 0,62,63
 86 651 86 651 62 651 c 0,64,65
 60 651 60 651 58 652 c 0,66,67
 54 654 54 654 51 655 c 0,68,69
 39 661 39 661 46 675 c 0,70,71
 49 682 49 682 58 692 c 0,72,73
 63 698 63 698 69 703 c 0,41,42
596 217 m 1,74,75
 629 268 629 268 630 308 c 1,76,-1
 630 312 l 1,77,78
 632 351 632 351 606 393 c 1,79,-1
 600 405 l 1,80,-1
 649 443 l 1,81,82
 693 378 693 378 698 333 c 0,83,84
 699 326 699 326 699 312 c 0,85,86
 698 251 698 251 658 199 c 0,87,88
 644 181 644 181 642 179 c 1,89,-1
 596 217 l 1,74,75
309 135 m 1,90,91
 354 84 354 84 424 85 c 1,92,93
 483 84 483 84 531 132 c 1,94,-1
 569 92 l 1,95,96
 531 62 531 62 516 55 c 0,97,98
 474 36 474 36 423 33 c 1,99,100
 351 33 351 33 275 91 c 1,101,-1
 309 135 l 1,90,91
198 431 m 1,102,-1
 246 390 l 1,103,104
 217 361 217 361 219 313 c 1,105,106
 224 254 224 254 254 219 c 1,107,-1
 199 194 l 1,108,109
 158 238 158 238 154 305 c 1,110,-1
 154 316 l 1,111,112
 156 384 156 384 198 431 c 1,102,-1
306 484 m 1,113,-1
 274 527 l 1,114,115
 339 574 339 574 416 575 c 0,116,117
 474 575 474 575 562 530 c 0,118,119
 566 528 566 528 567 527 c 1,120,-1
 535 483 l 1,121,122
 484 528 484 528 422 528 c 2,123,-1
 414 528 l 2,124,125
 369 528 369 528 326 498 c 2,126,-1
 306 484 l 1,113,-1
EndSplineSet
EndChar

StartChar: xoukar.sign
Encoding: 2903 2903 64
Width: 972
GlyphClass: 2
Flags: W
LayerCount: 2
Fore
SplineSet
853 103 m 2,0,1
 853 65 853 65 886 65 c 0,2,3
 916 65 916 65 926 96 c 0,4,5
 927 99 927 99 929 103 c 1,6,-1
 927 70 l 1,7,8
 925 62 l 0,9,10
 922 53 922 53 918 45 c 0,11,12
 910 32 910 32 901 22 c 1,13,14
 879 1 879 1 845 0 c 0,15,16
 804 -2 804 -2 788 27 c 0,17,18
 779 41 779 41 776 61 c 0,19,20
 774 85 774 85 774 89 c 2,21,-1
 774 582 l 2,22,23
 774 610 774 610 806 621 c 0,24,25
 839 632 839 632 845 637 c 0,26,27
 850 642 850 642 853 648 c 1,28,-1
 853 103 l 2,0,1
566 691 m 0,29,30
 572 677 572 677 570 665 c 1,31,-1
 568 657 l 1,32,-1
 561 647 l 1,33,-1
 552 643 l 1,34,35
 540 640 540 640 529 654 c 0,36,37
 524 660 524 660 519 671 c 2,38,-1
 512 686 l 2,39,40
 486 739 486 739 490 785 c 0,41,42
 490 789 490 789 491 793 c 0,43,44
 492 803 492 803 495 813 c 0,45,46
 502 841 502 841 522 859 c 0,47,48
 567 900 567 900 623 892 c 0,49,50
 631 891 631 891 639 889 c 0,51,52
 680 881 680 881 711 853 c 1,53,54
 734 830 734 830 737 822 c 1,55,-1
 737 809 l 1,56,-1
 736 807 l 2,57,58
 731 793 731 793 713 798 c 0,59,60
 705 799 705 799 694 805 c 0,61,62
 691 807 691 807 683 811 c 0,63,64
 630 844 630 844 599 830 c 0,65,66
 582 823 582 823 571 803 c 1,67,-1
 561 778 l 1,68,69
 555 754 555 754 556 731 c 0,70,71
 558 719 l 0,72,73
 560 705 560 705 566 691 c 0,29,30
66 701 m 0,74,75
 260 860 260 860 477 731 c 1,76,77
 502 718 502 718 528 698 c 0,78,79
 541 688 541 688 555 663 c 0,80,81
 562 651 562 651 558 648 c 0,82,83
 545 638 545 638 519 648 c 0,84,85
 506 652 506 652 489 662 c 0,86,87
 384 728 384 728 273 719 c 0,88,89
 255 717 l 0,90,91
 235 715 235 715 215 710 c 0,92,93
 158 697 158 697 98 661 c 0,94,95
 74 646 74 646 59 649 c 0,96,97
 57 649 57 649 55 650 c 0,98,99
 51 652 51 652 48 653 c 0,100,101
 36 659 36 659 43 673 c 0,102,103
 46 680 46 680 55 690 c 0,104,105
 60 696 60 696 66 701 c 0,74,75
593 216 m 1,106,107
 626 267 626 267 627 307 c 1,108,-1
 627 311 l 1,109,110
 628 328 628 328 623 346 c 0,111,112
 621 355 621 355 617 364 c 0,113,114
 612 377 612 377 603 391 c 0,115,116
 596 402 596 402 596 403 c 1,117,-1
 646 441 l 1,118,119
 691 377 691 377 695 334 c 1,120,-1
 696 310 l 1,121,122
 695 250 695 250 654 197 c 2,123,-1
 639 177 l 1,124,-1
 593 216 l 1,106,107
305 133 m 1,125,126
 358 82 358 82 421 82 c 1,127,128
 473 84 473 84 528 131 c 1,129,-1
 566 90 l 1,130,131
 528 60 528 60 513 53 c 0,132,133
 471 33 471 33 420 33 c 0,134,135
 379 32 379 32 339 49 c 0,136,137
 319 58 319 58 299 71 c 0,138,139
 290 76 290 76 272 90 c 1,140,-1
 305 133 l 1,125,126
195 429 m 1,141,-1
 243 389 l 1,142,143
 214 359 214 359 216 312 c 0,144,145
 220 255 220 255 247 221 c 0,146,147
 244 225 244 225 242 228 c 2,148,-1
 251 217 l 1,149,-1
 196 193 l 1,150,151
 157 234 157 234 152 299 c 0,152,153
 151 304 151 304 151 315 c 0,154,155
 153 382 153 382 195 429 c 1,141,-1
303 483 m 1,156,-1
 271 525 l 1,157,158
 336 572 336 572 413 573 c 0,159,160
 438 574 438 574 469 565 c 0,161,162
 485 561 485 561 502 554 c 0,163,164
 527 544 527 544 556 529 c 2,165,-1
 564 525 l 1,166,-1
 532 481 l 1,167,168
 479 528 479 528 419 529 c 2,169,-1
 411 529 l 2,170,171
 366 528 366 528 323 497 c 2,172,-1
 303 483 l 1,156,-1
EndSplineSet
EndChar

StartChar: ddo_xnuk
Encoding: 2908 2908 65
Width: 768
GlyphClass: 3
Flags: W
LayerCount: 2
Fore
SplineSet
373 -94 m 0,0,1
 321 -96 321 -96 301 -129 c 0,2,3
 294 -140 294 -140 294 -155 c 0,4,5
 293 -173 293 -173 300 -186 c 2,6,-1
 308 -199 l 1,7,8
 315 -208 315 -208 327 -214 c 0,9,10
 346 -224 346 -224 373 -225 c 0,11,12
 415 -226 415 -226 439 -198 c 0,13,14
 454 -180 454 -180 453 -152 c 1,15,16
 448 -111 448 -111 403 -98 c 0,17,18
 391 -94 391 -94 373 -94 c 0,0,1
166 226 m 1,19,20
 62 261 62 261 45 372 c 0,21,22
 34 447 34 447 72 509 c 0,23,24
 90 539 90 539 121 567 c 0,25,26
 211 648 211 648 359 650 c 0,27,28
 414 651 414 651 461 644 c 0,29,30
 485 640 485 640 507 635 c 0,31,32
 538 627 538 627 564 616 c 0,33,34
 604 600 604 600 633 572 c 0,35,36
 717 493 717 493 722 364 c 0,37,38
 723 349 723 349 718 329 c 1,39,-1
 712 308 l 1,40,41
 707 293 707 293 700 276 c 0,42,43
 697 269 697 269 689 269 c 1,44,-1
 682 272 l 2,45,46
 675 276 675 276 676 291 c 0,47,48
 682 334 682 334 675 373 c 0,49,50
 671 394 671 394 663 414 c 0,51,52
 653 442 653 442 634 470 c 0,53,54
 577 554 577 554 478 581 c 0,55,56
 398 604 398 604 325 593 c 0,57,58
 288 588 288 588 254 575 c 0,59,60
 136 529 136 529 115 410 c 0,61,62
 103 340 103 340 156 301 c 0,63,64
 176 287 176 287 203 279 c 1,65,-1
 166 226 l 1,19,20
545 298 m 1,66,67
 641 270 641 270 640 192 c 1,68,69
 637 120 637 120 555 57 c 0,70,71
 482 0 482 0 392 0 c 0,72,73
 285 0 285 0 221 59 c 0,74,75
 158 116 158 116 150 160 c 0,76,77
 148 167 148 167 148 174 c 0,78,79
 147 194 147 194 151 214 c 0,80,81
 153 224 153 224 156 233 c 0,82,83
 161 247 161 247 168 260 c 0,84,85
 180 281 180 281 198 299 c 0,86,87
 234 335 234 335 282 364 c 0,88,89
 308 380 308 380 323 377 c 1,90,91
 332 371 332 371 328 357 c 0,92,93
 325 350 325 350 319 340 c 1,94,-1
 254 267 l 1,95,96
 232 228 232 228 233 190 c 1,97,-1
 234 185 l 1,98,-1
 234 184 l 1,99,100
 233 158 233 158 245 135 c 0,101,102
 250 123 250 123 259 113 c 0,103,104
 266 104 266 104 277 94 c 0,105,106
 325 49 325 49 383 46 c 0,107,108
 426 43 426 43 464 60 c 0,109,110
 483 68 483 68 501 81 c 0,111,112
 560 123 560 123 561 174 c 0,113,114
 562 190 562 190 557 204 c 0,115,116
 554 212 554 212 550 218 c 0,117,118
 544 227 544 227 536 235 c 1,119,-1
 515 249 l 1,120,-1
 501 256 l 1,121,-1
 450 212 l 1,122,123
 429 199 429 199 415 200 c 1,124,-1
 410 202 l 2,125,126
 397 210 397 210 399 225 c 0,127,128
 400 231 400 231 408 237 c 1,129,-1
 526 349 l 1,130,131
 541 360 541 360 557 357 c 0,132,133
 562 356 562 356 567 354 c 0,134,135
 576 350 576 350 573 336 c 0,136,137
 572 331 572 331 570 325 c 1,138,-1
 545 298 l 1,66,67
EndSplineSet
Ligature2: "'nukt' Nukta Forms in Oriya lookup 0 subtable" ddo xnuk
EndChar

StartChar: ddho_xnuk
Encoding: 2909 2909 66
Width: 719
GlyphClass: 3
Flags: W
LayerCount: 2
Fore
SplineSet
311 -94 m 0,0,1
 259 -96 259 -96 239 -129 c 0,2,3
 232 -140 232 -140 232 -155 c 0,4,5
 231 -173 231 -173 238 -186 c 2,6,-1
 246 -199 l 1,7,8
 253 -208 253 -208 265 -214 c 0,9,10
 284 -224 284 -224 311 -225 c 0,11,12
 353 -226 353 -226 377 -198 c 0,13,14
 392 -180 392 -180 391 -152 c 1,15,16
 386 -111 386 -111 341 -98 c 0,17,18
 329 -94 329 -94 311 -94 c 0,0,1
161 236 m 1,19,20
 66 270 66 270 49 380 c 0,21,22
 39 455 39 455 73 514 c 0,23,24
 90 545 90 545 119 572 c 0,25,26
 201 648 201 648 340 650 c 0,27,28
 419 651 419 651 477 637 c 0,29,30
 507 630 507 630 531 619 c 0,31,32
 569 602 569 602 594 577 c 0,33,34
 672 499 672 499 677 372 c 0,35,36
 678 349 678 349 668 318 c 1,37,-1
 657 286 l 1,38,39
 654 279 654 279 647 279 c 1,40,-1
 640 282 l 2,41,42
 632 286 632 286 634 300 c 0,43,44
 637 328 637 328 635 355 c 0,45,46
 634 369 634 369 632 382 c 0,47,48
 629 402 629 402 622 421 c 0,49,50
 611 452 611 452 595 476 c 0,51,52
 542 559 542 559 450 586 c 0,53,54
 339 618 339 618 243 580 c 0,55,56
 131 534 131 534 112 417 c 0,57,58
 105 372 105 372 116 342 c 0,59,60
 121 326 121 326 132 314 c 0,61,62
 148 297 148 297 176 288 c 1,63,-1
 161 236 l 1,19,20
445 -33 m 2,64,65
 330 45 330 45 310 99 c 0,66,67
 291 153 291 153 293 198 c 0,68,69
 294 202 294 202 294 206 c 1,70,-1
 298 227 l 1,71,72
 305 254 305 254 322 280 c 0,73,74
 363 342 363 342 451 341 c 0,75,76
 535 339 535 339 566 277 c 0,77,78
 588 233 588 233 583 192 c 0,79,80
 581 180 l 0,81,82
 576 156 576 156 561 133 c 0,83,84
 539 99 539 99 497 66 c 1,85,86
 398 -8 398 -8 296 0 c 0,87,88
 289 0 289 0 285 1 c 0,89,90
 115 18 115 18 103 178 c 0,91,92
 100 223 100 223 117 262 c 0,93,94
 126 283 126 283 141 303 c 0,95,96
 166 335 166 335 197 359 c 0,97,98
 238 390 238 390 257 386 c 0,99,100
 279 382 279 382 276 370 c 1,101,-1
 274 366 l 1,102,-1
 261 353 l 1,103,-1
 254 348 l 2,104,105
 189 301 189 301 174 230 c 0,106,107
 168 201 168 201 170 177 c 0,108,109
 171 167 171 167 173 157 c 0,110,111
 177 141 177 141 185 127 c 0,112,113
 196 106 196 106 217 89 c 0,114,115
 272 46 272 46 337 52 c 0,116,117
 351 54 l 0,118,119
 367 57 367 57 384 63 c 0,120,121
 504 105 504 105 515 204 c 0,122,123
 517 224 517 224 513 240 c 0,124,125
 511 248 511 248 507 254 c 0,126,127
 501 264 501 264 491 271 c 0,128,129
 478 280 478 280 453 283 c 0,130,131
 405 288 405 288 380 259 c 0,132,133
 368 244 368 244 361 221 c 0,134,135
 353 192 353 192 355 165 c 0,136,137
 355 159 355 159 356 153 c 0,138,139
 358 136 358 136 365 119 c 0,140,141
 400 27 400 27 461 7 c 1,142,-1
 480 -16 l 1,143,144
 471 -40 471 -40 452 -37 c 1,145,-1
 445 -33 l 2,64,65
EndSplineSet
Ligature2: "'nukt' Nukta Forms in Oriya lookup 0 subtable" ddho xnuk
EndChar

StartChar: yo
Encoding: 2911 2911 67
Width: 885
GlyphClass: 2
Flags: W
LayerCount: 2
Fore
SplineSet
664 -23 m 1,0,1
 730 6 730 6 748 53 c 0,2,3
 754 69 754 69 742 106 c 0,4,5
 740 112 740 112 725 123 c 0,6,7
 696 142 696 142 670 138 c 0,8,9
 666 138 666 138 663 137 c 2,10,-1
 643 129 l 1,11,-1
 639 127 l 2,12,13
 619 113 619 113 603 87 c 0,14,15
 561 18 561 18 495 0 c 0,16,17
 417 -22 417 -22 347 -3 c 0,18,19
 302 9 302 9 271 38 c 0,20,21
 220 86 220 86 222 160 c 0,22,23
 223 191 223 191 245 220 c 1,24,-1
 138 150 l 1,25,26
 171 132 171 132 171 101 c 0,27,28
 171 64 171 64 148 49 c 1,29,-1
 129 42 l 2,30,31
 124 40 124 40 116 40 c 0,32,33
 73 37 73 37 57 62 c 0,34,35
 48 76 48 76 47 98 c 0,36,37
 46 121 46 121 55 140 c 0,38,39
 60 150 60 150 68 159 c 0,40,41
 81 174 81 174 99 185 c 2,42,-1
 229 265 l 1,43,44
 116 282 116 282 91 370 c 0,45,46
 84 395 84 395 85 416 c 0,47,48
 91 560 91 560 234 620 c 0,49,50
 315 654 315 654 387 654 c 1,51,52
 477 657 477 657 564 600 c 0,53,54
 629 557 629 557 659 507 c 1,55,-1
 670 483 l 1,56,-1
 671 479 l 1,57,-1
 671 409 l 1,58,59
 631 487 631 487 577 534 c 0,60,61
 553 555 553 555 524 574 c 0,62,63
 472 608 472 608 378 608 c 0,64,65
 371 608 371 608 364 607 c 0,66,67
 280 599 280 599 221 547 c 128,-1,68
 162 495 162 495 166 420 c 0,69,70
 166 414 l 0,71,72
 172 345 172 345 229 319 c 0,73,74
 253 308 253 308 277 310 c 0,75,76
 281 310 281 310 285 311 c 0,77,78
 296 313 296 313 308 317 c 2,79,-1
 364 337 l 2,80,81
 375 341 375 341 387 341 c 0,82,83
 391 341 391 341 394 338 c 0,84,85
 396 336 396 336 396 331 c 0,86,87
 395 328 395 328 393 325 c 2,88,-1
 386 315 l 1,89,90
 377 306 377 306 336 270 c 0,91,92
 296 233 296 233 296 175 c 2,93,-1
 296 170 l 1,94,-1
 296 164 l 1,95,96
 308 46 308 46 420 46 c 0,97,98
 513 46 513 46 547 102 c 1,99,-1
 570 146 l 1,100,101
 623 220 623 220 698 216 c 0,102,103
 704 216 l 0,104,105
 828 205 828 205 818 82 c 0,106,107
 812 14 812 14 724 -45 c 1,108,109
 707 -54 707 -54 707 -56 c 0,110,111
 706 -66 706 -66 722 -74 c 1,112,-1
 768 -107 l 1,113,114
 787 -124 787 -124 790 -132 c 0,115,116
 792 -137 792 -137 790 -141 c 0,117,118
 789 -143 789 -143 786 -146 c 2,119,-1
 780 -150 l 2,120,121
 771 -154 771 -154 760 -152 c 2,122,-1
 748 -148 l 1,123,-1
 654 -86 l 2,124,125
 635 -73 635 -73 631 -63 c 0,126,127
 622 -38 622 -38 664 -23 c 1,0,1
663 154 m 1,128,-1
 663 584 l 2,129,130
 663 612 663 612 695 623 c 0,131,132
 726 633 726 633 734 639 c 0,133,134
 739 644 739 644 742 650 c 1,135,-1
 742 154 l 1,136,-1
 663 154 l 1,128,-1
EndSplineSet
EndChar

StartChar: xrru
Encoding: 2912 2912 68
Width: 820
GlyphClass: 2
Flags: W
LayerCount: 2
Fore
SplineSet
308 290 m 4,0,1
 251 291 251 291 221 236 c 4,2,3
 203 204 203 204 204 164 c 4,4,5
 207 105 207 105 252 73 c 4,6,7
 280 54 280 54 312 56 c 4,8,9
 366 60 366 60 390 116 c 4,10,11
 400 141 400 141 400 168 c 4,12,13
 401 227 401 227 367 264 c 5,14,15
 342 289 342 289 308 290 c 4,0,1
308 336 m 4,16,17
 393 336 393 336 446 274 c 4,18,19
 482 232 482 232 484 176 c 4,20,21
 486 121 486 121 457 79 c 4,22,23
 443 58 443 58 420 40 c 4,24,25
 373 2 373 2 312 0 c 4,26,27
 228 -3 228 -3 171 58 c 4,28,29
 128 105 128 105 127 168 c 4,30,31
 126 249 126 249 196 300 c 4,32,33
 246 336 246 336 308 336 c 4,16,17
660 187 m 1,34,35
 777 162 777 162 775 93 c 1,36,37
 770 42 770 42 654 10 c 0,38,39
 626 3 626 3 630 -19 c 0,40,41
 632 -25 l 0,42,43
 637 -37 637 -37 649 -53 c 2,44,-1
 709 -131 l 1,45,46
 711 -141 711 -141 706 -146 c 2,47,-1
 699 -151 l 2,48,49
 693 -154 693 -154 681 -153 c 2,50,-1
 643 -146 l 2,51,52
 640 -146 640 -146 638 -145 c 0,53,54
 622 -141 622 -141 605 -103 c 0,55,56
 573 -30 573 -30 576 3 c 0,57,58
 577 10 577 10 580 12 c 0,59,60
 626 35 626 35 653 43 c 0,61,62
 688 54 688 54 702 84 c 0,63,64
 705 92 705 92 705 98 c 0,65,66
 703 134 703 134 630 155 c 2,67,-1
 626 156 l 2,68,69
 602 164 602 164 601 174 c 0,70,71
 601 177 601 177 603 179 c 0,72,73
 609 187 609 187 617 191 c 0,74,75
 656 214 656 214 670 227 c 0,76,77
 699 256 699 256 693 287 c 0,78,79
 685 328 685 328 623 333 c 1,80,-1
 607 333 l 1,81,82
 639 389 639 389 644 406 c 0,83,84
 650 425 650 425 648 444 c 0,85,86
 647 452 647 452 645 460 c 0,87,88
 617 569 617 569 458 594 c 0,89,90
 420 600 420 600 380 600 c 0,91,92
 233 600 233 600 161 523 c 0,93,94
 116 474 116 474 116 404 c 0,95,96
 116 324 116 324 191 270 c 0,97,98
 195 267 195 267 200 264 c 1,99,-1
 154 228 l 1,100,101
 78 267 78 267 52 348 c 0,102,103
 44 374 44 374 44 400 c 0,104,105
 43 497 43 497 93 556 c 0,106,107
 173 650 173 650 383 650 c 128,-1,108
 593 650 593 650 684 549 c 0,109,110
 719 509 719 509 719 478 c 0,111,112
 719 407 719 407 663 359 c 1,113,114
 745 346 745 346 756 292 c 128,-1,115
 767 238 767 238 681 196 c 1,116,-1
 660 187 l 1,34,35
EndSplineSet
EndChar

StartChar: uni0B61
Encoding: 2913 2913 69
Width: 732
GlyphClass: 2
Flags: W
LayerCount: 2
Fore
SplineSet
537 -90 m 1,0,1
 561 -111 561 -111 587 -108 c 0,2,3
 590 -108 590 -108 593 -107 c 2,4,-1
 605 -104 l 2,5,6
 630 -96 630 -96 653 -81 c 1,7,8
 668 -65 668 -65 678 -68 c 2,9,-1
 682 -70 l 2,10,11
 688 -73 688 -73 691 -84 c 0,12,13
 694 -94 694 -94 684 -108 c 0,14,15
 678 -116 678 -116 668 -126 c 0,16,17
 635 -156 635 -156 606 -165 c 0,18,19
 584 -172 584 -172 560 -170 c 0,20,21
 548 -168 548 -168 536 -164 c 0,22,23
 533 -163 533 -163 531 -162 c 0,24,25
 512 -152 512 -152 499 -141 c 0,26,27
 404 -56 404 -56 304 76 c 0,28,29
 306 73 306 73 319 74 c 0,30,31
 325 74 325 74 333 75 c 0,32,33
 346 76 346 76 366 81 c 1,34,-1
 537 -90 l 1,0,1
419 210 m 0,35,36
 388 208 388 208 365 192 c 0,37,38
 339 174 339 174 338 143 c 0,39,40
 337 131 337 131 341 119 c 0,41,42
 344 113 344 113 347 108 c 0,43,44
 352 100 352 100 360 92 c 0,45,46
 388 65 388 65 419 65 c 128,-1,47
 450 65 450 65 479 92 c 0,48,49
 504 114 504 114 504 143 c 0,50,51
 504 173 504 173 479 192 c 0,52,53
 452 213 452 213 419 210 c 0,35,36
227 434 m 0,54,55
 220 433 220 433 213 438 c 0,56,57
 209 441 209 441 204 446 c 0,58,59
 197 453 197 453 189 464 c 0,60,61
 165 500 165 500 160 531 c 0,62,63
 158 546 158 546 160 560 c 0,64,65
 164 574 l 0,66,67
 168 584 168 584 174 593 c 0,68,69
 187 610 187 610 200 618 c 0,70,71
 246 650 246 650 319 650 c 0,72,73
 404 650 404 650 459 615 c 0,74,75
 518 578 518 578 517 525 c 0,76,77
 516 466 516 466 454 429 c 0,78,79
 356 373 356 373 291 346 c 0,80,81
 137 280 137 280 135 206 c 0,82,83
 134 185 134 185 140 166 c 0,84,85
 143 156 143 156 147 147 c 0,86,87
 154 134 154 134 164 122 c 0,88,89
 180 104 180 104 203 88 c 0,90,91
 260 49 260 49 324 51 c 0,92,93
 328 51 l 2,94,-1
 333 51 l 1,95,96
 284 77 284 77 275 135 c 1,97,-1
 274 161 l 1,98,99
 274 163 274 163 274 164 c 0,100,101
 280 209 280 209 318 234 c 0,102,103
 322 237 322 237 326 239 c 0,104,105
 372 264 372 264 423 263 c 2,106,-1
 427 263 l 2,107,108
 487 260 487 260 533 227 c 0,109,110
 580 194 580 194 580 145 c 0,111,112
 578 95 578 95 508 50 c 0,113,114
 444 7 444 7 360 0 c 0,115,116
 271 -9 271 -9 201 15 c 0,117,118
 166 27 166 27 135 47 c 0,119,120
 38 109 38 109 44 194 c 0,121,122
 45 198 45 198 45 201 c 1,123,-1
 47 213 l 2,124,125
 61 294 61 294 210 354 c 0,126,127
 360 414 360 414 394 450 c 0,128,129
 424 480 424 480 423 520 c 1,130,-1
 423 525 l 1,131,132
 420 562 420 562 392 581 c 0,133,134
 362 602 362 602 315 601 c 0,135,136
 255 599 255 599 238 575 c 0,137,138
 220 550 220 550 221 522 c 0,139,140
 223 491 223 491 236 472 c 0,141,142
 248 455 248 455 245 445 c 1,143,-1
 243 441 l 1,144,-1
 232 435 l 2,145,146
 231 434 231 434 227 434 c 0,54,55
EndSplineSet
EndChar

StartChar: xzero
Encoding: 2918 2918 70
Width: 800
GlyphClass: 2
Flags: W
LayerCount: 2
Fore
SplineSet
394 597 m 0,0,1
 282 596 282 596 207 505 c 0,2,3
 141 424 141 424 143 314 c 0,4,5
 146 202 146 202 225 127 c 0,6,7
 298 57 298 57 396 60 c 0,8,9
 509 63 509 63 582 150 c 0,10,11
 643 223 643 223 644 320 c 0,12,13
 645 397 645 397 612 459 c 0,14,15
 596 491 596 491 570 519 c 0,16,17
 498 598 498 598 394 597 c 0,0,1
390 650 m 0,18,19
 533 650 533 650 637 562 c 0,20,21
 746 470 746 470 748 332 c 0,22,23
 749 240 749 240 704 167 c 0,24,25
 681 130 681 130 647 98 c 1,26,-1
 611 69 l 1,27,28
 518 2 518 2 400 0 c 0,29,30
 261 -2 261 -2 157 85 c 0,31,32
 51 175 51 175 45 309 c 1,33,-1
 45 316 l 1,34,35
 43 408 43 408 86 482 c 0,36,37
 107 520 107 520 140 552 c 0,38,39
 239 649 239 649 390 650 c 0,18,19
EndSplineSet
EndChar

StartChar: xek
Encoding: 2919 2919 71
Width: 532
GlyphClass: 2
Flags: W
LayerCount: 2
Fore
SplineSet
363 579 m 1,0,1
 319 618 319 618 246 613 c 0,2,3
 241 613 241 613 221 608 c 0,4,5
 134 587 134 587 120 492 c 0,6,7
 112 434 112 434 134 394 c 0,8,9
 145 373 145 373 164 358 c 0,10,11
 205 325 205 325 262 326 c 0,12,13
 334 327 334 327 380 380 c 0,14,15
 412 416 412 416 407 480 c 0,16,17
 402 542 402 542 363 579 c 1,0,1
379 4 m 1,18,19
 334 23 334 23 261 79 c 0,20,21
 136 176 136 176 91 268 c 1,22,23
 45 367 45 367 48 440 c 1,24,-1
 48 445 l 1,25,26
 54 548 54 548 119 603 c 0,27,28
 174 650 174 650 267 650 c 0,29,30
 313 651 313 651 350 641 c 0,31,32
 368 636 368 636 384 628 c 0,33,34
 412 615 412 615 435 587 c 0,35,36
 478 536 478 536 482 471 c 0,37,38
 483 446 483 446 478 424 c 0,39,40
 475 413 475 413 471 403 c 0,41,42
 468 395 468 395 455 374 c 0,43,44
 443 356 443 356 417 334 c 0,45,46
 366 292 366 292 278 286 c 2,47,-1
 273 286 l 1,48,-1
 266 286 l 2,49,50
 198 286 198 286 140 332 c 1,51,52
 139 313 139 313 152 284 c 1,53,-1
 155 276 l 1,54,-1
 169 252 l 1,55,56
 217 176 217 176 313 97 c 2,57,-1
 357 62 l 1,58,-1
 405 33 l 1,59,60
 426 4 426 4 393 3 c 1,61,-1
 379 4 l 1,18,19
EndSplineSet
EndChar

StartChar: xdui
Encoding: 2920 2920 72
Width: 494
GlyphClass: 2
Flags: W
LayerCount: 2
Fore
SplineSet
242 607 m 2,0,1
 172 606 172 606 132 550 c 0,2,3
 108 516 108 516 107 474 c 0,4,5
 106 404 106 404 163 362 c 0,6,7
 198 336 198 336 243 335 c 0,8,9
 290 334 290 334 325 356 c 0,10,11
 342 368 342 368 357 385 c 0,12,13
 387 421 387 421 388 466 c 0,14,15
 389 538 389 538 331 580 c 0,16,17
 295 605 295 605 250 607 c 2,18,-1
 242 607 l 2,0,1
342 253 m 0,19,20
 369 292 369 292 371 332 c 1,21,22
 322 289 322 289 250 288 c 0,23,24
 226 287 226 287 205 291 c 0,25,26
 194 292 194 292 184 295 c 0,27,28
 167 300 167 300 152 307 c 0,29,30
 125 320 125 320 108 333 c 0,31,32
 48 379 48 379 42 470 c 0,33,34
 40 503 40 503 50 531 c 0,35,36
 55 547 55 547 64 561 c 0,37,38
 78 582 78 582 97 600 c 0,39,40
 151 648 151 648 243 650 c 0,41,42
 329 650 329 650 387 603 c 0,43,44
 450 551 450 551 452 446 c 0,45,46
 453 393 453 393 438 339 c 0,47,48
 428 302 428 302 411 266 c 0,49,50
 369 176 369 176 256 79 c 0,51,52
 195 28 195 28 137 4 c 0,53,54
 128 0 128 0 121 2 c 0,55,56
 113 5 113 5 111 13 c 0,57,58
 107 32 107 32 131 49 c 0,59,60
 135 51 135 51 140 54 c 0,61,62
 237 115 237 115 320 223 c 0,63,64
 332 238 332 238 342 253 c 0,19,20
EndSplineSet
EndChar

StartChar: xtin
Encoding: 2921 2921 73
Width: 814
GlyphClass: 2
Flags: W
LayerCount: 2
Fore
SplineSet
358 639 m 0,0,1
 414 614 414 614 436 586 c 0,2,3
 477 531 477 531 477 445 c 2,4,-1
 477 71 l 2,5,6
 477 2 477 2 441 2 c 0,7,8
 408 2 408 2 408 73 c 2,9,-1
 408 375 l 1,10,-1
 408 443 l 2,11,12
 408 509 408 509 340 562 c 0,13,14
 299 595 299 595 247 591 c 0,15,16
 243 591 243 591 239 590 c 2,17,-1
 225 588 l 2,18,19
 159 574 159 574 124 520 c 0,20,21
 92 472 92 472 94 410 c 0,22,23
 94 407 94 407 94 405 c 2,24,-1
 94 398 l 2,25,26
 94 391 94 391 95 387 c 0,27,28
 105 276 105 276 174 262 c 0,29,30
 197 257 197 257 214 262 c 0,31,32
 223 265 223 265 230 270 c 0,33,34
 240 278 240 278 247 292 c 0,35,36
 262 322 262 322 259 349 c 0,37,38
 259 353 259 353 258 357 c 0,39,40
 256 370 256 370 252 380 c 0,41,42
 240 413 240 413 242 434 c 0,43,44
 243 439 243 439 248 444 c 0,45,46
 262 458 262 458 275 441 c 0,47,48
 297 412 297 412 307 351 c 0,49,50
 311 332 311 332 310 316 c 0,51,52
 310 310 l 0,53,54
 310 305 310 305 309 301 c 0,55,56
 307 288 307 288 303 278 c 0,57,58
 278 211 278 211 204 208 c 0,59,60
 172 207 172 207 145 218 c 0,61,62
 131 223 131 223 119 232 c 0,63,64
 102 244 102 244 87 264 c 0,65,66
 64 296 64 296 51 342 c 0,67,68
 21 442 21 442 63 543 c 0,69,70
 92 612 92 612 174 639 c 0,71,72
 239 660 239 660 291 656 c 0,73,74
 297 656 297 656 304 655 c 0,75,76
 333 651 333 651 358 639 c 0,0,1
407 445 m 2,77,78
 407 533 407 533 448 586 c 0,79,80
 509 664 509 664 574 651 c 0,81,82
 582 649 582 649 590 646 c 0,83,84
 625 633 625 633 662 590 c 0,85,86
 703 543 703 543 703 451 c 2,87,-1
 703 139 l 2,88,89
 703 88 703 88 732 88 c 0,90,91
 760 88 760 88 767 130 c 0,92,93
 768 135 768 135 772 139 c 1,94,95
 772 97 772 97 761 62 c 0,96,97
 755 44 755 44 745 32 c 1,98,99
 727 4 727 4 695 2 c 0,100,101
 657 -1 657 -1 642 36 c 0,102,103
 635 55 635 55 633 84 c 0,104,105
 632 96 632 96 632 120 c 2,106,-1
 632 375 l 1,107,-1
 632 443 l 2,108,109
 632 560 632 560 554 561 c 0,110,111
 503 562 503 562 486 508 c 0,112,113
 478 482 478 482 478 443 c 2,114,-1
 478 375 l 1,115,-1
 478 73 l 2,116,117
 478 2 478 2 444 2 c 0,118,119
 407 2 407 2 407 71 c 2,120,-1
 407 445 l 2,77,78
EndSplineSet
EndChar

StartChar: xcar
Encoding: 2922 2922 74
Width: 670
GlyphClass: 2
Flags: W
LayerCount: 2
Fore
SplineSet
627 616 m 1,0,1
 600 530 600 530 468 439 c 0,2,3
 438 418 438 418 395 394 c 1,4,-1
 457 343 l 1,5,6
 555 254 555 254 553 180 c 0,7,8
 549 92 549 92 471 39 c 0,9,10
 416 0 416 0 345 0 c 0,11,12
 210 0 210 0 164 93 c 0,13,14
 144 135 144 135 145 190 c 0,15,16
 147 249 147 249 204 314 c 0,17,18
 243 357 243 357 301 390 c 1,19,20
 191 433 191 433 105 523 c 0,21,22
 45 586 45 586 42 620 c 0,23,24
 40 640 40 640 60 650 c 0,25,26
 79 659 79 659 94 642 c 0,27,28
 102 633 102 633 110 618 c 0,29,30
 139 558 139 558 220 491 c 0,31,32
 303 421 303 421 346 417 c 1,33,-1
 394 441 l 1,34,35
 472 488 472 488 528 571 c 0,36,37
 542 592 542 592 553 614 c 0,38,39
 567 643 567 643 595 650 c 0,40,41
 613 654 613 654 623 645 c 0,42,43
 628 640 628 640 629 631 c 1,44,-1
 627 616 l 1,0,1
345 367 m 1,45,46
 256 320 256 320 225 251 c 0,47,48
 208 214 208 214 213 176 c 0,49,50
 222 108 222 108 285 76 c 0,51,52
 315 62 315 62 347 62 c 0,53,54
 375 61 375 61 400 71 c 0,55,56
 413 76 413 76 424 83 c 0,57,58
 440 94 440 94 455 111 c 0,59,60
 480 139 480 139 483 172 c 0,61,62
 486 207 486 207 471 240 c 0,63,64
 464 257 464 257 451 274 c 0,65,66
 432 299 432 299 402 324 c 1,67,-1
 345 367 l 1,45,46
EndSplineSet
EndChar

StartChar: xpach
Encoding: 2923 2923 75
Width: 655
GlyphClass: 2
Flags: W
LayerCount: 2
Fore
SplineSet
285 361 m 1,0,-1
 342 344 l 1,1,2
 554 315 554 315 600 249 c 0,3,4
 615 226 615 226 615 206 c 0,5,6
 615 190 615 190 611 182 c 0,7,8
 607 176 607 176 605 174 c 1,9,-1
 601 174 l 1,10,-1
 600 175 l 2,11,12
 598 177 598 177 595 181 c 0,13,14
 589 187 589 187 585 196 c 1,15,16
 567 226 567 226 535 243 c 0,17,18
 437 296 437 296 312 308 c 1,19,-1
 254 324 l 1,20,21
 106 358 106 358 59 437 c 0,22,23
 41 469 41 469 44 487 c 1,24,-1
 46 493 l 2,25,26
 49 500 49 500 54 500 c 0,27,28
 69 500 69 500 73 490 c 0,29,30
 86 460 86 460 90 456 c 0,31,32
 156 390 156 390 285 361 c 1,0,-1
317 304 m 1,33,34
 213 258 213 258 190 172 c 0,35,36
 174 112 174 112 223 67 c 0,37,38
 274 20 274 20 340 67 c 0,39,40
 388 100 388 100 386 163 c 0,41,42
 382 230 382 230 317 304 c 1,33,34
321 353 m 1,43,44
 411 398 411 398 436 462 c 0,45,46
 446 488 446 488 444 512 c 0,47,48
 444 515 444 515 444 517 c 0,49,50
 443 526 443 526 440 535 c 0,51,52
 436 551 436 551 423 567 c 0,53,54
 381 620 381 620 328 609 c 0,55,56
 321 608 321 608 313 605 c 0,57,58
 258 584 258 584 246 516 c 0,59,60
 237 462 237 462 273 408 c 0,61,62
 291 381 291 381 321 353 c 1,43,44
286 336 m 1,63,64
 179 426 179 426 184 518 c 1,65,-1
 184 523 l 2,66,67
 184 528 184 528 185 531 c 0,68,69
 195 596 195 596 263 634 c 0,70,71
 312 661 312 661 371 652 c 0,72,73
 457 638 457 638 485 588 c 0,74,75
 509 547 509 547 501 502 c 0,76,77
 497 478 497 478 484 453 c 0,78,79
 441 369 441 369 353 323 c 1,80,81
 384 286 384 286 413 233 c 0,82,83
 448 172 448 172 443 125 c 0,84,85
 443 120 443 120 442 117 c 0,86,87
 419 -13 419 -13 293 -2 c 0,88,89
 287 -1 287 -1 280 0 c 2,90,-1
 255 2 l 1,91,92
 121 30 121 30 126 152 c 1,93,-1
 126 157 l 1,94,95
 128 206 128 206 190 269 c 0,96,97
 220 299 220 299 286 336 c 1,63,64
EndSplineSet
EndChar

StartChar: xcha
Encoding: 2924 2924 76
Width: 670
GlyphClass: 2
Flags: W
LayerCount: 2
Fore
SplineSet
156 0 m 0,0,1
 117 0 117 0 63 14 c 1,2,3
 38 22 38 22 45 41 c 0,4,5
 46 43 46 43 61 43 c 0,6,7
 66 42 66 42 74 42 c 0,8,9
 89 40 89 40 110 39 c 2,10,-1
 165 37 l 1,11,12
 187 39 l 0,13,14
 215 42 215 42 242 49 c 0,15,16
 279 60 279 60 316 76 c 0,17,18
 422 124 422 124 482 204 c 0,19,20
 541 282 541 282 550 370 c 0,21,22
 558 453 558 453 529 505 c 0,23,24
 514 534 514 534 487 555 c 0,25,26
 429 600 429 600 363 595 c 0,27,28
 355 594 355 594 348 593 c 0,29,30
 245 577 245 577 245 504 c 1,31,32
 247 461 247 461 310 439 c 0,33,34
 392 410 392 410 399 340 c 0,35,36
 402 308 402 308 388 282 c 0,37,38
 380 268 380 268 368 257 c 0,39,40
 349 239 349 239 320 227 c 0,41,42
 287 213 287 213 251 216 c 0,43,44
 245 216 245 216 239 217 c 0,45,46
 218 220 218 220 198 227 c 0,47,48
 163 239 163 239 133 259 c 0,49,50
 106 278 106 278 76 320 c 0,51,52
 67 332 67 332 70 342 c 0,53,54
 72 345 72 345 81 347 c 0,55,56
 87 348 87 348 95 344 c 0,57,58
 98 342 98 342 102 340 c 0,59,60
 108 336 108 336 116 330 c 0,61,62
 191 265 191 265 264 272 c 0,63,64
 270 273 270 273 275 274 c 0,65,66
 286 276 286 276 298 280 c 0,67,68
 344 295 344 295 344 332 c 1,69,70
 339 387 339 387 259 413 c 0,71,72
 194 434 194 434 191 500 c 0,73,74
 190 544 190 544 215 578 c 0,75,76
 228 595 228 595 253 613 c 0,77,78
 331 669 331 669 418 656 c 0,79,80
 433 654 433 654 448 650 c 0,81,82
 491 639 491 639 531 611 c 0,83,84
 624 546 624 546 616 392 c 0,85,86
 616 384 616 384 615 375 c 0,87,88
 602 241 602 241 497 136 c 1,89,90
 364 0 364 0 156 0 c 0,0,1
EndSplineSet
EndChar

StartChar: xsat
Encoding: 2925 2925 77
Width: 650
GlyphClass: 2
Flags: W
LayerCount: 2
Fore
SplineSet
540 372 m 0,0,1
 541 414 541 414 529 450 c 0,2,3
 522 470 522 470 512 488 c 0,4,5
 494 516 494 516 472 538 c 0,6,7
 413 597 413 597 336 593 c 0,8,9
 332 593 332 593 329 593 c 0,10,11
 324 593 324 593 318 592 c 0,12,13
 240 582 240 582 176 498 c 0,14,15
 137 447 137 447 152 372 c 0,16,17
 164 312 164 312 201 287 c 1,18,19
 183 315 183 315 185 345 c 0,20,21
 185 347 185 347 185 350 c 0,22,23
 186 356 186 356 188 362 c 0,24,25
 200 405 200 405 242 424 c 0,26,27
 270 438 270 438 298 436 c 0,28,29
 301 436 301 436 305 435 c 0,30,31
 319 433 319 433 332 428 c 0,32,33
 384 408 384 408 394 362 c 0,34,35
 399 343 399 343 398 322 c 1,36,-1
 396 306 l 1,37,38
 393 292 393 292 387 279 c 0,39,40
 360 219 360 219 281 218 c 0,41,42
 229 216 229 216 190 238 c 0,43,44
 171 250 171 250 155 267 c 0,45,46
 131 294 131 294 114 334 c 0,47,48
 76 426 76 426 114 514 c 0,49,50
 150 598 150 598 241 632 c 0,51,52
 293 652 293 652 348 649 c 0,53,54
 356 649 l 0,55,56
 364 649 364 649 371 648 c 0,57,58
 398 645 398 645 432 634 c 0,59,60
 509 607 509 607 553 541 c 0,61,62
 607 458 607 458 603 382 c 0,63,64
 602 378 602 378 602 375 c 0,65,66
 591 232 591 232 495 136 c 0,67,68
 360 0 360 0 157 0 c 0,69,70
 118 0 118 0 64 15 c 0,71,72
 43 20 43 20 46 38 c 0,73,74
 47 43 47 43 79 40 c 0,75,76
 92 39 92 39 111 37 c 0,77,78
 156 31 156 31 201 36 c 0,79,80
 224 39 224 39 247 45 c 0,81,82
 279 54 279 54 312 68 c 0,83,84
 413 112 413 112 479 206 c 0,85,86
 537 286 537 286 540 372 c 0,0,1
294 390 m 0,87,88
 268 392 268 392 252 378 c 0,89,90
 245 373 245 373 235 359 c 0,91,92
 218 334 218 334 223 313 c 0,93,94
 224 307 224 307 227 302 c 0,95,96
 233 290 233 290 248 279 c 0,97,98
 275 259 275 259 304 265 c 0,99,100
 317 268 317 268 330 276 c 0,101,102
 360 293 360 293 353 335 c 0,103,104
 352 342 352 342 349 351 c 0,105,106
 339 387 339 387 294 390 c 0,87,88
EndSplineSet
EndChar

StartChar: xaat
Encoding: 2926 2926 78
Width: 538
GlyphClass: 2
Flags: W
LayerCount: 2
Fore
SplineSet
120 557 m 2,0,-1
 120 103 l 2,1,2
 120 65 120 65 153 65 c 0,3,4
 183 65 183 65 193 96 c 0,5,6
 195 100 195 100 196 103 c 1,7,-1
 194 70 l 1,8,9
 192 62 l 0,10,11
 189 53 189 53 185 45 c 0,12,13
 178 32 178 32 168 22 c 0,14,15
 146 1 146 1 115 0 c 0,16,17
 76 -2 76 -2 58 27 c 0,18,19
 49 41 49 41 46 61 c 0,20,21
 44 79 44 79 44 89 c 2,22,-1
 44 589 l 2,23,24
 44 626 44 626 50 633 c 0,25,26
 64 650 64 650 87 650 c 2,27,-1
 257 650 l 1,28,-1
 494 650 l 1,29,30
 485 646 485 646 482 626 c 1,31,-1
 476 610 l 1,32,33
 471 604 471 604 465 600 c 1,34,-1
 255 600 l 1,35,-1
 150 600 l 2,36,37
 124 600 124 600 121 583 c 0,38,39
 120 579 120 579 120 557 c 2,0,-1
EndSplineSet
EndChar

StartChar: xnoi
Encoding: 2927 2927 79
Width: 508
GlyphClass: 2
Flags: W
LayerCount: 2
Fore
SplineSet
357 511 m 2,0,1
 380 488 380 488 389 490 c 1,2,3
 400 496 400 496 400 513 c 2,4,-1
 400 612 l 2,5,6
 400 638 400 638 412 645 c 0,7,8
 420 650 420 650 431 650 c 0,9,10
 461 649 461 649 464 610 c 1,11,-1
 464 414 l 2,12,13
 464 392 464 392 454 385 c 1,14,-1
 442 380 l 1,15,-1
 440 380 l 2,16,17
 431 379 431 379 422 383 c 0,18,19
 418 385 418 385 413 388 c 128,-1,20
 408 391 408 391 399 400 c 2,21,-1
 218 582 l 1,22,23
 157 542 157 542 128 458 c 0,24,25
 121 436 121 436 116 411 c 0,26,27
 107 362 107 362 116 310 c 0,28,29
 120 284 120 284 129 257 c 0,30,31
 142 216 142 216 165 174 c 0,32,33
 212 88 212 88 312 39 c 1,34,35
 342 28 342 28 333 11 c 0,36,37
 329 2 329 2 318 0 c 0,38,39
 309 -1 309 -1 296 3 c 0,40,41
 287 6 287 6 276 11 c 0,42,43
 254 21 254 21 241 28 c 0,44,45
 126 92 126 92 71 228 c 0,46,47
 39 307 39 307 45 380 c 0,48,49
 46 391 46 391 48 401 c 0,50,51
 55 440 55 440 73 477 c 0,52,53
 116 561 116 561 152 592 c 0,54,55
 154 594 154 594 174 608 c 1,56,57
 213 631 213 631 235 627 c 0,58,59
 242 625 242 625 248 619 c 2,60,-1
 357 511 l 2,0,1
EndSplineSet
EndChar

StartChar: thingy2
Encoding: 2928 2928 80
Width: 659
GlyphClass: 2
Flags: W
LayerCount: 2
Fore
SplineSet
244 450 m 0,0,1
 290 450 290 450 306 417 c 0,2,3
 318 390 318 390 315 369 c 0,4,5
 314 363 314 363 312 357 c 0,6,7
 307 344 307 344 297 337 c 0,8,9
 268 315 268 315 239 319 c 0,10,11
 235 319 235 319 232 320 c 0,12,13
 217 324 217 324 201 336 c 0,14,15
 175 355 175 355 177 382 c 0,16,17
 178 385 178 385 178 387 c 1,18,-1
 180 395 l 1,19,20
 181 405 181 405 189 417 c 0,21,22
 208 450 208 450 244 450 c 0,0,1
119 315 m 2,23,-1
 224 137 l 2,24,25
 240 110 240 110 257 111 c 1,26,27
 273 114 273 114 292 150 c 1,28,-1
 557 622 l 2,29,30
 576 656 576 656 599 652 c 2,31,-1
 604 650 l 2,32,33
 627 642 627 642 624 621 c 2,34,-1
 623 615 l 1,35,36
 621 608 621 608 616 600 c 2,37,-1
 299 33 l 2,38,39
 280 0 280 0 249 0 c 1,40,41
 205 4 205 4 184 42 c 2,42,-1
 50 286 l 1,43,44
 40 306 40 306 42 320 c 0,45,46
 43 323 43 323 45 327 c 0,47,48
 51 339 51 339 66 345 c 0,49,50
 85 353 85 353 102 338 c 0,51,52
 110 330 110 330 119 315 c 2,23,-1
EndSplineSet
EndChar

StartChar: o_vo
Encoding: 2929 2929 81
Width: 797
GlyphClass: 2
Flags: W
LayerCount: 2
Fore
SplineSet
678 -227 m 2,0,1
 678 -265 678 -265 711 -265 c 0,2,3
 741 -265 741 -265 751 -234 c 0,4,5
 753 -230 753 -230 754 -227 c 1,6,7
 755 -249 755 -249 750 -267 c 0,8,9
 747 -277 747 -277 743 -285 c 1,10,-1
 729 -304 l 1,11,-1
 726 -308 l 1,12,13
 704 -329 704 -329 670 -330 c 0,14,15
 644 -331 644 -331 628 -319 c 0,16,17
 620 -314 620 -314 614 -305 c 0,18,19
 604 -292 604 -292 601 -269 c 0,20,21
 599 -251 599 -251 599 -241 c 2,22,-1
 599 110 l 2,23,24
 599 138 599 138 631 149 c 0,25,26
 662 159 662 159 670 165 c 0,27,28
 675 170 675 170 678 176 c 1,29,-1
 678 -227 l 2,0,1
124 116 m 1,30,-1
 197 138 l 1,31,32
 133 9 133 9 161 -82 c 0,33,34
 175 -127 175 -127 211 -163 c 0,35,36
 240 -192 240 -192 276 -208 c 0,37,38
 323 -230 323 -230 390 -226 c 0,39,40
 398 -226 398 -226 406 -225 c 0,41,42
 431 -223 431 -223 458 -217 c 0,43,44
 563 -194 563 -194 599 -144 c 0,45,46
 605 -137 605 -137 608 -127 c 1,47,-1
 608 -202 l 1,48,49
 510 -266 510 -266 387 -273 c 0,50,51
 326 -277 326 -277 273 -264 c 0,52,53
 247 -258 247 -258 222 -247 c 0,54,55
 103 -194 103 -194 82 -90 c 0,56,57
 70 -31 70 -31 93 41 c 0,58,59
 104 77 104 77 124 116 c 1,30,-1
529 584 m 0,60,61
 507 601 507 601 467 600 c 0,62,63
 465 600 465 600 462 600 c 0,64,65
 458 599 458 599 453 599 c 0,66,67
 437 597 437 597 428 595 c 0,68,69
 396 589 396 589 378 554 c 0,70,71
 370 540 370 540 375 524 c 1,72,-1
 382 507 l 1,73,74
 393 489 393 489 385 482 c 0,75,76
 381 479 381 479 371 479 c 0,77,78
 355 479 355 479 336 507 c 0,79,80
 322 527 322 527 324 550 c 0,81,82
 324 553 324 553 325 556 c 0,83,84
 327 565 327 565 331 574 c 0,85,86
 339 593 339 593 355 612 c 0,87,88
 389 649 389 649 474 651 c 0,89,90
 517 652 517 652 552 639 c 0,91,92
 570 633 570 633 586 623 c 0,93,94
 609 608 609 608 628 585 c 0,95,96
 670 534 670 534 661 474 c 0,97,98
 660 467 660 467 656 453 c 0,99,100
 635 378 635 378 548 354 c 1,101,102
 628 326 628 326 662 262 c 0,103,104
 683 222 683 222 681 179 c 0,105,106
 681 173 l 0,107,108
 680 163 680 163 678 152 c 0,109,110
 672 125 672 125 656 101 c 0,111,112
 601 16 601 16 481 -8 c 0,113,114
 410 -22 410 -22 329 -5 c 0,115,116
 289 3 289 3 245 19 c 0,117,118
 149 54 149 54 85 163 c 0,119,120
 31 256 31 256 48 389 c 0,121,122
 53 431 53 431 66 478 c 0,123,124
 78 517 78 517 141 626 c 0,125,126
 160 659 160 659 174 662 c 0,127,128
 186 665 186 665 189 653 c 1,129,-1
 190 638 l 1,130,131
 188 625 188 625 170 590 c 0,132,133
 117 482 117 482 112 403 c 0,134,135
 108 321 108 321 127 259 c 0,136,137
 136 228 136 228 152 201 c 0,138,139
 176 160 176 160 213 132 c 0,140,141
 332 39 332 39 441 54 c 0,142,143
 453 56 453 56 465 59 c 0,144,145
 590 89 590 89 592 172 c 0,146,147
 596 320 596 320 409 316 c 0,148,149
 378 315 378 315 366 322 c 0,150,151
 360 325 360 325 359 330 c 128,-1,152
 358 335 358 335 362 342 c 0,153,154
 364 346 364 346 367 350 c 1,155,-1
 414 364 l 1,156,157
 570 378 570 378 578 479 c 0,158,159
 581 521 581 521 559 553 c 0,160,161
 547 570 547 570 529 584 c 0,60,61
EndSplineSet
EndChar

StartChar: nonmarkingreturn
Encoding: 1114112 1114112 82
Width: -2
GlyphClass: 2
Flags: W
LayerCount: 2
Fore
SplineSet
-187 -220 m 0,0,1
 -154 -224 -154 -224 -130 -214 c 0,2,3
 -115 -209 -115 -209 -105 -199 c 0,4,5
 -90 -186 -90 -186 -74 -188 c 1,6,-1
 -69 -190 l 2,7,8
 -60 -193 -60 -193 -61 -204 c 1,9,-1
 -70 -216 l 1,10,-1
 -71 -217 l 2,11,12
 -124 -270 -124 -270 -167 -270 c 0,13,14
 -231 -270 -231 -270 -294 -222 c 1,15,-1
 -348 -174 l 1,16,-1
 -370 -206 l 1,17,18
 -425 -276 -425 -276 -506 -279 c 0,19,20
 -537 -280 -537 -280 -561 -276 c 0,21,22
 -574 -274 -574 -274 -585 -270 c 0,23,24
 -603 -264 -603 -264 -616 -254 c 0,25,26
 -640 -237 -640 -237 -654 -211 c 0,27,28
 -671 -177 -671 -177 -668 -150 c 0,29,30
 -668 -146 l 0,31,32
 -668 -142 -668 -142 -667 -139 c 0,33,34
 -662 -121 -662 -121 -653 -109 c 1,35,36
 -614 -64 -614 -64 -580 -54 c 0,37,38
 -544 -44 -544 -44 -510 -46 c 0,39,40
 -499 -47 -499 -47 -489 -49 c 0,41,42
 -476 -52 -476 -52 -459 -58 c 1,43,44
 -423 -74 -423 -74 -377 -111 c 1,45,-1
 -377 -23 l 2,46,47
 -377 -2 -377 -2 -356 4 c 0,48,49
 -353 5 -353 5 -347 5 c 0,50,51
 -317 4 -317 4 -315 -27 c 1,52,-1
 -315 -108 l 2,53,54
 -315 -135 -315 -135 -301 -151 c 0,55,56
 -254 -204 -254 -204 -217 -214 c 0,57,58
 -204 -218 -204 -218 -187 -220 c 0,0,1
-382 -149 m 1,59,60
 -419 -120 -419 -120 -466 -99 c 1,61,62
 -499 -87 -499 -87 -528 -89 c 0,63,64
 -532 -89 -532 -89 -536 -90 c 0,65,66
 -549 -92 -549 -92 -562 -97 c 0,67,68
 -567 -100 -567 -100 -579 -106 c 0,69,70
 -612 -124 -612 -124 -611 -163 c 0,71,72
 -609 -220 -609 -220 -558 -235 c 0,73,74
 -531 -242 -531 -242 -506 -240 c 0,75,76
 -499 -240 -499 -240 -493 -239 c 0,77,78
 -477 -236 -477 -236 -462 -230 c 0,79,80
 -436 -219 -436 -219 -415 -201 c 0,81,82
 -396 -185 -396 -185 -385 -157 c 2,83,-1
 -382 -149 l 1,59,60
EndSplineSet
EndChar

StartChar: xukar.ko
Encoding: 1114114 -1 83
Width: 18
GlyphClass: 2
Flags: W
LayerCount: 2
Fore
SplineSet
-134 -77 m 1,0,-1
 -134 -53 l 2,1,2
 -134 -30 -134 -30 -113 -21 c 0,3,4
 -89 -10 -89 -10 -87 -8 c 0,5,6
 -82 -1 -82 -1 -82 0 c 2,7,-1
 -82 -109 l 1,8,9
 -81 -135 -81 -135 -91 -148 c 0,10,11
 -96 -155 -96 -155 -104 -158 c 1,12,-1
 -124 -160 l 1,13,-1
 -127 -160 l 1,14,-1
 -465 -160 l 1,15,16
 -460 -158 -460 -158 -458 -155 c 0,17,18
 -455 -152 -455 -152 -446 -132 c 0,19,20
 -439 -113 -439 -113 -417 -113 c 2,21,-1
 -168 -113 l 2,22,23
 -137 -113 -137 -113 -134 -89 c 1,24,-1
 -134 -77 l 1,0,-1
EndSplineSet
EndChar

StartChar: rophola.ko
Encoding: 1114115 -1 84
Width: 225
GlyphClass: 2
Flags: W
LayerCount: 2
Fore
SplineSet
17 904 m 0,0,1
 -20 904 -20 904 -44 868 c 1,2,-1
 -53 847 l 2,3,4
 -57 838 -57 838 -56 824 c 0,5,6
 -54 785 -54 785 -15 765 c 0,7,8
 0 756 0 756 19 754 c 0,9,10
 41 752 41 752 59 758 c 0,11,12
 71 762 71 762 82 770 c 0,13,14
 110 792 110 792 107 828 c 0,15,16
 101 889 101 889 51 901 c 0,17,18
 38 904 38 904 17 904 c 0,0,1
23 960 m 0,19,20
 74 961 74 961 106 934 c 1,21,-1
 124 915 l 1,22,23
 128 912 128 912 136 899 c 0,24,25
 153 868 153 868 155 839 c 0,26,27
 158 796 158 796 140 763 c 1,28,-1
 123 740 l 1,29,-1
 114 731 l 2,30,31
 81 698 81 698 22 700 c 2,32,-1
 18 700 l 2,33,34
 -77 707 -77 707 -99 794 c 0,35,36
 -101 802 -101 802 -102 811 c 1,37,-1
 -103 847 l 1,38,39
 -99 901 -99 901 -48 936 c 0,40,41
 -13 959 -13 959 23 960 c 0,19,20
EndSplineSet
EndChar

StartChar: xukar.lower
Encoding: 1114116 -1 85
Width: 18
GlyphClass: 2
Flags: W
LayerCount: 2
Fore
SplineSet
30 -378 m 0,0,1
 63 -382 63 -382 87 -372 c 0,2,3
 102 -367 102 -367 112 -357 c 0,4,5
 127 -344 127 -344 143 -346 c 1,6,-1
 148 -348 l 2,7,8
 157 -351 157 -351 156 -362 c 1,9,-1
 147 -374 l 1,10,-1
 146 -375 l 2,11,12
 93 -428 93 -428 50 -428 c 0,13,14
 -14 -428 -14 -428 -77 -380 c 1,15,-1
 -131 -332 l 1,16,-1
 -153 -364 l 1,17,18
 -208 -434 -208 -434 -289 -437 c 0,19,20
 -320 -438 -320 -438 -344 -434 c 0,21,22
 -357 -432 -357 -432 -368 -428 c 0,23,24
 -386 -422 -386 -422 -399 -412 c 0,25,26
 -423 -395 -423 -395 -437 -369 c 0,27,28
 -454 -335 -454 -335 -451 -308 c 0,29,30
 -451 -304 l 0,31,32
 -451 -300 -451 -300 -450 -297 c 0,33,34
 -445 -279 -445 -279 -436 -267 c 1,35,36
 -397 -222 -397 -222 -363 -212 c 0,37,38
 -330 -203 -330 -203 -298 -204 c 0,39,40
 -295 -204 -295 -204 -293 -204 c 0,41,42
 -282 -205 -282 -205 -272 -207 c 0,43,44
 -258 -210 -258 -210 -242 -216 c 0,45,46
 -206 -232 -206 -232 -160 -269 c 1,47,-1
 -160 -181 l 2,48,49
 -160 -160 -160 -160 -139 -154 c 0,50,51
 -136 -153 -136 -153 -130 -153 c 0,52,53
 -98 -155 -98 -155 -98 -185 c 2,54,-1
 -98 -266 l 2,55,56
 -98 -292 -98 -292 -84 -309 c 1,57,58
 -34 -359 -34 -359 -4 -370 c 0,59,60
 11 -375 11 -375 30 -378 c 0,0,1
-165 -307 m 1,61,62
 -202 -278 -202 -278 -249 -257 c 1,63,64
 -282 -245 -282 -245 -311 -247 c 0,65,66
 -315 -247 -315 -247 -319 -248 c 0,67,68
 -332 -250 -332 -250 -345 -255 c 0,69,70
 -350 -258 -350 -258 -362 -264 c 0,71,72
 -395 -282 -395 -282 -394 -321 c 0,73,74
 -392 -378 -392 -378 -341 -393 c 0,75,76
 -314 -400 -314 -400 -289 -398 c 0,77,78
 -282 -398 -282 -398 -276 -397 c 0,79,80
 -260 -394 -260 -394 -245 -388 c 0,81,82
 -219 -377 -219 -377 -198 -359 c 0,83,84
 -179 -343 -179 -343 -168 -315 c 2,85,-1
 -165 -307 l 1,61,62
EndSplineSet
EndChar

StartChar: xuukar.lower
Encoding: 1114117 -1 86
Width: 18
GlyphClass: 2
Flags: W
LayerCount: 2
Fore
SplineSet
-381 -202 m 2,0,-1
 -345 -206 l 2,1,2
 -342 -206 -342 -206 -338 -207 c 0,3,4
 -325 -209 -325 -209 -307 -213 c 128,-1,5
 -289 -217 -289 -217 -277 -216 c 0,6,7
 -271 -215 -271 -215 -267 -214 c 0,8,9
 -244 -204 -244 -204 -255 -184 c 0,10,11
 -259 -178 -259 -178 -264 -173 c 0,12,13
 -277 -160 -277 -160 -297 -153 c 1,14,15
 -281 -137 -281 -137 -263 -141 c 0,16,17
 -259 -141 -259 -141 -255 -143 c 0,18,19
 -247 -146 -247 -146 -240 -153 c 1,20,21
 -216 -166 -216 -166 -208 -181 c 0,22,23
 -203 -191 -203 -191 -200 -204 c 0,24,25
 -195 -225 -195 -225 -209 -237 c 1,26,-1
 -226 -245 l 2,27,28
 -227 -246 -227 -246 -228 -246 c 0,29,30
 -242 -251 -242 -251 -259 -250 c 0,31,32
 -263 -250 l 0,33,34
 -272 -249 -272 -249 -281 -247 c 0,35,36
 -337 -233 -337 -233 -366 -234 c 2,37,-1
 -371 -234 l 2,38,39
 -412 -239 -412 -239 -428 -272 c 0,40,41
 -432 -279 -432 -279 -434 -289 c 0,42,43
 -440 -322 -440 -322 -416 -342 c 0,44,45
 -404 -352 -404 -352 -383 -359 c 0,46,47
 -368 -364 -368 -364 -347 -366 c 0,48,49
 -304 -369 -304 -369 -268 -347 c 0,50,51
 -249 -336 -249 -336 -232 -319 c 0,52,53
 -228 -314 -228 -314 -205 -289 c 0,54,55
 -194 -278 -194 -278 -179 -279 c 0,56,57
 -176 -279 -176 -279 -174 -280 c 0,58,59
 -166 -282 -166 -282 -160 -288 c 0,60,61
 -106 -342 -106 -342 -51 -345 c 0,62,63
 -38 -346 -38 -346 -26 -343 c 0,64,65
 -19 -342 -19 -342 -13 -339 c 0,66,67
 2 -333 2 -333 9 -335 c 0,68,69
 12 -335 12 -335 14 -338 c 1,70,-1
 13 -344 l 1,71,-1
 12 -345 l 2,72,73
 -8 -368 -8 -368 -46 -370 c 0,74,75
 -77 -371 -77 -371 -102 -365 c 0,76,77
 -116 -362 -116 -362 -128 -357 c 0,78,79
 -148 -348 -148 -348 -164 -338 c 0,80,81
 -173 -332 -173 -332 -182 -333 c 0,82,83
 -184 -333 -184 -333 -186 -334 c 2,84,-1
 -192 -338 l 1,85,86
 -250 -396 -250 -396 -342 -399 c 2,87,-1
 -355 -399 l 2,88,89
 -451 -397 -451 -397 -483 -343 c 0,90,91
 -498 -316 -498 -316 -493 -287 c 0,92,93
 -492 -278 -492 -278 -488 -268 c 0,94,95
 -468 -214 -468 -214 -397 -204 c 0,96,97
 -387 -202 -387 -202 -381 -202 c 2,0,-1
EndSplineSet
EndChar

StartChar: rophola_xukar
Encoding: 1114118 -1 87
Width: 18
GlyphClass: 3
Flags: W
LayerCount: 2
Fore
SplineSet
-164 -347 m 0,0,1
 -131 -352 -131 -352 -107 -341 c 1,2,3
 -92 -336 -92 -336 -82 -326 c 1,4,5
 -65 -312 -65 -312 -51 -315 c 2,6,-1
 -46 -317 l 2,7,8
 -37 -320 -37 -320 -38 -331 c 1,9,-1
 -47 -343 l 1,10,-1
 -48 -344 l 2,11,12
 -101 -397 -101 -397 -144 -397 c 0,13,14
 -208 -397 -208 -397 -271 -349 c 1,15,-1
 -325 -301 l 1,16,-1
 -347 -333 l 1,17,18
 -402 -403 -402 -403 -483 -406 c 0,19,20
 -514 -407 -514 -407 -538 -403 c 0,21,22
 -551 -401 -551 -401 -562 -397 c 0,23,24
 -580 -391 -580 -391 -593 -381 c 0,25,26
 -617 -364 -617 -364 -631 -338 c 0,27,28
 -648 -304 -648 -304 -645 -277 c 0,29,30
 -645 -273 l 0,31,32
 -645 -269 -645 -269 -644 -266 c 0,33,34
 -639 -248 -639 -248 -630 -236 c 1,35,36
 -591 -191 -591 -191 -557 -181 c 0,37,38
 -524 -172 -524 -172 -492 -173 c 0,39,40
 -489 -173 -489 -173 -487 -173 c 0,41,42
 -476 -174 -476 -174 -466 -176 c 0,43,44
 -452 -179 -452 -179 -436 -185 c 0,45,46
 -400 -200 -400 -200 -354 -238 c 1,47,-1
 -354 -129 l 2,48,49
 -354 -108 -354 -108 -333 -102 c 0,50,51
 -330 -101 -330 -101 -324 -101 c 0,52,53
 -292 -103 -292 -103 -292 -133 c 2,54,-1
 -292 -235 l 2,55,56
 -292 -261 -292 -261 -278 -278 c 1,57,58
 -228 -328 -228 -328 -198 -339 c 0,59,60
 -183 -344 -183 -344 -164 -347 c 0,0,1
-359 -276 m 1,61,62
 -396 -247 -396 -247 -443 -226 c 1,63,64
 -476 -214 -476 -214 -505 -216 c 0,65,66
 -509 -216 -509 -216 -513 -217 c 0,67,68
 -526 -219 -526 -219 -539 -224 c 0,69,70
 -544 -227 -544 -227 -556 -233 c 0,71,72
 -589 -251 -589 -251 -588 -290 c 0,73,74
 -586 -347 -586 -347 -535 -362 c 0,75,76
 -508 -369 -508 -369 -483 -367 c 0,77,78
 -476 -367 -476 -367 -470 -366 c 0,79,80
 -454 -363 -454 -363 -439 -357 c 0,81,82
 -413 -346 -413 -346 -392 -328 c 0,83,84
 -373 -312 -373 -312 -362 -284 c 2,85,-1
 -359 -276 l 1,61,62
-184 -85 m 1,86,-1
 -608 -85 l 2,87,88
 -630 -85 -630 -85 -632 -102 c 0,89,90
 -633 -108 -633 -108 -629 -113 c 0,91,92
 -627 -116 -627 -116 -625 -118 c 0,93,94
 -618 -124 -618 -124 -608 -123 c 2,95,-1
 -126 -123 l 2,96,97
 -111 -124 -111 -124 -102 -116 c 0,98,99
 -97 -113 -97 -113 -93 -107 c 0,100,101
 -88 -98 -88 -98 -85 -85 c 2,102,-1
 -84 -81 l 1,103,-1
 -84 -16 l 1,104,105
 -99 9 -99 9 -120 5 c 0,106,107
 -122 5 -122 5 -124 4 c 0,108,109
 -138 1 -138 1 -147 -16 c 1,110,-1
 -148 -50 l 1,111,-1
 -148 -65 l 1,112,113
 -151 -77 -151 -77 -165 -82 c 1,114,-1
 -184 -85 l 1,86,-1
EndSplineSet
Ligature2: "'blws' Below Base Substitutions in Oriya lookup 8 subtable" rophola xukar
EndChar

StartChar: rophola_xuukar
Encoding: 1114119 -1 88
Width: 18
GlyphClass: 3
Flags: W
LayerCount: 2
Fore
SplineSet
-184 -85 m 1,0,-1
 -608 -85 l 2,1,2
 -630 -85 -630 -85 -632 -102 c 0,3,4
 -633 -108 -633 -108 -629 -113 c 0,5,6
 -627 -116 -627 -116 -625 -118 c 0,7,8
 -618 -124 -618 -124 -608 -123 c 2,9,-1
 -126 -123 l 2,10,11
 -111 -124 -111 -124 -102 -116 c 0,12,13
 -97 -113 -97 -113 -93 -107 c 0,14,15
 -88 -98 -88 -98 -85 -85 c 2,16,-1
 -84 -81 l 1,17,-1
 -84 -16 l 1,18,19
 -99 9 -99 9 -120 5 c 0,20,21
 -122 5 -122 5 -124 4 c 0,22,23
 -138 1 -138 1 -147 -16 c 1,24,-1
 -148 -50 l 1,25,-1
 -148 -65 l 1,26,27
 -151 -77 -151 -77 -165 -82 c 1,28,-1
 -184 -85 l 1,0,-1
-494 -171 m 2,29,-1
 -458 -175 l 2,30,31
 -455 -175 -455 -175 -451 -176 c 0,32,33
 -438 -178 -438 -178 -420 -182 c 128,-1,34
 -402 -186 -402 -186 -390 -185 c 0,35,36
 -384 -184 -384 -184 -380 -183 c 0,37,38
 -358 -172 -358 -172 -368 -153 c 0,39,40
 -372 -147 -372 -147 -377 -142 c 0,41,42
 -390 -129 -390 -129 -410 -122 c 1,43,44
 -394 -106 -394 -106 -376 -110 c 0,45,46
 -372 -110 -372 -110 -368 -112 c 0,47,48
 -360 -115 -360 -115 -353 -122 c 1,49,50
 -329 -135 -329 -135 -321 -150 c 0,51,52
 -316 -160 -316 -160 -313 -173 c 0,53,54
 -308 -194 -308 -194 -322 -206 c 0,55,56
 -329 -211 -329 -211 -341 -215 c 0,57,58
 -355 -220 -355 -220 -372 -219 c 0,59,60
 -376 -219 l 0,61,62
 -385 -218 -385 -218 -394 -216 c 0,63,64
 -450 -202 -450 -202 -479 -203 c 2,65,-1
 -484 -203 l 2,66,67
 -525 -208 -525 -208 -541 -241 c 0,68,69
 -545 -248 -545 -248 -547 -258 c 0,70,71
 -553 -291 -553 -291 -529 -311 c 0,72,73
 -517 -321 -517 -321 -496 -328 c 0,74,75
 -481 -333 -481 -333 -460 -335 c 0,76,77
 -417 -338 -417 -338 -381 -316 c 0,78,79
 -362 -305 -362 -305 -345 -288 c 0,80,81
 -340 -284 -340 -284 -318 -258 c 1,82,83
 -307 -247 -307 -247 -292 -248 c 0,84,85
 -289 -248 -289 -248 -287 -249 c 0,86,87
 -280 -250 -280 -250 -273 -257 c 0,88,89
 -219 -311 -219 -311 -164 -314 c 1,90,-1
 -140 -312 l 1,91,-1
 -139 -312 l 2,92,93
 -132 -311 -132 -311 -126 -308 c 0,94,95
 -111 -302 -111 -302 -104 -304 c 0,96,97
 -101 -304 -101 -304 -99 -307 c 1,98,-1
 -100 -313 l 1,99,-1
 -101 -314 l 2,100,101
 -120 -337 -120 -337 -159 -339 c 1,102,-1
 -201 -337 l 2,103,104
 -208 -336 -208 -336 -215 -334 c 0,105,106
 -229 -331 -229 -331 -241 -326 c 0,107,108
 -261 -317 -261 -317 -277 -307 c 0,109,110
 -286 -301 -286 -301 -295 -302 c 0,111,112
 -297 -302 -297 -302 -299 -303 c 2,113,-1
 -305 -307 l 1,114,115
 -363 -365 -363 -365 -455 -368 c 2,116,-1
 -468 -368 l 2,117,118
 -564 -366 -564 -366 -596 -312 c 0,119,120
 -611 -285 -611 -285 -606 -256 c 0,121,122
 -605 -247 -605 -247 -601 -237 c 0,123,124
 -581 -183 -581 -183 -510 -173 c 0,125,126
 -500 -171 -500 -171 -494 -171 c 2,29,-1
EndSplineSet
Ligature2: "'blws' Below Base Substitutions in Oriya lookup 8 subtable" rophola xuukar
EndChar

StartChar: xikar_xcond
Encoding: 1114120 -1 89
Width: 37
GlyphClass: 3
Flags: W
LayerCount: 2
Fore
SplineSet
-118 967 m 0,0,1
 -66 967 -66 967 -60 914 c 0,2,3
 -59 902 -59 902 -62 892 c 1,4,-1
 -67 882 l 1,5,6
 -72 875 -72 875 -80 870 c 0,7,8
 -93 860 -93 860 -116 860 c 0,9,10
 -130 859 -130 859 -140 864 c 0,11,12
 -145 866 -145 866 -150 870 c 0,13,14
 -157 876 -157 876 -163 885 c 0,15,16
 -171 899 -171 899 -171 914 c 0,17,18
 -171 941 -171 941 -148 958 c 0,19,20
 -134 967 -134 967 -118 967 c 0,0,1
-570 753 m 0,21,22
 -449 843 -449 843 -336 835 c 0,23,24
 -331 835 -331 835 -325 834 c 0,25,26
 -295 830 -295 830 -272 819 c 1,27,28
 -288 862 -288 862 -285 892 c 1,29,-1
 -283 902 l 1,30,31
 -277 925 -277 925 -265 925 c 0,32,33
 -250 923 -250 923 -249 895 c 0,34,35
 -243 824 -243 824 -186 788 c 0,36,37
 -153 767 -153 767 -114 768 c 0,38,39
 -4 770 -4 770 14 884 c 1,40,-1
 16 900 l 1,41,42
 18 926 18 926 41 929 c 0,43,44
 50 929 50 929 55 923 c 0,45,46
 59 919 59 919 59 910 c 0,47,48
 59 753 59 753 -96 726 c 1,49,-1
 -111 722 l 1,50,51
 -115 698 -115 698 -129 700 c 1,52,-1
 -133 702 l 1,53,-1
 -144 709 l 1,54,-1
 -157 720 l 1,55,56
 -247 782 -247 782 -341 783 c 0,57,58
 -396 784 -396 784 -450 765 c 0,59,60
 -477 756 -477 756 -504 741 c 0,61,62
 -523 731 -523 731 -544 717 c 0,63,64
 -556 708 -556 708 -570 710 c 1,65,-1
 -578 717 l 1,66,-1
 -579 718 l 2,67,68
 -586 728 -586 728 -579 742 c 0,69,70
 -577 748 -577 748 -570 753 c 0,21,22
EndSplineSet
Ligature2: "'abvs' Above Base Substitutions in Oriya lookup 9 subtable" xikar xcond
EndChar

StartChar: mo.alt
Encoding: 1114121 -1 90
Width: 18
GlyphClass: 2
Flags: W
LayerCount: 2
Fore
SplineSet
-35 -264 m 2,0,1
 -35 -287 -35 -287 -19 -287 c 0,2,3
 -2 -287 -2 -287 2 -269 c 0,4,5
 3 -268 3 -268 3 -264 c 1,6,-1
 1 -290 l 1,7,8
 0 -295 0 -295 -2 -299 c 0,9,10
 -8 -309 -8 -309 -11 -312 c 0,11,12
 -23 -326 -23 -326 -40 -326 c 0,13,14
 -68 -326 -68 -326 -76 -290 c 0,15,16
 -77 -287 -77 -287 -77 -272 c 2,17,-1
 -77 -39 l 2,18,19
 -77 -15 -77 -15 -60 -15 c 0,20,21
 -48 -15 -48 -15 -40 -6 c 1,22,-1
 -36 0 l 1,23,-1
 -35 1 l 1,24,-1
 -35 -264 l 2,0,1
-73 -38 m 1,25,-1
 -73 -115 l 1,26,27
 -72 -106 -72 -106 -78 -96 c 0,28,29
 -82 -90 -82 -90 -87 -84 c 0,30,31
 -94 -75 -94 -75 -105 -66 c 0,32,33
 -136 -39 -136 -39 -168 -40 c 0,34,35
 -242 -43 -242 -43 -258 -97 c 1,36,-1
 -261 -121 l 1,37,38
 -260 -125 -260 -125 -260 -129 c 0,39,40
 -257 -161 -257 -161 -238 -171 c 0,41,42
 -234 -174 -234 -174 -229 -173 c 0,43,44
 -227 -173 -227 -173 -224 -172 c 2,45,-1
 -165 -152 l 2,46,47
 -161 -151 -161 -151 -154 -151 c 2,48,-1
 -136 -153 l 2,49,50
 -135 -153 -135 -153 -134 -154 c 0,51,52
 -130 -156 -130 -156 -127 -159 c 128,-1,53
 -124 -162 -124 -162 -125 -165 c 0,54,55
 -126 -169 -126 -169 -129 -172 c 2,56,-1
 -137 -177 l 1,57,58
 -191 -186 -191 -186 -225 -229 c 0,59,60
 -236 -244 -236 -244 -238 -257 c 1,61,-1
 -237 -262 l 1,62,63
 -211 -263 -211 -263 -206 -286 c 0,64,65
 -202 -310 -202 -310 -221 -322 c 0,66,67
 -231 -327 -231 -327 -241 -327 c 0,68,69
 -279 -325 -279 -325 -283 -272 c 0,70,71
 -285 -253 -285 -253 -273 -230 c 0,72,73
 -267 -219 -267 -219 -257 -206 c 0,74,75
 -256 -205 -256 -205 -254 -202 c 1,76,77
 -294 -174 -294 -174 -299 -124 c 0,78,79
 -302 -91 -302 -91 -286 -64 c 0,80,81
 -278 -49 -278 -49 -265 -36 c 0,82,83
 -229 0 -229 0 -169 2 c 0,84,85
 -145 3 -145 3 -123 -5 c 0,86,87
 -112 -9 -112 -9 -102 -15 c 0,88,89
 -87 -24 -87 -24 -73 -38 c 1,25,-1
EndSplineSet
EndChar

StartChar: mru.alt
Encoding: 1114122 -1 91
Width: 18
GlyphClass: 2
Flags: W
LayerCount: 2
Fore
SplineSet
-327 -90 m 1,0,1
 -357 -104 -357 -104 -376 -141 c 0,2,3
 -390 -166 -390 -166 -388 -189 c 1,4,5
 -387 -243 -387 -243 -351 -258 c 0,6,7
 -347 -260 -347 -260 -335 -262 c 0,8,9
 -313 -263 -313 -263 -296 -250 c 0,10,11
 -287 -243 -287 -243 -280 -231 c 0,12,13
 -270 -214 -270 -214 -271 -195 c 0,14,15
 -272 -141 -272 -141 -316 -100 c 2,16,-1
 -327 -90 l 1,0,1
-128 -107 m 2,17,18
 -128 -70 -128 -70 -151 -58 c 0,19,20
 -179 -44 -179 -44 -214 -48 c 0,21,22
 -226 -50 -226 -50 -238 -53 c 0,23,24
 -267 -61 -267 -61 -293 -75 c 1,25,26
 -271 -94 -271 -94 -248 -134 c 0,27,28
 -231 -166 -231 -166 -231 -190 c 0,29,30
 -230 -213 -230 -213 -237 -233 c 0,31,32
 -241 -244 -241 -244 -247 -254 c 0,33,34
 -256 -268 -256 -268 -270 -281 c 0,35,36
 -298 -306 -298 -306 -334 -305 c 0,37,38
 -409 -302 -409 -302 -425 -238 c 0,39,40
 -431 -212 -431 -212 -428 -181 c 0,41,42
 -421 -114 -421 -114 -361 -69 c 1,43,44
 -386 -30 -386 -30 -444 -11 c 0,45,46
 -450 -8 -450 -8 -449 -4 c 0,47,48
 -448 -1 -448 -1 -445 1 c 0,49,50
 -439 7 -439 7 -431 6 c 0,51,52
 -398 3 -398 3 -324 -48 c 1,53,54
 -267 -9 -267 -9 -192 -13 c 2,55,-1
 -185 -13 l 2,56,57
 -137 -17 -137 -17 -103 -47 c 0,58,59
 -80 -66 -80 -66 -82 -107 c 1,60,-1
 -82 -178 l 2,61,62
 -82 -202 -82 -202 -64 -202 c 0,63,64
 -47 -202 -47 -202 -41 -182 c 0,65,66
 -40 -181 -40 -181 -40 -177 c 0,67,68
 -38 -200 -38 -200 -46 -216 c 0,69,70
 -49 -224 -49 -224 -55 -230 c 0,71,72
 -68 -245 -68 -245 -87 -245 c 0,73,74
 -117 -245 -117 -245 -127 -211 c 1,75,76
 -127 -207 -127 -207 -128 -205 c 1,77,-1
 -128 -173 l 1,78,-1
 -128 -107 l 2,17,18
-120 -174 m 1,79,-1
 -120 -214 l 1,80,81
 -134 -217 -134 -217 -156 -248 c 0,82,83
 -176 -277 -176 -277 -175 -307 c 0,84,85
 -174 -309 -174 -309 -174 -312 c 0,86,87
 -162 -376 -162 -376 -92 -383 c 0,88,89
 -90 -384 -90 -384 -86 -384 c 0,90,91
 -59 -386 -59 -386 -38 -380 c 0,92,93
 -27 -377 -27 -377 -19 -373 c 0,94,95
 6 -360 6 -360 8 -334 c 0,96,97
 9 -320 9 -320 2 -309 c 0,98,99
 -2 -303 -2 -303 -8 -299 c 0,100,101
 -17 -292 -17 -292 -31 -287 c 0,102,103
 -47 -282 -47 -282 -65 -283 c 1,104,-1
 -75 -281 l 2,105,106
 -77 -280 -77 -280 -78 -279 c 128,-1,107
 -79 -278 -79 -278 -81 -274 c 0,108,109
 -83 -269 -83 -269 -76 -266 c 0,110,111
 -73 -264 -73 -264 -67 -263 c 0,112,113
 -65 -262 -65 -262 -61 -262 c 0,114,115
 -23 -258 -23 -258 4 -271 c 0,116,117
 17 -278 17 -278 27 -288 c 1,118,-1
 38 -305 l 1,119,120
 45 -318 45 -318 45 -334 c 0,121,122
 46 -357 46 -357 35 -375 c 0,123,124
 29 -384 29 -384 20 -392 c 0,125,126
 6 -404 6 -404 -15 -413 c 0,127,128
 -44 -425 -44 -425 -80 -424 c 2,129,-1
 -84 -424 l 2,130,131
 -156 -420 -156 -420 -194 -373 c 0,132,133
 -213 -348 -213 -348 -213 -313 c 0,134,135
 -211 -248 -211 -248 -148 -194 c 0,136,137
 -135 -182 -135 -182 -120 -174 c 1,79,-1
EndSplineSet
EndChar

StartChar: vo_xnuk
Encoding: 1114123 -1 92
Width: 702
GlyphClass: 3
Flags: W
LayerCount: 2
Fore
SplineSet
335 534 m 0,0,1
 407 534 407 534 410 464 c 0,2,3
 411 447 411 447 406 434 c 1,4,-1
 400 422 l 2,5,6
 395 413 395 413 386 406 c 1,7,-1
 367 396 l 1,8,9
 357 393 357 393 338 391 c 0,10,11
 322 390 322 390 309 396 c 1,12,-1
 295 405 l 2,13,14
 285 412 285 412 278 425 c 0,15,16
 267 444 267 444 267 463 c 0,17,18
 267 501 267 501 297 522 c 0,19,20
 314 534 314 534 335 534 c 0,0,1
503 -25 m 1,21,22
 503 -61 503 -61 473 -61 c 0,23,24
 444 -61 444 -61 444 -25 c 2,25,-1
 444 133 l 1,26,-1
 504 183 l 1,27,-1
 504 133 l 1,28,-1
 503 -25 l 1,21,22
471 576 m 0,29,30
 400 608 400 608 321 600 c 0,31,32
 306 599 306 599 291 596 c 0,33,34
 256 589 256 589 224 575 c 0,35,36
 133 532 133 532 115 437 c 0,37,38
 111 413 111 413 112 389 c 1,39,-1
 112 382 l 1,40,41
 119 294 119 294 202 258 c 1,42,-1
 178 207 l 1,43,44
 98 236 98 236 64 313 c 0,45,46
 54 338 54 338 49 369 c 0,47,48
 42 420 42 420 55 467 c 0,49,50
 62 492 62 492 74 516 c 0,51,52
 141 649 141 649 346 650 c 0,53,54
 443 651 443 651 511 622 c 0,55,56
 545 608 545 608 571 586 c 0,57,58
 611 553 611 553 634 504 c 0,59,60
 668 432 668 432 658 360 c 0,61,62
 658 356 658 356 657 354 c 0,63,64
 643 281 643 281 612 238 c 0,65,66
 603 224 603 224 591 229 c 2,67,-1
 587 231 l 2,68,69
 583 233 583 233 584 242 c 1,70,-1
 587 251 l 1,71,72
 608 293 608 293 608 363 c 0,73,74
 606 515 606 515 471 576 c 0,29,30
325 336 m 0,75,76
 348 337 348 337 371 331 c 0,77,78
 383 328 383 328 394 323 c 0,79,80
 411 317 411 317 429 306 c 0,81,82
 503 261 503 261 503 184 c 0,83,84
 503 142 503 142 477 104 c 0,85,86
 474 101 474 101 472 98 c 0,87,88
 432 43 432 43 368 30 c 1,89,-1
 339 28 l 1,90,-1
 337 28 l 2,91,92
 254 33 254 33 210 78 c 0,93,94
 172 116 172 116 166 174 c 0,95,96
 165 190 165 190 167 206 c 0,97,98
 169 215 169 215 171 223 c 0,99,100
 174 234 174 234 180 246 c 0,101,102
 190 267 190 267 211 288 c 0,103,104
 259 333 259 333 325 336 c 0,75,76
328 291 m 0,105,106
 287 290 287 290 261 261 c 0,107,108
 230 224 230 224 231 179 c 128,-1,109
 232 134 232 134 259 107 c 0,110,111
 294 74 294 74 332 74 c 0,112,113
 345 73 345 73 359 77 c 0,114,115
 366 79 366 79 374 82 c 0,116,117
 436 107 436 107 433 182 c 1,118,-1
 433 186 l 1,119,120
 428 260 428 260 376 282 c 0,121,122
 355 291 355 291 328 291 c 0,105,106
334 -94 m 0,123,124
 282 -96 282 -96 262 -129 c 0,125,126
 255 -140 255 -140 255 -155 c 0,127,128
 254 -173 254 -173 261 -186 c 2,129,-1
 269 -199 l 1,130,131
 276 -208 276 -208 288 -214 c 0,132,133
 307 -224 307 -224 334 -225 c 0,134,135
 376 -226 376 -226 400 -198 c 0,136,137
 415 -180 415 -180 414 -152 c 1,138,139
 409 -111 409 -111 364 -98 c 0,140,141
 352 -94 352 -94 334 -94 c 0,123,124
EndSplineSet
Ligature2: "'nukt' Nukta Forms in Oriya lookup 0 subtable" go xnuk
EndChar

StartChar: umo.half
Encoding: 1114124 -1 93
Width: 218
GlyphClass: 2
Flags: W
LayerCount: 2
Fore
SplineSet
43 613 m 0,0,1
 60 614 60 614 78 610 c 0,2,3
 86 608 86 608 94 605 c 0,4,5
 103 602 103 602 121 592 c 0,6,7
 178 559 178 559 178 503 c 0,8,9
 178 467 178 467 154 440 c 0,10,11
 110 390 110 390 52 392 c 1,12,13
 -16 392 -16 392 -44 425 c 1,14,15
 -78 462 -78 462 -78 496 c 0,16,17
 -79 516 -79 516 -72 534 c 0,18,19
 -69 543 -69 543 -64 551 c 0,20,21
 -56 565 -56 565 -43 577 c 0,22,23
 -8 610 -8 610 43 613 c 0,0,1
45 581 m 1,24,25
 12 578 12 578 -6 558 c 0,26,27
 -31 530 -31 530 -30 499 c 1,28,29
 -25 466 -25 466 -8 447 c 0,30,31
 14 422 14 422 48 423 c 0,32,33
 76 424 76 424 93 437 c 0,34,35
 126 461 126 461 125 505 c 1,36,37
 122 547 122 547 88 568 c 0,38,39
 65 581 65 581 45 581 c 1,24,25
EndSplineSet
EndChar

StartChar: to.half
Encoding: 1114125 -1 94
Width: 18
GlyphClass: 2
Flags: W
LayerCount: 2
Fore
SplineSet
-468 -193 m 1,0,1
 -496 -180 -496 -180 -501 -169 c 0,2,3
 -503 -165 -503 -165 -503 -162 c 0,4,5
 -504 -154 -504 -154 -501 -147 c 0,6,7
 -499 -143 -499 -143 -496 -140 c 0,8,9
 -492 -135 -492 -135 -485 -131 c 2,10,-1
 -480 -129 l 1,11,-1
 -215 7 l 2,12,13
 -203 13 -203 13 -192 12 c 0,14,15
 -188 11 -188 11 -184 9 c 0,16,17
 -178 6 -178 6 -172 0 c 0,18,19
 -163 -10 -163 -10 -166 -17 c 0,20,21
 -167 -21 -167 -21 -171 -24 c 2,22,-1
 -336 -125 l 2,23,24
 -366 -144 -366 -144 -367 -155 c 0,25,26
 -367 -166 -367 -166 -343 -177 c 1,27,-1
 -26 -290 l 1,28,29
 5 -305 5 -305 2 -325 c 1,30,-1
 0 -329 l 2,31,32
 -7 -344 -7 -344 -31 -343 c 1,33,-1
 -40 -340 l 1,34,-1
 -41 -340 l 1,35,-1
 -468 -193 l 1,0,1
EndSplineSet
EndChar

StartChar: vo_holonto
Encoding: 1114126 -1 95
Width: 718
GlyphClass: 3
Flags: W
LayerCount: 2
Fore
SplineSet
703 -69 m 1,0,-1
 814 -241 l 2,1,2
 830 -265 830 -265 814 -274 c 2,3,-1
 808 -277 l 2,4,5
 797 -283 797 -283 781 -271 c 0,6,7
 773 -265 773 -265 764 -254 c 1,8,-1
 631 -72 l 2,9,10
 609 -43 609 -43 612 -28 c 0,11,12
 614 -22 614 -22 617 -19 c 0,13,14
 632 -2 632 -2 648 -6 c 2,15,-1
 654 -8 l 2,16,17
 655 -8 655 -8 662 -13 c 0,18,19
 676 -25 676 -25 703 -69 c 1,0,-1
335 534 m 0,20,21
 407 534 407 534 410 464 c 0,22,23
 411 447 411 447 406 434 c 1,24,-1
 400 422 l 2,25,26
 395 413 395 413 386 406 c 1,27,-1
 367 396 l 1,28,29
 357 393 357 393 338 391 c 0,30,31
 322 390 322 390 309 396 c 1,32,-1
 295 405 l 2,33,34
 285 412 285 412 278 425 c 0,35,36
 267 444 267 444 267 463 c 0,37,38
 267 501 267 501 297 522 c 0,39,40
 314 534 314 534 335 534 c 0,20,21
503 -25 m 1,41,42
 503 -61 503 -61 473 -61 c 0,43,44
 444 -61 444 -61 444 -25 c 2,45,-1
 444 133 l 1,46,-1
 504 183 l 1,47,-1
 504 133 l 1,48,-1
 503 -25 l 1,41,42
471 576 m 0,49,50
 400 608 400 608 321 600 c 0,51,52
 306 599 306 599 291 596 c 0,53,54
 256 589 256 589 224 575 c 0,55,56
 133 532 133 532 115 437 c 0,57,58
 111 413 111 413 112 389 c 1,59,-1
 112 382 l 1,60,61
 119 294 119 294 202 258 c 1,62,-1
 178 207 l 1,63,64
 98 236 98 236 64 313 c 0,65,66
 54 338 54 338 49 369 c 0,67,68
 42 420 42 420 55 467 c 0,69,70
 62 492 62 492 74 516 c 0,71,72
 141 649 141 649 346 650 c 0,73,74
 443 651 443 651 511 622 c 0,75,76
 545 608 545 608 571 586 c 0,77,78
 611 553 611 553 634 504 c 0,79,80
 668 432 668 432 658 360 c 0,81,82
 658 356 658 356 657 354 c 0,83,84
 643 281 643 281 612 238 c 0,85,86
 603 224 603 224 591 229 c 2,87,-1
 587 231 l 2,88,89
 583 233 583 233 584 242 c 1,90,-1
 587 251 l 1,91,92
 608 293 608 293 608 363 c 0,93,94
 606 515 606 515 471 576 c 0,49,50
325 336 m 0,95,96
 348 337 348 337 371 331 c 0,97,98
 383 328 383 328 394 323 c 0,99,100
 411 317 411 317 429 306 c 0,101,102
 503 261 503 261 503 184 c 0,103,104
 503 142 503 142 477 104 c 0,105,106
 474 101 474 101 472 98 c 0,107,108
 432 43 432 43 368 30 c 1,109,-1
 339 28 l 1,110,-1
 337 28 l 2,111,112
 254 33 254 33 210 78 c 0,113,114
 172 116 172 116 166 174 c 0,115,116
 165 190 165 190 167 206 c 0,117,118
 169 215 169 215 171 223 c 0,119,120
 174 234 174 234 180 246 c 0,121,122
 190 267 190 267 211 288 c 0,123,124
 259 333 259 333 325 336 c 0,95,96
328 291 m 0,125,126
 287 290 287 290 261 261 c 0,127,128
 230 224 230 224 231 179 c 128,-1,129
 232 134 232 134 259 107 c 0,130,131
 294 74 294 74 332 74 c 0,132,133
 345 73 345 73 359 77 c 0,134,135
 366 79 366 79 374 82 c 0,136,137
 436 107 436 107 433 182 c 1,138,-1
 433 186 l 1,139,140
 428 260 428 260 376 282 c 0,141,142
 355 291 355 291 328 291 c 0,125,126
EndSplineSet
Ligature2: "'haln' Halant Forms in Oriya lookup 11 subtable" vo holonto
Ligature2: "'half' Half Forms in Oriya lookup 4 subtable" vo holonto
EndChar

StartChar: xreph
Encoding: 1114127 -1 96
Width: 0
GlyphClass: 3
Flags: W
LayerCount: 2
Fore
SplineSet
-200 797 m 2,0,-1
 -36 752 l 2,1,2
 -3 742 -3 742 -9 722 c 0,3,4
 -14 705 -14 705 -30 705 c 0,5,6
 -34 705 -34 705 -36 706 c 2,7,-1
 -272 784 l 1,8,9
 -294 794 -294 794 -291 812 c 0,10,11
 -288 825 -288 825 -272 832 c 1,12,-1
 101 968 l 2,13,14
 116 974 116 974 126 972 c 0,15,16
 129 972 129 972 132 970 c 0,17,18
 138 967 138 967 141 960 c 128,-1,19
 144 953 144 953 143 947 c 0,20,21
 143 944 143 944 141 941 c 0,22,23
 139 937 139 937 134 934 c 2,24,-1
 129 932 l 1,25,-1
 -199 813 l 1,26,27
 -199 812 -199 812 -209 805 c 1,28,29
 -209 800 -209 800 -200 797 c 2,0,-1
EndSplineSet
Ligature2: "'rphf' Reph Form in Oriya lookup 2 subtable" ro holonto
EndChar

StartChar: ko_xnuk
Encoding: 1114128 -1 97
Width: 764
GlyphClass: 3
Flags: W
LayerCount: 2
Fore
SplineSet
394 -94 m 0,0,1
 342 -96 342 -96 322 -129 c 0,2,3
 315 -140 315 -140 315 -155 c 0,4,5
 314 -173 314 -173 321 -186 c 2,6,-1
 329 -199 l 1,7,8
 336 -208 336 -208 348 -214 c 0,9,10
 367 -224 367 -224 394 -225 c 0,11,12
 436 -226 436 -226 460 -198 c 0,13,14
 475 -180 475 -180 474 -152 c 1,15,16
 469 -111 469 -111 424 -98 c 0,17,18
 412 -94 412 -94 394 -94 c 0,0,1
618 248 m 2,19,-1
 618 74 l 2,20,21
 618 47 618 47 643 47 c 0,22,23
 666 47 666 47 673 69 c 0,24,25
 675 73 675 73 676 74 c 1,26,27
 677 58 677 58 673 45 c 0,28,29
 671 39 671 39 667 33 c 0,30,31
 663 25 663 25 654 16 c 0,32,33
 638 2 638 2 612 0 c 1,34,35
 564 0 564 0 559 44 c 0,36,37
 558 51 558 51 558 64 c 2,38,-1
 558 207 l 1,39,-1
 558 244 l 2,40,41
 558 306 558 306 493 308 c 0,42,43
 465 309 465 309 450 297 c 1,44,-1
 440 286 l 2,45,46
 438 283 438 283 437 281 c 0,47,48
 429 265 429 265 429 244 c 2,49,-1
 429 207 l 1,50,-1
 429 38 l 2,51,52
 429 0 429 0 400 0 c 0,53,54
 369 0 369 0 369 37 c 2,55,-1
 369 96 l 1,56,57
 348 71 348 71 332 62 c 0,58,59
 283 37 283 37 235 49 c 0,60,61
 212 55 212 55 188 70 c 0,62,63
 120 112 120 112 119 194 c 0,64,65
 118 222 118 222 125 248 c 0,66,67
 129 261 129 261 135 273 c 0,68,69
 144 291 144 291 157 308 c 0,70,71
 195 359 195 359 259 360 c 0,72,73
 286 361 286 361 314 346 c 0,74,75
 329 338 329 338 345 326 c 0,76,77
 365 311 365 311 377 291 c 1,78,79
 386 311 386 311 402 324 c 0,80,81
 452 365 452 365 506 358 c 0,82,83
 514 357 514 357 521 355 c 0,84,85
 552 348 552 348 584 324 c 0,86,87
 618 299 618 299 618 248 c 2,19,-1
340 136 m 0,88,89
 357 157 357 157 356 200 c 1,90,-1
 356 205 l 1,91,-1
 356 211 l 1,92,93
 353 257 353 257 321 286 c 0,94,95
 294 310 294 310 256 309 c 128,-1,96
 218 308 218 308 190 266 c 0,97,98
 171 236 171 236 171 192 c 1,99,100
 177 112 177 112 258 96 c 0,101,102
 293 89 293 89 324 118 c 0,103,104
 332 126 332 126 340 136 c 0,88,89
166 226 m 1,105,106
 63 260 63 260 46 372 c 0,107,108
 30 484 30 484 121 567 c 0,109,110
 211 648 211 648 359 650 c 0,111,112
 442 651 442 651 505 635 c 0,113,114
 537 628 537 628 564 616 c 0,115,116
 604 599 604 599 633 572 c 0,117,118
 717 493 717 493 722 364 c 0,119,120
 723 349 723 349 718 329 c 1,121,-1
 712 308 l 1,122,123
 707 293 707 293 700 276 c 0,124,125
 697 269 697 269 689 269 c 1,126,-1
 682 272 l 2,127,128
 675 276 675 276 676 291 c 1,129,-1
 678 307 l 1,130,131
 682 366 682 366 661 418 c 0,132,133
 651 445 651 445 634 470 c 0,134,135
 577 554 577 554 478 581 c 0,136,137
 447 589 447 589 411 594 c 0,138,139
 356 600 356 600 306 590 c 0,140,141
 279 585 279 585 254 575 c 0,142,143
 134 528 134 528 113 410 c 0,144,145
 101 340 101 340 135 305 c 1,146,147
 153 288 153 288 182 279 c 1,148,-1
 166 226 l 1,105,106
EndSplineSet
Ligature2: "'nukt' Nukta Forms in Oriya lookup 0 subtable" ko xnuk
EndChar

StartChar: ko_ssho_xnuk
Encoding: 1114129 -1 98
Width: 892
GlyphClass: 3
Flags: W
LayerCount: 2
Fore
SplineSet
304 248 m 1,0,-1
 139 151 l 1,1,2
 170 132 170 132 169 100 c 0,3,4
 165 42 165 42 108 42 c 0,5,6
 44 43 44 43 44 107 c 1,7,8
 46 160 46 160 103 189 c 2,9,-1
 283 283 l 1,10,-1
 311 284 l 1,11,12
 327 282 327 282 324 272 c 0,13,14
 323 269 323 269 322 267 c 0,15,16
 317 259 317 259 304 248 c 1,0,-1
473 -94 m 0,17,18
 423 -94 423 -94 402 -128 c 0,19,20
 394 -141 394 -141 394 -155 c 0,21,22
 393 -173 393 -173 399 -185 c 0,23,24
 402 -192 402 -192 407 -198 c 0,25,26
 414 -207 414 -207 426 -213 c 0,27,28
 446 -224 446 -224 473 -225 c 0,29,30
 515 -226 515 -226 539 -198 c 0,31,32
 554 -180 554 -180 553 -152 c 1,33,34
 548 -111 548 -111 501 -98 c 0,35,36
 489 -94 489 -94 473 -94 c 0,17,18
263 546 m 1,37,-1
 302 586 l 1,38,-1
 741 157 l 1,39,-1
 699 120 l 1,40,-1
 263 546 l 1,37,-1
767 103 m 2,41,42
 767 65 767 65 800 65 c 0,43,44
 830 65 830 65 840 96 c 0,45,46
 841 99 841 99 843 103 c 1,47,-1
 841 70 l 1,48,49
 839 62 l 0,50,51
 836 53 836 53 832 45 c 0,52,53
 824 32 824 32 815 22 c 1,54,55
 793 1 793 1 759 0 c 0,56,57
 718 -2 718 -2 702 27 c 0,58,59
 693 41 693 41 690 61 c 0,60,61
 688 85 688 85 688 89 c 2,62,-1
 688 584 l 2,63,64
 688 612 688 612 720 623 c 0,65,66
 753 634 753 634 759 639 c 0,67,68
 764 644 764 644 767 650 c 1,69,-1
 767 103 l 2,41,42
238 181 m 0,70,71
 240 191 240 191 242 197 c 0,72,73
 256 233 256 233 314 276 c 1,74,75
 276 275 276 275 245 280 c 0,76,77
 229 283 229 283 216 288 c 0,78,79
 196 294 196 294 181 305 c 0,80,81
 153 325 153 325 146 356 c 0,82,83
 141 376 141 376 143 397 c 0,84,85
 143 405 143 405 145 414 c 0,86,87
 148 429 148 429 154 445 c 0,88,89
 164 470 164 470 179 493 c 0,90,91
 225 564 225 564 300 596 c 0,92,93
 368 625 368 625 441 622 c 0,94,95
 447 622 447 622 453 621 c 0,96,97
 476 618 476 618 499 613 c 0,98,99
 549 600 549 600 594 573 c 0,100,101
 657 534 657 534 694 483 c 1,102,-1
 694 399 l 1,103,104
 685 458 685 458 582 528 c 0,105,106
 499 586 499 586 418 580 c 0,107,108
 412 580 412 580 407 579 c 2,109,-1
 386 575 l 2,110,111
 351 567 351 567 320 550 c 0,112,113
 214 494 214 494 214 397 c 0,114,115
 215 324 215 324 311 325 c 0,116,117
 342 326 342 326 389 341 c 2,118,-1
 469 366 l 2,119,120
 482 369 482 369 487 360 c 1,121,-1
 487 347 l 1,122,123
 484 340 484 340 479 335 c 1,124,-1
 395 279 l 2,125,126
 321 229 321 229 320 172 c 0,127,128
 319 139 319 139 334 115 c 0,129,130
 341 102 341 102 353 92 c 0,131,132
 371 77 371 77 399 67 c 0,133,134
 429 56 429 56 472 54 c 0,135,136
 512 52 512 52 548 64 c 0,137,138
 566 71 566 71 584 81 c 0,139,140
 612 98 612 98 636 122 c 0,141,142
 680 166 680 166 696 239 c 1,143,-1
 696 143 l 1,144,145
 605 1 605 1 466 0 c 0,146,147
 409 -1 409 -1 367 10 c 0,148,149
 331 20 331 20 306 39 c 0,150,151
 231 97 231 97 237 172 c 0,152,153
 237 176 237 176 238 181 c 0,70,71
EndSplineSet
Ligature2: "'nukt' Nukta Forms in Oriya lookup 0 subtable" ko_ssho xnuk
EndChar

